<svg xmlns="http://www.w3.org/2000/svg" xmlns:xlink="http://www.w3.org/1999/xlink" width="281.359" height="213.658" viewBox="0 0 281.359 213.658">
  <defs>
    <linearGradient id="linear-gradient" x1="0.5" y1="1" x2="0.5" gradientUnits="objectBoundingBox">
      <stop offset="0" stop-color="gray" stop-opacity="0.251"/>
      <stop offset="0.54" stop-color="gray" stop-opacity="0.122"/>
      <stop offset="1" stop-color="gray" stop-opacity="0.102"/>
    </linearGradient>
  </defs>
  <g id="Group_10009" data-name="Group 10009" transform="translate(0.004 0.003)">
    <path id="Path_3723" data-name="Path 3723" d="M307.459,705.774a19.436,19.436,0,0,0-7.087.131c-2.244.627-4.1,2.458-3.436,4.208,1.488,3.9,10.223,1.184,14.25,3.852,1.438.953,2,2.453,3.121,3.623,1.817,1.9,4.941,2.787,7.957,3.275,18.116,2.929,38.767-4.61,54.645,2.651,5.142,2.352,9.2,6.1,14.835,7.664,7.469,2.079,15.649-.142,23.377-1.566a114.346,114.346,0,0,1,29.233-1.533c7.227.557,16.839.744,19.152-4.5,1.488-3.375-1.661-7.132-5.842-8.729s-9.075-1.547-13.743-1.393c-9.01.323-18.023.975-27.034.658-17.424-.619-33.884-7.525-50.852-7.753C346.276,706.117,327.31,707.775,307.459,705.774Z" transform="translate(-240.624 -527.475)" fill="#6c63ff" opacity="0.1"/>
    <path id="Path_3724" data-name="Path 3724" d="M261.667,385.066a11.969,11.969,0,0,0-2.957,7.138A10.291,10.291,0,0,0,268.763,382,12.108,12.108,0,0,0,261.667,385.066Z" transform="translate(-213.151 -294.126)" fill="#6c63ff" opacity="0.1"/>
    <path id="Path_3725" data-name="Path 3725" d="M308.859,123.426a12.055,12.055,0,0,0,4.593,6.215,12.054,12.054,0,0,0,1.031-7.659,12.042,12.042,0,0,0-4.593-6.212A11.966,11.966,0,0,0,308.859,123.426Z" transform="translate(-249.125 -102.094)" fill="#6c63ff" opacity="0.1"/>
    <path id="Path_3726" data-name="Path 3726" d="M886.75,173.118a11.981,11.981,0,0,0-2.96,7.137,10.286,10.286,0,0,0,10.053-10.206A12.178,12.178,0,0,0,886.75,173.118Z" transform="translate(-664.021 -141.246)" fill="#6c63ff" opacity="0.1"/>
    <path id="Path_3727" data-name="Path 3727" d="M589.549,304.9a12.067,12.067,0,0,0,2.3,7.374A10.28,10.28,0,0,0,593.03,298,12.024,12.024,0,0,0,589.549,304.9Z" transform="translate(-451.765 -233.536)" fill="#6c63ff" opacity="0.1"/>
    <path id="Path_3728" data-name="Path 3728" d="M917.609,503.2a12.067,12.067,0,0,0,2.3,7.374A10.283,10.283,0,0,0,921.09,496.3,12.048,12.048,0,0,0,917.609,503.2Z" transform="translate(-688.395 -376.57)" fill="#6c63ff" opacity="0.1"/>
    <path id="Path_3729" data-name="Path 3729" d="M258.7,93.549c-18.037-.543-35.217-5.574-51.621-11.092s-32.652-11.619-50.258-14.54c-11.324-1.878-24.275-2.143-33.4,3.11C114.641,76.08,111.8,84.806,110.28,92.9c-1.148,6.09-1.823,12.5,1.321,18.2,2.185,3.96,6.059,7.288,8.74,11.078,9.328,13.2,2.734,29.467-7.372,42.362-4.738,6.045-10.242,11.809-13.9,18.244s-5.351,13.8-2.149,20.365c3.172,6.5,10.733,11.39,18.924,14.827,16.636,6.967,36.231,8.977,55.353,10.108,42.315,2.508,84.853,1.421,127.279.334,15.7-.4,31.471-.808,46.916-2.91,8.578-1.165,17.433-3.016,23.662-7.486,7.9-5.674,9.863-15.281,4.565-22.4-8.885-11.931-33.444-14.9-39.662-27.7-3.417-7.048.092-14.9,5.061-21.438,10.657-14.024,28.519-26.329,29.459-42.362.647-11.009-7.94-22.034-21.217-27.243-13.916-5.463-33.215-4.774-43.477,4.264C293.2,90.444,274.626,94.025,258.7,93.549Z" transform="translate(-95.23 -66.69)" fill="#fff"/>
    <path id="Path_3730" data-name="Path 3730" d="M491.184,161.811a2.508,2.508,0,0,0-1.711,1.508l-.279-.045-1.039-.167s-5.507-.454-6.536-.385a2.057,2.057,0,0,1-1.672-.945l-4.094-3.464-.318-.279c.443-.167.719-.254.719-.254S465.267,144.125,462.9,143.86s-6.285-3.453-6.324-3.484l-.042-.217c-.086-.46-.151-.925-.2-1.393l.583.357h0a4.7,4.7,0,0,1,.017-.485h0a8.818,8.818,0,0,1,1.639-4.682c1.145-1.589,2.84-2.837,3.517-4.668a6.745,6.745,0,0,0,.359-2.45,8.166,8.166,0,0,0-1.143-4.261,5.323,5.323,0,0,0-3.6-2.48c-.39-.061-.789-.07-1.173-.159-2.288-.538-3.13-3.606-5.354-4.359a4.509,4.509,0,0,0-3.191.315c-1,.435-1.906,1.059-2.885,1.541a17.017,17.017,0,0,0-2.977,1.519,3.106,3.106,0,0,0-.279.24h0l-.176.17h0a6.309,6.309,0,0,0-.95,1.24l-.042.07c-.028.047-.053.1-.078.148s-.042.078-.059.117-.045.089-.064.134l-.059.134-.05.128c-.017.047-.036.095-.05.145s-.028.081-.039.123l-.042.148-.025.12a.985.985,0,0,1-.028.153.493.493,0,0,0,0,.111v.516a1.684,1.684,0,0,0,.05.242h0a4.869,4.869,0,0,0,1.065,1.494c-.045.042-.089.081-.134.125a9.715,9.715,0,0,0-2.974,7,9.587,9.587,0,0,0,.159,1.731,9.286,9.286,0,0,0-1.625-.984,14.183,14.183,0,0,0-6.045-1.394,41.625,41.625,0,0,1-8.211-1.321,3.258,3.258,0,0,1,.279.739c-.209-.12-.435-.248-.683-.382a20.017,20.017,0,0,0-6.41-2.146s-1.421.2-1.611-2.787a12.653,12.653,0,0,0-.5-2.751,46.883,46.883,0,0,1-1.689-8.361l-.477-4.381s2.146-11.427.856-16.3a3.375,3.375,0,0,0-1.187-3.932c-5.4-3.974-10.844,11.494-10.844,11.494l-2.023,1.965a4.342,4.342,0,0,0-1.717-.655,9.585,9.585,0,0,0-1.848,4.158c-.4,1.614-3.144,4.309-5.624,6.48-1.761,1.541-3.461,3.144-5.159,4.752-1.254,1.193-4.049,2.9-10.147,3.863-.956.15-1.825.293-2.62.424a8.173,8.173,0,0,0,.307-2.213,8.3,8.3,0,0,0-6.51-8.063,2.077,2.077,0,0,0,0-.588,2.435,2.435,0,0,0-.616-1.115,11.981,11.981,0,0,0-4.59-3.974,5.978,5.978,0,0,0-2.478-.4h-.68a6.349,6.349,0,0,0-4.643,2.419c-.686.917-1.1,2-1.689,2.982a13.264,13.264,0,0,1-4.618,4.311c-1.1.666-2.257,1.24-3.3,2a12.365,12.365,0,0,0-4.562,12.33c.418,1.987,1.3,3.944,1.065,5.959a10.46,10.46,0,0,1-1.887,4.295,13.37,13.37,0,0,0-2.107,4.211,4.166,4.166,0,0,0,1.3,4.275,10.293,10.293,0,0,1,1.452.97,4.654,4.654,0,0,1,.669,1.048,10.429,10.429,0,0,0,6.485,5.039,4.739,4.739,0,0,0,1.327.145h.134a2.234,2.234,0,0,0,2.414-1.115,2.53,2.53,0,0,1,.231-.591.694.694,0,0,1,.4-.279,3.711,3.711,0,0,1,.945.357,12.018,12.018,0,0,0,4.593,1.313,6.47,6.47,0,0,0,.805.014,3.562,3.562,0,0,0,1.642-.234,3.518,3.518,0,0,0,1.263-1.081c.072-.092.139-.189.209-.279a23.052,23.052,0,0,1-2.057,6.41,11.634,11.634,0,0,0-1.552,5.6,5.621,5.621,0,0,0,.627,2.954s.047-.123.145-.315a23.681,23.681,0,0,0,3.082,4.27c.05,2.65.039,5.97-.293,6.653a13.761,13.761,0,0,0,5.256,15.142l1.747,3.827-7.193.51c-.727-.1-10.133-1.366-10.181.477-.047,1.915,1.421,20.56,6.3,19.3,4.546-1.176,3.046-6.614,2.82-7.344l.162-.045-.178-.05,3.637-3.448a1.611,1.611,0,0,0-.279-1.2l.036-.02,8.785.393,2.065,4.487s3.5,5.329.663,9.813-5.777,11.5-6.251,15.749c-.387,3.478-2.963,6.9-3.885,8.021-1.647.557-7.965,3.038-5.443,6.792,2.887,4.3,12.263,12.477,16.053,12.2s2.271-3.038,2.271-3.038l-3.169-3.071a77.262,77.262,0,0,1-.332-8.459,1.971,1.971,0,0,0-1.393-2.015c.3-2.132,1.053-6.173,2.676-8.406,2.271-3.133,9.565-16.917,9.565-16.917s2.319-2.057,1.8-8.177c-.209-2.469-.326-4.638-.393-6.352l8.255.371s8.854-.889,2.84-10.376-18.8-18.784-18.8-18.784l-.114-5.872c.58.145.92.217.92.217s-.05-.212-.134-.591l.134.031a127.514,127.514,0,0,1-2.416-14.353l.521.24c5.493,6.357,9.2.984,9.2.984s11.6-16.309,10.465-15.563a.987.987,0,0,1-.764.047l.836-2.664s3.425-5.234-1.547-8.177c-4.058-2.4-3.952,5.128-3.776,7.974l-.2-.17s-3.882,5.853-5.967,9.113-3.835,1.115-3.835,1.115l-2.634-2.968a10.427,10.427,0,0,0,.627-3.712,6.307,6.307,0,0,0-1.781-4.816,8.352,8.352,0,0,1-2.659-5.56,5.885,5.885,0,0,1,.527-2.291l13.687-7.246s2.887.045,6.77-5.936a102.676,102.676,0,0,1,8.289-10.933s-.081-.117-.22-.309c.139-.164.22-.254.22-.254s-.159-.231-.429-.588l2.11-2.433a31.218,31.218,0,0,0-.025,3.3l1.092,3.693.613,20.56s-.663,1.951,3.6,3.927c3.606,1.672,9.32,4.459,10.986,5.281-.061.151-.1.231-.1.231l.5-.033.072.033h0c8.33-.747,8.046,7.569,8.046,7.569s.557,16.917-1.987,22.806-2.179,13.177-2.179,13.177.254-1.243,1.672.382c-.028.142-.059.3-.092.454-.814,4.077-2.508,12.751-2.823,16.268a57,57,0,0,1-1.848,9.476l-.836,15.56,5.326.259-.059.557a1.75,1.75,0,0,1-.9,1.357c-1.823.989-6.131,4.459-5.786,15.167l-.184,1.722a21.636,21.636,0,0,1-2.6,8.308c-.123.217-.231.426-.323.627a.512.512,0,0,1,.145-.3s-2.767.574-2.2,8.052,1.421,8.785,2.558,8.877,6.689,1.449,6.391-1.307-.557-8.879-.19-9.813,1.878-3.453.446-4.061h0a21.36,21.36,0,0,0,.6-5.24s2.787-4.392,4.78-6.028,3.066-4.415,3.788-7.99c.05-.234,5.872-4.114,5.017-7.335-.151-.557-.259-1.051-.343-1.5-.036-.2-.067-.385-.095-.557h.1l1.185-7.1v6.917l.7.092-.025.557-.3,6.633a10.919,10.919,0,0,1-.836,3.757,36.732,36.732,0,0,0-2.937,16.722l-.067,6.371c-.2.039-3.094.722-2.544,7.943.557,7.475,1.419,8.785,2.556,8.877s6.689,1.449,6.393-1.307-.557-8.879-.19-9.813,1.031-3.4-.4-4.01a5.341,5.341,0,0,1,.6-2.405c.624-1.062,2.709-6.109,4.278-9.991a35.76,35.76,0,0,0,2.634-12.355q0-.071,0-.142a11.584,11.584,0,0,1,.906-4.161,26.832,26.832,0,0,0,1.516-4.573c.039-.187.07-.368.1-.557l1.36.181,4.643-20.094s1.271-10.892.649-15.811c-.025-.2-.053-.39-.086-.571l.279.025s.948-2.427.663-12.8,1.9-13.656,1.9-13.656c1.176-3.729,2.475-4.978,3.233-5.4h0a1.369,1.369,0,0,1,.649-.212l3.514,4.022h0l.647.741a.236.236,0,0,0,0-.045l.279.326a3,3,0,0,1-.022-.5c1.876,1.09,6.209,3.637,8.8,5.465,3.372,2.383,4.3,2.1,7.246,1.856a19.815,19.815,0,0,0,5.83-1.915l.148-.07a7.118,7.118,0,0,0,1.371.557s4.76,4.033,5.22-3.328S491.184,161.811,491.184,161.811ZM367.72,247.528a6.885,6.885,0,0,1-1.393-.588Zm-7.452-79.675.017,1.045-.072.033C360.234,168.564,360.251,168.2,360.267,167.853Zm74.452,93.286v.407A.3.3,0,0,1,434.719,261.139Z" transform="translate(-267.923 -82.487)" fill="url(#linear-gradient)"/>
    <rect id="Rectangle_1976" data-name="Rectangle 1976" width="8.082" height="8.5" transform="translate(173.908 56.192)" fill="#ff7590"/>
    <path id="Path_3731" data-name="Path 3731" d="M641.79,588.508c-.711,3.553-1.764,6.315-3.715,7.943s-4.691,5.992-4.691,5.992c-.047,5.805-1.58,7.569-1.58,7.569l-1.58.418h-3.9a19.3,19.3,0,0,1-.836-3.11,3.649,3.649,0,0,1,.613-1.734,21.717,21.717,0,0,0,2.55-8.258l.181-1.714c-.329-10.638,3.9-14.091,5.677-15.075a1.739,1.739,0,0,0,.883-1.349h0l.315-3.041,10.5.516a8.325,8.325,0,0,0,.176,3.066c.081.443.189.937.334,1.486C647.548,584.419,641.835,588.273,641.79,588.508Z" transform="translate(-477.703 -434.166)" fill="#8e5362"/>
    <path id="Path_3732" data-name="Path 3732" d="M707.782,583.931a27.054,27.054,0,0,1-1.485,4.546,11.674,11.674,0,0,0-.892,4.136v.142a36,36,0,0,1-2.584,12.28c-1.541,3.857-3.584,8.877-4.2,9.933-1.02,1.764-.418,4.738-.418,4.738l-5.908-.418.1-9.941a37.013,37.013,0,0,1,2.882-16.619,10.893,10.893,0,0,0,.836-3.732l.279-6.594.086-1.951s10.446-1.486,11.326.883A5.015,5.015,0,0,1,707.782,583.931Z" transform="translate(-525.897 -436.936)" fill="#8e5362"/>
    <path id="Path_3733" data-name="Path 3733" d="M672,579.731l-11-.541.315-3.041,10.507.516A8.081,8.081,0,0,0,672,579.731Z" transform="translate(-503.323 -434.166)" opacity="0.1"/>
    <path id="Path_3734" data-name="Path 3734" d="M718.388,583.931,707,582.4l.086-1.951s10.446-1.485,11.326.884A4.98,4.98,0,0,1,718.388,583.931Z" transform="translate(-536.503 -436.936)" opacity="0.1"/>
    <path id="Path_3735" data-name="Path 3735" d="M677.84,454.7l-4.551,19.974-13.47-1.812v-6.875l-1.165,7.065-16.165-.792.836-15.468a57.372,57.372,0,0,0,1.812-9.428c.315-3.495,1.97-12.115,2.77-16.165.279-1.335.435-2.177.435-2.177s27.686,5.758,29.5,7.848a4.407,4.407,0,0,1,.638,2.121C679.086,443.872,677.84,454.7,677.84,454.7Z" transform="translate(-489.972 -328.041)" fill="#bdd2e8"/>
    <path id="Path_3736" data-name="Path 3736" d="M653.33,513.723s10.9-5.713,13.553-4.507Z" transform="translate(-497.791 -385.766)" opacity="0.1"/>
    <path id="Path_3737" data-name="Path 3737" d="M674.66,458.82s9.058,6.876,9.336,8.732Z" transform="translate(-513.176 -349.536)" opacity="0.1"/>
    <path id="Path_3738" data-name="Path 3738" d="M665.83,543.775s6.549-.279,8.64,1.393Z" transform="translate(-506.807 -410.801)" opacity="0.1"/>
    <path id="Path_3739" data-name="Path 3739" d="M705.635,517.44s3.113,10.189,1.764,12.976-2.74-.652-2.74-.652Z" transform="translate(-534.815 -391.819)" opacity="0.1"/>
    <path id="Path_3740" data-name="Path 3740" d="M685.8,708s-3.066.465-2.508,7.9,1.393,8.734,2.508,8.826,6.549,1.441,6.271-1.3-.557-8.824-.187-9.755,1.012-3.381-.393-3.985l-.3,1.433s-2.974-2.742-4.738-.744a7.73,7.73,0,0,0-.365-1.43C685.912,708.5,685.527,708.279,685.8,708Z" transform="translate(-519.355 -529.269)" fill="#494457"/>
    <path id="Path_3741" data-name="Path 3741" d="M831.445,349.357s-.7.393-1.734.883a19.309,19.309,0,0,1-5.719,1.9c-2.893.245-3.8.524-7.107-1.845-2.539-1.817-6.789-4.351-8.64-5.432l-.805-.477-.081-.047v-.033l1.536-4.22,5.435-2.89,1.349,1.157L819.7,341.8a2,2,0,0,0,1.639.939c1.012-.07,6.41.382,6.41.382l1.02.167,2.149.357Z" transform="translate(-608.893 -261.811)" fill="#8e5362"/>
    <path id="Path_3742" data-name="Path 3742" d="M884.019,365.132s-.7.393-1.734.884c-1.09-.557-2.444-1.6-1.923-3.322.471-1.547.6-2.754.987-3.623l2.149.357Z" transform="translate(-661.466 -277.586)" opacity="0.1"/>
    <path id="Path_3743" data-name="Path 3743" d="M884.008,353.351s6.062-1.742,5.61,5.574-5.122,3.311-5.122,3.311-3.972-1.045-3.135-3.8S881.954,354.014,884.008,353.351Z" transform="translate(-662.186 -273.33)" fill="#8e5362"/>
    <path id="Path_3744" data-name="Path 3744" d="M606.428,148.033l-6.315,2.653-.1.042-.07-.033-.393-.2c-1.633-.814-7.246-3.6-10.777-5.251-4.18-1.951-3.531-3.9-3.531-3.9l-.6-20.437-1.07-3.67s-.755-12.441,5.3-15.56,2.138,18.021,2.138,18.021l.468,4.392a47.033,47.033,0,0,0,1.658,8.3,12.89,12.89,0,0,1,.49,2.734c.187,2.971,1.58,2.773,1.58,2.773a19.4,19.4,0,0,1,6.282,2.135,15.7,15.7,0,0,1,2.079,1.315Z" transform="translate(-447.453 -91.702)" fill="#8e5362"/>
    <path id="Path_3745" data-name="Path 3745" d="M732.38,267.272l-5.39-.557a20.708,20.708,0,0,0,2.288-4.663,7.921,7.921,0,0,0,.237-.962,3.208,3.208,0,0,0-.3-2.366c-1.577-2.322,9.384-5.574,9.384-5.574a26.773,26.773,0,0,0-.12,3.868,19.57,19.57,0,0,0,.279,2.678,6.643,6.643,0,0,0,2.252,4.37C744.456,266.436,732.38,267.272,732.38,267.272Z" transform="translate(-550.922 -201.186)" fill="#8e5362"/>
    <path id="Path_3746" data-name="Path 3746" d="M732.38,284.215l-5.39-.557a20.708,20.708,0,0,0,2.288-4.663,1.946,1.946,0,0,0,1.708,1.04s5.44.805,7.781-3.395a6.643,6.643,0,0,0,2.252,4.37C744.456,283.379,732.38,284.215,732.38,284.215Z" transform="translate(-550.922 -218.129)" opacity="0.1"/>
    <path id="Path_3747" data-name="Path 3747" d="M808.294,344.867a3,3,0,0,0,.022.5l-.836-.973-.07-.081,1.536-4.22,5.435-2.89,1.349,1.157C813.8,339.1,808.38,341.439,808.294,344.867Z" transform="translate(-608.929 -261.811)" opacity="0.1"/>
    <path id="Path_3748" data-name="Path 3748" d="M647.62,248.083l-6.315,2.653h-.167l-.488.033s.036-.081.095-.231c.527-1.279,2.971-7.525,1.915-10.468a15.716,15.716,0,0,1,2.079,1.315Z" transform="translate(-488.645 -191.751)" opacity="0.1"/>
    <path id="Path_3749" data-name="Path 3749" d="M692.5,438.974c-2.458-.22-27.051-2.494-29.344-6.115a12.718,12.718,0,0,0-1.226-1.672c.279-1.335.435-2.177.435-2.177s27.686,5.758,29.5,7.848A4.348,4.348,0,0,1,692.5,438.974Z" transform="translate(-503.994 -328.034)" opacity="0.1"/>
    <path id="Path_3750" data-name="Path 3750" d="M670.159,253.034s5.5.814,7.823-3.459c0,0,3.882,3.188,6.2,3.461s13.1,13.84,13.1,13.84-8.64,2.787-8.082,7.246l-4.089-4.738s-2.043-.095-3.807,5.574c0,0-2.138,3.25-1.859,13.562s-.649,12.728-.649,12.728-27.129-2.322-29.542-6.131-2.787-1.951-2.787-1.951-.373-7.246,2.135-13.1,1.951-22.667,1.951-22.667.279-8.269-7.9-7.525c0,0,3.436-7.99,1.859-11.056a40.238,40.238,0,0,0,8.052,1.315,13.774,13.774,0,0,1,5.931,1.393,6.579,6.579,0,0,1,2.461,1.856,3.614,3.614,0,0,0,4.18,1.21,42.217,42.217,0,0,0,2.425,5.945c.109.2.217.4.329.6a9.164,9.164,0,0,0,.5.786A1.992,1.992,0,0,0,670.159,253.034Z" transform="translate(-490.094 -190.85)" fill="#ff7590"/>
    <path id="Path_3751" data-name="Path 3751" d="M743.874,256.988a9.55,9.55,0,0,1-.987,1.185,9.724,9.724,0,0,1-6.968,2.938,10,10,0,0,1-1.006-.05,3.208,3.208,0,0,0-.3-2.366c-1.577-2.322,9.384-5.574,9.384-5.574A26.774,26.774,0,0,0,743.874,256.988Z" transform="translate(-556.312 -201.164)" opacity="0.1"/>
    <path id="Path_3752" data-name="Path 3752" d="M724.169,220.574a9.718,9.718,0,1,1-2.846-6.908A9.755,9.755,0,0,1,724.169,220.574Z" transform="translate(-534.815 -170.653)" fill="#8e5362"/>
    <path id="Path_3753" data-name="Path 3753" d="M792,325.791l.2,6.527s2.912-2.347,3-4.576S792,325.791,792,325.791Z" transform="translate(-597.813 -253.574)" opacity="0.1"/>
    <path id="Path_3754" data-name="Path 3754" d="M707.66,349.24s7.664,10.521,12.123,11.588S709.332,352.651,707.66,349.24Z" transform="translate(-536.979 -270.496)" opacity="0.1"/>
    <path id="Path_3755" data-name="Path 3755" d="M736.83,353.17S741.1,358,744.168,358.6Z" transform="translate(-558.019 -273.331)" opacity="0.1"/>
    <path id="Path_3756" data-name="Path 3756" d="M682.83,396.82s7.8,7.664,12.263,8.13Z" transform="translate(-519.069 -304.815)" opacity="0.1"/>
    <path id="Path_3757" data-name="Path 3757" d="M731.67,220.571a9.717,9.717,0,0,1-2.787,6.817l-1.07-.666a2.959,2.959,0,0,1-1.042-.906,3.6,3.6,0,0,1-.223-2.021,4.754,4.754,0,0,0-1.483-3.946c-1.848-1.48-4.81-.66-6.689-2.113a6.593,6.593,0,0,1-1.185-1.318l-1.761-2.361c-.106-.139-.234-.279-.371-.443a9.755,9.755,0,0,1,16.594,6.967Z" transform="translate(-542.316 -170.65)" opacity="0.1"/>
    <path id="Path_3758" data-name="Path 3758" d="M713.538,191.886a17.5,17.5,0,0,1,2.918-1.508c.981-.491,1.848-1.115,2.829-1.533a4.455,4.455,0,0,1,3.133-.315c2.182.75,3.007,3.8,5.251,4.334.379.089.769.1,1.151.156a5.24,5.24,0,0,1,3.526,2.466,8.211,8.211,0,0,1,1.115,4.239,6.791,6.791,0,0,1-.354,2.433c-.663,1.82-2.327,3.066-3.45,4.64a8.824,8.824,0,0,0-1.614,5.153l-2.72-1.692a2.932,2.932,0,0,1-1.042-.906,3.6,3.6,0,0,1-.223-2.021,4.76,4.76,0,0,0-1.48-3.946c-1.851-1.48-4.813-.661-6.689-2.113a6.6,6.6,0,0,1-1.185-1.318l-1.761-2.361a6.725,6.725,0,0,1-1.282-1.775C711.289,194.478,712.557,192.641,713.538,191.886Z" transform="translate(-539.816 -154.456)" fill="#362133"/>
    <path id="Path_3759" data-name="Path 3759" d="M725.612,219.694a2.932,2.932,0,0,1-1.042-.906,3.6,3.6,0,0,1-.223-2.021,4.754,4.754,0,0,0-1.483-3.946c-1.848-1.48-4.81-.661-6.689-2.113a6.6,6.6,0,0,1-1.184-1.318l-1.761-2.361a6.662,6.662,0,0,1-1.282-1.775c-.3-1.076.465-2.478,1.288-3.375-.922.853-1.934,2.472-1.591,3.679a6.985,6.985,0,0,0,1.282,1.775l1.761,2.361a6.6,6.6,0,0,0,1.185,1.318c1.87,1.452,4.833.633,6.689,2.113a4.76,4.76,0,0,1,1.48,3.946,3.6,3.6,0,0,0,.223,2.021,2.932,2.932,0,0,0,1.042.906l2.72,1.692a4.635,4.635,0,0,1,.017-.482Z" transform="translate(-539.803 -164.205)" opacity="0.1"/>
    <path id="Path_3760" data-name="Path 3760" d="M621.292,682.94s-2.715.557-2.157,8,1.393,8.734,2.508,8.826,6.549,1.441,6.271-1.3-.557-8.824-.187-9.755,1.842-3.431.438-4.036l-1.134,1.483s-2.974-2.742-4.738-.744C622.292,685.415,620.643,683.589,621.292,682.94Z" transform="translate(-473.071 -511.194)" fill="#494457"/>
    <path id="Path_3761" data-name="Path 3761" d="M633.23,699.5c.588.279,1.137.619,1.722.9a3.866,3.866,0,0,0,1.87.44,1.305,1.305,0,0,0,.764-.265" transform="translate(-483.293 -523.138)" opacity="0.1"/>
    <path id="Path_3762" data-name="Path 3762" d="M697.33,725.62a9.464,9.464,0,0,0,1.012.995,3.53,3.53,0,0,0,1.951.4.791.791,0,0,0,.334-.042.814.814,0,0,0,.3-.279l.365-.471" transform="translate(-529.528 -541.979)" opacity="0.1"/>
    <path id="Path_3763" data-name="Path 3763" d="M532.626,257.754s-1.254-11.889,3.623-8.963,1.519,8.127,1.519,8.127l-1.145,3.671Z" transform="translate(-410.622 -197.707)" fill="#ffc1c7"/>
    <path id="Path_3764" data-name="Path 3764" d="M561,107.485l2.787-2.737s5.343-15.376,10.638-11.427-6.711,13.935-6.711,13.935l-3.183,3.715Z" transform="translate(-431.193 -85.434)" fill="#ffc1c7"/>
    <path id="Path_3765" data-name="Path 3765" d="M414.3,360.148l-.139,3.158s2.556,4.459,3.623,4.785.975-9.431.975-9.431Z" transform="translate(-325.277 -277.29)" fill="#ff5374"/>
    <path id="Path_3766" data-name="Path 3766" d="M414.3,360.148l-.139,3.158s2.556,4.459,3.623,4.785.975-9.431.975-9.431Z" transform="translate(-325.277 -277.29)" opacity="0.1"/>
    <path id="Path_3767" data-name="Path 3767" d="M334.76,284.87l.19,11.638h12.957l-.975-6.781Z" transform="translate(-241.465 -205.479)" fill="#ffc1c7"/>
    <path id="Path_3768" data-name="Path 3768" d="M437.108,455.82l.6,3.715,7.572,16.817s3.436,5.3.649,9.755-5.666,11.427-6.131,15.652-4.133,8.361-4.133,8.361l7.99,3.392s.557-6.641,2.787-9.755,9.381-16.814,9.381-16.814,2.277-2.046,1.767-8.13-.465-10.359-.465-10.359l-.789-9.707Z" transform="translate(-340.792 -347.372)" fill="#575988"/>
    <path id="Path_3769" data-name="Path 3769" d="M437.108,455.82l.6,3.715,7.572,16.817s3.436,5.3.649,9.755-5.666,11.427-6.131,15.652-4.133,8.361-4.133,8.361l7.99,3.392s.557-6.641,2.787-9.755,9.381-16.814,9.381-16.814,2.277-2.046,1.767-8.13-.465-10.359-.465-10.359l-.789-9.707Z" transform="translate(-340.792 -347.372)" opacity="0.1"/>
    <path id="Path_3770" data-name="Path 3770" d="M421.883,648.82s-8.548,2.6-5.713,6.876,12.031,12.4,15.747,12.123,2.23-3.021,2.23-3.021l-3.113-3.066a74.672,74.672,0,0,1-.323-8.406c.234-1.9-2.648-2.787-3.021-1.672S421.883,648.82,421.883,648.82Z" transform="translate(-326.311 -486.583)" fill="#c4747b"/>
    <path id="Path_3771" data-name="Path 3771" d="M431.285,375.58l-6.775.75a2.43,2.43,0,0,0-2.163,2.478c.073,2.709.12,7.018-.259,7.8a13.766,13.766,0,0,0,5.156,15.05l10.081,3.205-16.165,1.162.513,8.966,2.508-1.393,30.657,1.393s8.687-.883,2.787-10.312-18.439-18.673-18.439-18.673l-.139-7.341-.931-2.135Z" transform="translate(-330.326 -289.495)" fill="#575988"/>
    <path id="Path_3772" data-name="Path 3772" d="M487.66,478.267a8.707,8.707,0,0,1,6.967,0Z" transform="translate(-378.293 -363.039)" opacity="0.1"/>
    <path id="Path_3773" data-name="Path 3773" d="M398.03,483.3s-9.986-1.438-10.033.465,1.393,20.437,6.179,19.183,2.74-7.386,2.74-7.386l3.578-3.436s.371-1.9-2-1.72Z" transform="translate(-306.405 -366.819)" fill="#c4747b"/>
    <path id="Path_3774" data-name="Path 3774" d="M478.281,283.486l3.946,4.507s1.72,2.138,3.763-1.115,5.853-9.058,5.853-9.058,4.228,3.715,5.343,2.974-10.264,15.471-10.264,15.471-3.623,5.34-9.013-.975l-1.577-.744Z" transform="translate(-370.121 -218.981)" fill="#ff5374"/>
    <path id="Path_3775" data-name="Path 3775" d="M478.281,283.486l3.946,4.507s1.72,2.138,3.763-1.115,5.853-9.058,5.853-9.058,4.228,3.715,5.343,2.974-10.264,15.471-10.264,15.471-3.623,5.34-9.013-.975l-1.577-.744Z" transform="translate(-370.121 -218.981)" opacity="0.1"/>
    <circle id="Ellipse_437" data-name="Ellipse 437" cx="8.222" cy="8.222" r="8.222" transform="translate(87.865 29.749)" fill="#ffc1c7"/>
    <path id="Path_3776" data-name="Path 3776" d="M419.743,163.879s-7.065,3.344-6.229,9.2a129.4,129.4,0,0,1,.975,13.238s3.208,4.738-1.045,13.8c0,0-2.717,4.6-.906,7.943,0,0,2.009-5.3,7.2-1.394s13.559,5.713,13.559,5.713-4.32-18.952-1.672-21.6c0,0,4.6-6.828.418-11.148s-2.09-8.361-2.09-8.361l13.425-7.2s2.832.045,6.641-5.9a102.373,102.373,0,0,1,8.13-10.869s-2.882-4.32-5.574-4.646a9.614,9.614,0,0,0-1.811,4.136c-.4,1.6-3.085,4.281-5.518,6.441-1.728,1.533-3.395,3.124-5.058,4.738-1.232,1.184-3.974,2.879-9.955,3.838C420.392,163.371,419.743,163.879,419.743,163.879Z" transform="translate(-323.658 -121.482)" opacity="0.1"/>
    <path id="Path_3777" data-name="Path 3777" d="M419.743,161.879s-7.065,3.344-6.229,9.2a129.4,129.4,0,0,1,.975,13.238s3.208,4.738-1.045,13.8c0,0-2.717,4.6-.906,7.943,0,0,2.009-5.3,7.2-1.394s13.559,5.713,13.559,5.713-4.32-18.952-1.672-21.6c0,0,4.6-6.828.418-11.148s-2.09-8.361-2.09-8.361l13.425-7.2s2.832.045,6.641-5.9a102.373,102.373,0,0,1,8.13-10.869s-2.882-4.32-5.574-4.646a9.614,9.614,0,0,0-1.811,4.136c-.4,1.6-3.085,4.281-5.518,6.441-1.728,1.533-3.395,3.124-5.058,4.738-1.232,1.184-3.974,2.879-9.955,3.838C420.392,161.371,419.743,161.879,419.743,161.879Z" transform="translate(-323.658 -120.04)" fill="#ff5374"/>
    <path id="Path_3778" data-name="Path 3778" d="M461.83,342.49s5.479,8.082,5.619,9.476C467.451,351.966,466.615,343.279,461.83,342.49Z" transform="translate(-359.662 -265.627)" opacity="0.1"/>
    <path id="Path_3779" data-name="Path 3779" d="M436,244.82s3.821,4.6,9.342.744A11.842,11.842,0,0,1,436,244.82Z" transform="translate(-341.03 -195.178)" opacity="0.1"/>
    <path id="Path_3780" data-name="Path 3780" d="M371.32,157.957a2.466,2.466,0,0,0-.6-1.115,11.8,11.8,0,0,0-4.5-3.952,6.226,6.226,0,0,0-7.1,2.023c-.674.909-1.076,1.99-1.658,2.963a13.142,13.142,0,0,1-4.529,4.286c-1.079.661-2.216,1.232-3.233,1.982a12.382,12.382,0,0,0-4.476,12.263c.41,1.973,1.276,3.919,1.042,5.922a10.487,10.487,0,0,1-1.848,4.27,13.5,13.5,0,0,0-2.068,4.18,4.172,4.172,0,0,0,1.279,4.247,10.633,10.633,0,0,1,1.424.964,4.632,4.632,0,0,1,.655,1.042,10.248,10.248,0,0,0,6.363,5.017c1.2.315,2.807.2,3.244-.959a2.508,2.508,0,0,1,.226-.588c.4-.557,1.268-.245,1.881.075a11.647,11.647,0,0,0,4.5,1.29,3.748,3.748,0,0,0,1.842-.22,3.4,3.4,0,0,0,1.24-1.073c1.466-1.909,1.887-4.4,2.138-6.8a15.877,15.877,0,0,0-.019-4.682c-.474-2.469-1.976-4.777-1.753-7.28.237-2.676,2.408-4.863,2.74-7.525a5.739,5.739,0,0,0-.978-3.955,5.652,5.652,0,0,1-.744-1.165,1.157,1.157,0,0,1,.223-1.279,1.952,1.952,0,0,1,.58-.279,4.821,4.821,0,0,0,2.876-4.32,9.6,9.6,0,0,1,.192-2.018C370.551,160.225,371.479,159.077,371.32,157.957Z" transform="translate(-273.388 -128.584)" opacity="0.1"/>
    <path id="Path_3781" data-name="Path 3781" d="M369.32,157.957a2.466,2.466,0,0,0-.6-1.115,11.805,11.805,0,0,0-4.5-3.952,6.226,6.226,0,0,0-7.1,2.023c-.674.909-1.076,1.99-1.658,2.963a13.142,13.142,0,0,1-4.529,4.286c-1.079.661-2.216,1.232-3.233,1.982a12.382,12.382,0,0,0-4.476,12.263c.41,1.973,1.276,3.919,1.042,5.922a10.487,10.487,0,0,1-1.848,4.27,13.5,13.5,0,0,0-2.068,4.18,4.172,4.172,0,0,0,1.279,4.247,10.631,10.631,0,0,1,1.424.964,4.629,4.629,0,0,1,.655,1.042,10.248,10.248,0,0,0,6.363,5.017c1.2.315,2.807.2,3.244-.959a2.508,2.508,0,0,1,.226-.588c.4-.557,1.268-.245,1.881.075a11.646,11.646,0,0,0,4.5,1.29,3.748,3.748,0,0,0,1.842-.22,3.4,3.4,0,0,0,1.24-1.073c1.466-1.909,1.887-4.4,2.138-6.8a15.878,15.878,0,0,0-.02-4.682c-.474-2.469-1.976-4.777-1.753-7.28.237-2.676,2.408-4.863,2.74-7.525a5.738,5.738,0,0,0-.978-3.955,5.655,5.655,0,0,1-.744-1.165,1.157,1.157,0,0,1,.223-1.279,1.952,1.952,0,0,1,.58-.279,4.821,4.821,0,0,0,2.876-4.32,9.6,9.6,0,0,1,.192-2.018C368.551,160.225,369.479,159.077,369.32,157.957Z" transform="translate(-271.946 -128.584)" fill="#bb7684"/>
    <g id="Group_10008" data-name="Group 10008" transform="translate(78.836 23.902)" opacity="0.1">
      <path id="Path_3782" data-name="Path 3782" d="M380.03,323.9a2.626,2.626,0,0,0-.229.588,1.865,1.865,0,0,1-1.692,1.087,2.268,2.268,0,0,0,2.528-1.087,2.626,2.626,0,0,1,.229-.588.7.7,0,0,1,.279-.237A.957.957,0,0,0,380.03,323.9Z" transform="translate(-378.11 -275.897)"/>
      <path id="Path_3783" data-name="Path 3783" d="M420.574,157.929a2.4,2.4,0,0,0-.6-1.115,11.8,11.8,0,0,0-4.5-3.952,5.852,5.852,0,0,0-2.564-.385,5.691,5.691,0,0,1,1.728.385,11.805,11.805,0,0,1,4.5,3.952,2.4,2.4,0,0,1,.6,1.115c.159,1.115-.766,2.271-1.073,3.3a8.744,8.744,0,0,0-.192,2.018,4.836,4.836,0,0,1-2.879,4.32,1.952,1.952,0,0,0-.58.279,1.157,1.157,0,0,0-.22,1.282,5.642,5.642,0,0,0,.741,1.165,5.733,5.733,0,0,1,.981,3.952c-.334,2.667-2.508,4.852-2.742,7.525-.223,2.508,1.282,4.81,1.753,7.277a15.975,15.975,0,0,1,.02,4.682c-.251,2.394-.669,4.891-2.138,6.8a3.392,3.392,0,0,1-1.237,1.073,2.77,2.77,0,0,1-.911.226,3.6,3.6,0,0,0,1.747-.226,3.392,3.392,0,0,0,1.246-1.053c1.469-1.906,1.887-4.4,2.138-6.8a15.879,15.879,0,0,0-.02-4.682c-.471-2.466-1.976-4.777-1.753-7.277.24-2.678,2.408-4.863,2.742-7.525a5.733,5.733,0,0,0-.981-3.952,5.642,5.642,0,0,1-.741-1.165,1.157,1.157,0,0,1,.22-1.282,1.952,1.952,0,0,1,.58-.279,4.829,4.829,0,0,0,2.879-4.32,9.4,9.4,0,0,1,.192-2.018C419.808,160.2,420.733,159.053,420.574,157.929Z" transform="translate(-402.021 -152.462)"/>
    </g>
    <path id="Path_3784" data-name="Path 3784" d="M406.82,525a3.765,3.765,0,0,0,3.854,1.065" transform="translate(-319.983 -397.272)" opacity="0.1"/>
    <path id="Path_3785" data-name="Path 3785" d="M465.923,696a2.366,2.366,0,0,1-1.923.485" transform="translate(-361.227 -520.614)" opacity="0.1"/>
    <ellipse id="Ellipse_438" data-name="Ellipse 438" cx="7.505" cy="1.268" rx="7.505" ry="1.268" transform="translate(21.797 181.501)" fill="#6c63ff" opacity="0.1"/>
    <ellipse id="Ellipse_439" data-name="Ellipse 439" cx="7.505" cy="1.268" rx="7.505" ry="1.268" transform="translate(227.277 206.751)" fill="#6c63ff"/>
    <ellipse id="Ellipse_440" data-name="Ellipse 440" cx="7.505" cy="1.268" rx="7.505" ry="1.268" transform="translate(227.277 182.342)" fill="#6c63ff" opacity="0.1"/>
    <ellipse id="Ellipse_441" data-name="Ellipse 441" cx="7.505" cy="1.268" rx="7.505" ry="1.268" transform="translate(43.078 193.276)" fill="#6c63ff" opacity="0.1"/>
    <ellipse id="Ellipse_442" data-name="Ellipse 442" cx="11.207" cy="1.895" rx="11.207" ry="1.895" transform="translate(247.312 192.649)" fill="#6c63ff"/>
    <ellipse id="Ellipse_443" data-name="Ellipse 443" cx="25.295" cy="4.275" rx="25.295" ry="4.275" transform="translate(72.097 205.104)" fill="#6c63ff" opacity="0.1"/>
    <path id="Path_3786" data-name="Path 3786" d="M1012.629,740.254a3.27,3.27,0,0,0,1.07-1.614,1.436,1.436,0,0,0-.747-1.641,2.093,2.093,0,0,0-1.973.694,2.635,2.635,0,0,1-1.92.925,2.918,2.918,0,0,0,.9-2.734,1.144,1.144,0,0,0-.251-.557c-.382-.407-1.07-.231-1.527.089-1.449,1.02-1.853,2.988-1.862,4.76a8.959,8.959,0,0,1-.025-1.951,2.015,2.015,0,0,0-.736-1.736,2.249,2.249,0,0,0-1.115-.279,2.331,2.331,0,0,0-1.823.518,1.792,1.792,0,0,0,.073,2.23,7.285,7.285,0,0,0,1.884,1.511,4.179,4.179,0,0,1,1.349,1.285,1.415,1.415,0,0,1,.1.229h4.083A11.346,11.346,0,0,0,1012.629,740.254Z" transform="translate(-749.478 -548.81)" fill="#6c63ff"/>
    <path id="Path_3787" data-name="Path 3787" d="M927.462,788.844a3.263,3.263,0,0,0,1.068-1.614,1.441,1.441,0,0,0-.747-1.642,2.093,2.093,0,0,0-1.973.694,2.635,2.635,0,0,1-1.92.925,2.918,2.918,0,0,0,.9-2.734,1.114,1.114,0,0,0-.251-.557c-.379-.407-1.07-.231-1.524.089-1.449,1.02-1.853,2.988-1.862,4.76a8.778,8.778,0,0,1-.028-1.951,2.015,2.015,0,0,0-.736-1.736,2.231,2.231,0,0,0-1.115-.265,2.332,2.332,0,0,0-1.823.518,1.793,1.793,0,0,0,.073,2.23,7.252,7.252,0,0,0,1.887,1.51,4.181,4.181,0,0,1,1.346,1.285,1.409,1.409,0,0,1,.1.229h4.083A11.43,11.43,0,0,0,927.462,788.844Z" transform="translate(-688.045 -583.857)" fill="#6c63ff"/>
    <path id="Path_3788" data-name="Path 3788" d="M303.251,602.139s-3.916-13.3.736-23.082a21,21,0,0,0,1.706-13.182,35.271,35.271,0,0,0-1.864-6.184" transform="translate(-244.167 -422.293)" fill="none" stroke="#535461" stroke-miterlimit="10" stroke-width="2"/>
    <path id="Path_3789" data-name="Path 3789" d="M304.386,529.627c0,1.63-2.951,6.354-2.951,6.354s-2.949-4.724-2.949-6.354a2.951,2.951,0,1,1,5.9,0Z" transform="translate(-241.841 -398.415)" fill="#6c63ff"/>
    <path id="Path_3790" data-name="Path 3790" d="M321.811,558.276c-.886,1.366-5.931,3.729-5.931,3.729s.092-5.574.978-6.937a2.951,2.951,0,0,1,4.953,3.208Z" transform="translate(-254.388 -418.037)" fill="#6c63ff"/>
    <path id="Path_3791" data-name="Path 3791" d="M318.274,610.872c-1.455.736-7,.229-7,.229s2.89-4.763,4.345-5.5a2.951,2.951,0,0,1,2.659,5.267Z" transform="translate(-251.063 -455.21)" fill="#6c63ff"/>
    <path id="Path_3792" data-name="Path 3792" d="M308.624,653.4c-1.31.967-6.864,1.393-6.864,1.393s2.046-5.184,3.344-6.154a2.951,2.951,0,0,1,3.509,4.738Z" transform="translate(-244.203 -486.092)" fill="#6c63ff"/>
    <path id="Path_3793" data-name="Path 3793" d="M291.456,571.429c1.171,1.134,6.614,2.31,6.614,2.31s-1.332-5.41-2.508-6.544a2.951,2.951,0,0,0-4.111,4.233Z" transform="translate(-236.16 -427.143)" fill="#6c63ff"/>
    <path id="Path_3794" data-name="Path 3794" d="M278.367,618.92c1.455.733,7,.226,7,.226s-2.89-4.763-4.345-5.5a2.951,2.951,0,1,0-2.656,5.271Z" transform="translate(-226.158 -460.986)" fill="#6c63ff"/>
    <path id="Path_3795" data-name="Path 3795" d="M275.553,668.853c1.31.97,6.864,1.393,6.864,1.393s-2.046-5.184-3.344-6.151a2.951,2.951,0,0,0-3.509,4.738Z" transform="translate(-224.528 -497.243)" fill="#6c63ff"/>
    <path id="Path_3796" data-name="Path 3796" d="M274,696.966s4.769-.948,6.042-2.21,6.993-3.47,7.628-1.892,8.584,6.942,3.18,7.89-12.717,1.263-14.306.633S274,696.966,274,696.966Z" transform="translate(-224.18 -517.956)" fill="#a8a8a8"/>
    <path id="Path_3797" data-name="Path 3797" d="M290.859,712.086c-5.4.948-12.717,1.263-14.306.63-1.212-.479-2.054-2.787-2.386-3.866l-.167.042s.953,3.788,2.544,4.42,8.9.315,14.306-.633c1.561-.279,2.007-.914,1.839-1.728C292.564,711.473,292.021,711.882,290.859,712.086Z" transform="translate(-224.18 -529.883)" opacity="0.2"/>
    <path id="Path_3798" data-name="Path 3798" d="M932.261,659.91s1.533,2-.705,5.017-4.083,5.574-3.344,7.461c0,0,3.378-5.616,6.131-5.694S935.28,663.279,932.261,659.91Z" transform="translate(-695.944 -494.582)" fill="#6c63ff"/>
    <path id="Path_3799" data-name="Path 3799" d="M932.495,659.91a2.5,2.5,0,0,1,.315.63c2.681,3.149,4.108,6.09,1.53,6.162-2.4.07-5.279,4.362-5.97,5.446a2.562,2.562,0,0,0,.081.248s3.378-5.616,6.131-5.694S935.513,663.279,932.495,659.91Z" transform="translate(-696.177 -494.582)" opacity="0.1"/>
    <path id="Path_3800" data-name="Path 3800" d="M952.474,667.889c0,.705-.081,1.276-.178,1.276s-.176-.557-.176-1.276.1-.373.2-.373S952.474,667.183,952.474,667.889Z" transform="translate(-713.308 -500.008)" fill="#ffd037"/>
    <path id="Path_3801" data-name="Path 3801" d="M953.766,670.843c-.619.337-1.159.541-1.2.454s.415-.426,1.034-.764.376-.092.424,0S954.385,670.506,953.766,670.843Z" transform="translate(-713.625 -502.121)" fill="#ffd037"/>
    <path id="Path_3802" data-name="Path 3802" d="M905.255,659.91s-1.533,2,.705,5.017,4.083,5.574,3.344,7.461c0,0-3.375-5.616-6.131-5.694S902.231,663.279,905.255,659.91Z" transform="translate(-677.023 -494.582)" fill="#6c63ff"/>
    <path id="Path_3803" data-name="Path 3803" d="M905.24,659.91a2.509,2.509,0,0,0-.315.63c-2.681,3.149-4.108,6.09-1.53,6.162,2.4.07,5.279,4.362,5.97,5.446a2,2,0,0,1-.083.248s-3.375-5.616-6.131-5.694S902.216,663.279,905.24,659.91Z" transform="translate(-677.007 -494.582)" opacity="0.1"/>
    <path id="Path_3804" data-name="Path 3804" d="M903.94,667.889c0,.705.081,1.276.178,1.276s.176-.557.176-1.276-.1-.373-.2-.373S903.94,667.183,903.94,667.889Z" transform="translate(-678.556 -500.008)" fill="#ffd037"/>
    <path id="Path_3805" data-name="Path 3805" d="M899.464,670.843c.619.337,1.157.541,1.2.454s-.415-.426-1.034-.764-.376-.092-.424,0S898.845,670.506,899.464,670.843Z" transform="translate(-675.055 -502.121)" fill="#ffd037"/>
    <path id="Path_3806" data-name="Path 3806" d="M905.69,697.774s4.281-.134,5.574-1.051,6.586-2.015,6.906-.557,6.432,7.327,1.6,7.366-11.229-.753-12.516-1.536S905.69,697.774,905.69,697.774Z" transform="translate(-679.818 -520.222)" fill="#a8a8a8"/>
    <path id="Path_3807" data-name="Path 3807" d="M919.854,709.015c-4.833.039-11.229-.753-12.516-1.536-.981-.6-1.374-2.74-1.5-3.729h-.145s.279,3.453,1.561,4.236,7.684,1.575,12.516,1.536c1.393,0,1.876-.507,1.85-1.24C921.423,708.73,920.89,709.006,919.854,709.015Z" transform="translate(-679.818 -526.204)" opacity="0.2"/>
  </g>
</svg>
