<svg xmlns="http://www.w3.org/2000/svg" width="188.105" height="198.818" viewBox="0 0 188.105 198.818">
  <g id="Group_9918" data-name="Group 9918" transform="translate(-3.49 -2209.424)">
    <path id="Path_3430" data-name="Path 3430" d="M296.694,2477.659v5.071h5.024v5.046h-4.961v5.145H286.611v5.047H291.6v5.167l.042-.042h-5.08v10.157h-5.01v10.2h4.912v5.076h-15.2l.043.043v-5.056h-5.07v-10.2h-5.148v-5.177h-5.111V2503.2h-4.954v10.075h10.1v5.008H245.9v-4.925h-5.167v-5.169h5.02v-4.974H240.77v5.013H235.7v4.977h-5v-10.027h4.991v-5.168l-.045.041h5.128v-5.129l-.04.041,5.082.01v4.951h15.221v-4.91H245.78q.042-2.591.082-5.178l-.041.045h5.073v-5.026h5.048v4.91H271.3v-5.017l-.045.041H281.52v5h10.144V2477.7h5.075Zm-30.443,30.451h15.1v-15.1h-15.1Z" transform="translate(-115.232 -125.333)"/>
    <path id="Path_3431" data-name="Path 3431" d="M301.782,2322.511v5.13H281.439q0-2.563,0-5.126h10.1v-5.11h-5v-4.955h-5.059v10.1H271.384v15.172H276.4V2327.6h5.078l-.05,15.3.043-.042H271.311v5.056h-5.094c0,1.769,0,3.44,0,5.111l.04-.046h-5.037v-10.07h4.907v-5.061H256.045v-5.074h-5.013v10.082h4.9v5H245.908v-4.907h-5.176v-5.175h5.02V2332.8H240.77v5.013H235.7v4.976h-5v-10.027h4.991V2327.6l-.045.041h5.128v-5.128l-.04.041,5.081.01v5.109h15.314v4.934h5v-10c-6.829,0-13.59,0-20.35,0q.043-2.591.082-5.178l-.041.045H250.9v-5.028h5.053v4.917h20.338v-4.965h-15.07v-10.116h10.019v4.892h10.247v-5l-.043.042h5.123l-.04-.045v5.128h5.128l-.041-.041v5.129h5.128l-.041-.041v10.217h5.129Z" transform="translate(-115.232 -43.467)"/>
    <path id="Path_3432" data-name="Path 3432" d="M203.984,2250.094h-5.078v5.029h-5.052v-15.2H188.68l.041.045v-5.014h-5.128v5.014l.041-.045H178.5l.04.045v-15.188h-5.128v15.188l.041-.045h-5.052v10.1H158.2v-5l-.043.042h5.074v-10.145h5.051v-15.274h5.1v-10.1h10.251c0,1.635,0,3.309,0,4.983h-5.02v4.974H183.6v-5.013h5.064v5.058H193.7v5.094h5.128v20.422h5.153l-.041-.045v5.129Z" transform="translate(-78.443 -0.057)"/>
    <path id="Path_3433" data-name="Path 3433" d="M59.708,2374.424v5.066H74.971v15.326l.045-.041H69.887v5.129l.041-.045H64.856v5.047h-5.05V2410H44.441v5.164l.042-.042H39.446v-15.187H34.321v-5.154l-.042.042H44.412v5.04h5.161v5.021h4.974V2399.9H49.535v-5.051H59.646v-10.256H54.628l.042.043v-5.057h-5.09v-5.155l-.045.041H59.753Zm5.212,10.25v4.972h4.913v-4.972Z" transform="translate(-15.615 -77.774)"/>
    <path id="Path_3434" data-name="Path 3434" d="M3.558,2209.424H38.981v35.428H3.558Zm5.074,5.081v25.273H33.906v-25.273Z" transform="translate(-0.034 0)"/>
    <path id="Path_3435" data-name="Path 3435" d="M348.712,2209.509v35.424H313.284v-35.424Zm-30.365,5.038v25.273H343.62v-25.273Z" transform="translate(-157.117 -0.043)"/>
    <path id="Path_3436" data-name="Path 3436" d="M38.929,2554.659H3.5v-35.428H38.929ZM33.888,2524.3H8.616v25.272H33.888Z" transform="translate(-0.005 -146.417)"/>
    <path id="Path_3437" data-name="Path 3437" d="M240.77,2441.347H235.7v4.977h-5V2436.3h4.991v-5.167l-.045.041h5.128v-5.129l-.04.041h5.128l-.045-.041v5.07h15.267v5.062h10.138v-5h10.254l-.041-.045q0,7.65-.007,15.3l.042-.042-15.3.006.045.041v-5.075h-10.14v-5.012h-5.053V2446.4h4.917v5H245.9v-4.914h-5.172v-5.172h5.02v-4.974H240.77Z" transform="translate(-115.232 -102.838)"/>
    <path id="Path_3438" data-name="Path 3438" d="M121.79,2498.3v5.081h15.237v5.061h5.044v5.07H132.03v-4.942H127.01v10.068h4.9v5.01H121.834V2518.7h-5.129v-5.127h5.02V2508.6h-4.982v5.013l-5.125-.047.041.045v-5.129h-5.128l.045.041v-20.249h5.008v4.99h5.163l-.04-.045q.021,2.563.042,5.125h-5.021v4.974h4.982V2498.3l5.125.042Z" transform="translate(-52.259 -130.715)"/>
    <path id="Path_3439" data-name="Path 3439" d="M96.27,2255.262v-15.219H91.134v4.9H86.126v-10.026h4.866V2229.8H86.1v-20.274H91.08v10.035h5.062v5.063H101.2v20.425h5.181l-.04-.045v5.129l.04-.045h-5.04v5.137H96.223Z" transform="translate(-41.897 -0.051)"/>
    <path id="Path_3440" data-name="Path 3440" d="M121.919,2343.454v5.081h15.237v5.061H142.2v5.069H132.159v-4.942h-5.021v10.068h4.9v5.01H121.963v-4.952h-5.129v-5.127h5.02v-4.974h-4.982v5.013H106.785V2343.5h5l-.041-.045v5.014h5.128v-5.014l-.04.041h5.128Z" transform="translate(-52.388 -63.63)"/>
    <path id="Path_3441" data-name="Path 3441" d="M178.759,2467.356v-5.077h5.079v-5.007h10.12v4.914h-4.916v10.171h4.942v-4.919h10.159v4.945H199.18v5.061H183.844v5.181l.045-.041H178.76l.041.041v-5.129h-5.128l.045.041v-5.068H168.7v-10.138h4.936v4.989H178.8v5.02h4.974v-4.982Z" transform="translate(-83.786 -117.665)"/>
    <path id="Path_3442" data-name="Path 3442" d="M173.717,2312.36v-5.068H168.7v-10.138h4.936v4.989H178.8v5.02h4.974v-4.981h-5.013V2297.1h5.079V2292.1h10.12v4.914h-4.916v10.17h4.942v-4.918h10.159v4.944H199.18v5.061H183.844v5.181l.045-.041H178.76l.041.041v-5.129h-5.128Z" transform="translate(-83.786 -39.249)"/>
    <path id="Path_3443" data-name="Path 3443" d="M116.747,2441.347h-5.056v5.038h-5.153l.043.042v-10.134h5.086v-5.163l-.045.041h5.128v-5.129l-.04.041h5.128l-.045-.041v5.081H137.03v5.061h5.044v5.069H132.034v-4.942h-5.021v10.069h4.9v5.009H121.838v-4.952h-5.129v-5.127h5.02v-4.974h-4.982Z" transform="translate(-52.262 -102.838)"/>
    <path id="Path_3444" data-name="Path 3444" d="M178.759,2384.769v-5.077h5.079v-5.008h10.12v4.914h-4.916v10.17h4.942v-4.919h10.159v4.944H199.18v5.062H183.844v5.18l.045-.041H178.76l.041.041v-5.128h-5.128l.045.041v-5.068H168.7v-10.139h4.936v4.989H178.8v5.02h4.974v-4.981Z" transform="translate(-83.786 -78.456)"/>
    <path id="Path_3445" data-name="Path 3445" d="M173.786,2560.17v-5.084h-5.065v-10.158h4.916v4.981h5.174v5.02h4.974v-4.982h-5.013v-5.073h5.073v-5.007h10.12v4.894h-4.9v10.176h4.957v-4.895h10.119v4.9h-4.959v5.154H183.906v5h-5.055v-4.957H173.74Z" transform="translate(-83.799 -156.882)"/>
    <path id="Path_3446" data-name="Path 3446" d="M44.635,2297.091v-5.006H59.9v5h-5.02v4.974h4.981v-5.013q7.679.042,15.359.085l-.045-.039c0,1.638,0,3.273,0,5.014H80.25c0,3.464,0,6.828,0,10.193l.041-.046-10.26.055.041.045v-10.1H64.941v10.1l.041-.045H59.854l.04.045V2307.2H49.647V2297.05H44.59Z" transform="translate(-20.844 -39.324)"/>
    <path id="Path_3447" data-name="Path 3447" d="M142.4,2214.453v5.074h-5.028v5.006h-5.055v-4.866h-5.107v15.058h-5.1V2219.6h-5.034v-5.054h10.049v-5.081h10.14v5.03h5.177Z" transform="translate(-57.608 -0.021)"/>
    <path id="Path_3448" data-name="Path 3448" d="M266.283,2214.453v5.073h-5.028v5.007H256.2v-4.865h-5.107v15.057h-5.1V2219.6h-5.033v-5.054h10.048v-5.081h10.14v5.03h5.177Z" transform="translate(-120.437 -0.021)"/>
    <path id="Path_3449" data-name="Path 3449" d="M328.514,2374.45h10.105v-5.081h-4.908v-5h15.158v5l.045-.041H343.9v5.128h5.014l-.045-.04v5.078h-15.2v5.008H323.543v-4.908h5.014v-5.183Z" transform="translate(-162.32 -73.716)"/>
    <path id="Path_3450" data-name="Path 3450" d="M49.7,2364.068H34.509v-5.024H44.538V2354H64.814v10.063H59.824l.045.041v-5.015H49.653v5.015Z" transform="translate(-15.732 -69.041)"/>
    <path id="Path_3451" data-name="Path 3451" d="M54.766,2487.994v5.012H64.955v-4.922H69.95v15.095H65v-4.94H44.645v-5.16l-.043.042h5.055v-5.085h5.152Z" transform="translate(-20.851 -132.781)"/>
    <path id="Path_3452" data-name="Path 3452" d="M359.466,2550.078H369.59v4.981h-4.906v10.147h4.926v5.068H354.547v-10.044H359.5c0-3.467,0-6.833,0-10.2Z" transform="translate(-178.044 -162.037)"/>
    <path id="Path_3453" data-name="Path 3453" d="M344.01,2297.092v-5.013h20.247V2297h-5.028v10.261l.045-.041h-5.129l.041.041v-5.128h-5.128l.041.041v-5.128H343.97Z" transform="translate(-172.679 -39.398)"/>
    <path id="Path_3454" data-name="Path 3454" d="M23.8,2482.657H18.72v5.015H3.492v-4.942h10.08v-5.1h5.082c0-3.463,0-6.825,0-10.189l-.041.046h5.137V2482.7Z" transform="translate(-0.001 -122.749)"/>
    <path id="Path_3455" data-name="Path 3455" d="M13.624,2363.929H8.565v-5.036H3.49v-5.06H8.457v-10.1H18.585v4.891h-4.96Z" transform="translate(0 -63.895)"/>
    <path id="Path_3456" data-name="Path 3456" d="M359.574,2415.694h-5.045v-10.108h10.039v4.97h5.014v5.11h-4.948v5h-5.06Z" transform="translate(-178.035 -93.504)"/>
    <path id="Path_3457" data-name="Path 3457" d="M23.822,2317.419H18.744v-5.03H3.561v-5.058H18.647V2302.2h5.18l-.045-.041v15.3Z" transform="translate(-0.036 -44.201)"/>
    <path id="Path_3458" data-name="Path 3458" d="M354.293,2446.733h10.165v5.029h5.009v5.059h-4.911v5.131h-5.18l.045.04v-5.165h-5.088v-10.139Z" transform="translate(-177.915 -113.087)"/>
    <path id="Path_3459" data-name="Path 3459" d="M219.833,2348.542H209.669v5.022h-5.054v-5.026h-5.178l.04.045v-5.128l-.045.041,20.4,0-.041-.045v5.128Z" transform="translate(-99.375 -64.002)"/>
    <path id="Path_3460" data-name="Path 3460" d="M281.669,2410.552v5.132h-20.3l.045.041V2410.6l-.041.045h5.068v-5.022h5.091v4.972h10.18Z" transform="translate(-130.79 -93.687)"/>
    <path id="Path_3461" data-name="Path 3461" d="M199.433,2508.67l20.4,0-.041-.045v5.128l.045-.041H209.669v5.022h-5.054v-5.026h-5.178l.04.045v-5.128Z" transform="translate(-99.375 -142.877)"/>
    <path id="Path_3462" data-name="Path 3462" d="M13.641,2441.3H3.561v-5.026H8.567v-10.228l-.043.042h5.06v5.055H18.64v5.037H13.6v5.163Z" transform="translate(-0.036 -103.25)"/>
    <path id="Path_3463" data-name="Path 3463" d="M199.433,2426.082l20.4,0-.041-.045v5.129l.045-.041H209.669v5.021h-5.054v-5.026h-5.178l.04.045v-5.129Z" transform="translate(-99.375 -103.439)"/>
    <path id="Path_3464" data-name="Path 3464" d="M261.175,2281.425v10.208h5.057v5.028H256.213v-4.94H251.1v-5.168l-.041.045h5.128v-5.129l-.041.045,5.075-.048Z" transform="translate(-125.558 -34.319)"/>
    <path id="Path_3465" data-name="Path 3465" d="M137.5,2493.221h5.078v-5.028h5.055v5.024h10.264l-.045-.041v5.129l.041-.045-20.4,0,.045.041v-5.129Z" transform="translate(-67.962 -133.118)"/>
    <path id="Path_3466" data-name="Path 3466" d="M132.266,2281.514l5.075-.048-.046-.041v10.208h5.057v5.028H132.332v-4.94h-5.114v-5.168l-.04.045h5.128v-5.129Z" transform="translate(-62.73 -34.319)"/>
    <path id="Path_3467" data-name="Path 3467" d="M261.394,2575.814h5.068v-5.027H276.6v9.979H261.436v-5Z" transform="translate(-130.8 -172.564)"/>
    <path id="Path_3468" data-name="Path 3468" d="M18.742,2405.368q-5.084.021-10.17.04l.046.041v-5.123H3.561V2395.3H18.7c0,3.381,0,6.744,0,10.108Z" transform="translate(-0.036 -88.76)"/>
    <path id="Path_3469" data-name="Path 3469" d="M137.5,2328.047h5.078v-5.029h5.055v5.024h10.264l-.045-.041v5.129l.041-.045-20.4,0,.045.041V2328Z" transform="translate(-67.962 -54.243)"/>
    <path id="Path_3470" data-name="Path 3470" d="M137.5,2410.634h5.078V2405.6h5.055v5.025h10.264l-.045-.041v5.129l.041-.045-20.4,0,.045.041v-5.129Z" transform="translate(-67.962 -93.68)"/>
    <path id="Path_3471" data-name="Path 3471" d="M137.413,2575.886h5.08v-5.062h5.1v5.044h10.318l-.045-.039c0,1.637,0,3.272,0,4.982H137.452c0-1.633,0-3.3,0-4.972Z" transform="translate(-67.921 -172.583)"/>
    <path id="Path_3472" data-name="Path 3472" d="M282.041,2271.2H287.1v-10.111h5.054v15.058H282.083v-4.99Z" transform="translate(-141.271 -26.205)"/>
    <path id="Path_3473" data-name="Path 3473" d="M96.239,2534.359H91.164v5.028H86.158v-10.071H96.243l-.045-.041v5.128Z" transform="translate(-41.926 -151.511)"/>
    <path id="Path_3474" data-name="Path 3474" d="M59.854,2333.122v5.01H44.631v-5.01l-.041.045h15.3Z" transform="translate(-20.844 -59.171)"/>
    <path id="Path_3475" data-name="Path 3475" d="M302.7,2477.511H292.613v-10.135h5l-.045-.041v5.16h5.088v5.057Z" transform="translate(-146.633 -123.153)"/>
    <path id="Path_3476" data-name="Path 3476" d="M54.9,2457.043H64.987v4.971H54.941V2457Z" transform="translate(-26.072 -118.427)"/>
    <path id="Path_3477" data-name="Path 3477" d="M65.217,2395.056v5.01H55.157V2395.1h10.1Z" transform="translate(-26.204 -88.796)"/>
    <path id="Path_3478" data-name="Path 3478" d="M374.932,2322.848h5.008v10.135h-5.008l.045.041v-10.217Z" transform="translate(-188.382 -54.141)"/>
    <path id="Path_3479" data-name="Path 3479" d="M354.277,2529.307h5.055c0,3.448,0,6.842,0,10.237l.039-.045c-1.633,0-3.265,0-5.05,0v-10.236Z" transform="translate(-177.907 -151.506)"/>
    <path id="Path_3480" data-name="Path 3480" d="M111.619,2539.591v10.225h-5.034l.046.04-.059-10.264-.041.045h5.128Z" transform="translate(-52.259 -156.742)"/>
    <path id="Path_3481" data-name="Path 3481" d="M13.568,2292.09v4.9H3.582v-4.9Z" transform="translate(-0.047 -39.544)"/>
    <path id="Path_3482" data-name="Path 3482" d="M91.063,2570.582v10.094H86.075v-10.052h5.031Z" transform="translate(-41.884 -172.46)"/>
    <path id="Path_3483" data-name="Path 3483" d="M96.187,2467.319v5.009H86.128v-4.967h10.1Z" transform="translate(-41.911 -123.364)"/>
    <path id="Path_3484" data-name="Path 3484" d="M374.932,2374.465h5.006v5.047h-5.006l.045.04v-5.128Z" transform="translate(-188.382 -78.924)"/>
    <path id="Path_3485" data-name="Path 3485" d="M127.223,2410.652v-5h5.043v5.007l.041-.045h-5.128Z" transform="translate(-62.73 -93.864)"/>
    <path id="Path_3486" data-name="Path 3486" d="M251.1,2410.652v-5h5.043v5.007l.041-.045h-5.128Z" transform="translate(-125.558 -93.864)"/>
    <path id="Path_3487" data-name="Path 3487" d="M194.206,2271.182v5.007h-5.047v-5.007l-.041.045h5.128Z" transform="translate(-94.144 -31.321)"/>
    <path id="Path_3488" data-name="Path 3488" d="M307.739,2410.417l-5.18-.037.045.039q.045-2.571.1-5.142l-.039.044H307.7v5.14Z" transform="translate(-151.677 -93.681)"/>
    <path id="Path_3489" data-name="Path 3489" d="M168.5,2214.52v-5.007h4.971v4.963H168.46Z" transform="translate(-83.667 -0.045)"/>
    <path id="Path_3490" data-name="Path 3490" d="M8.558,2420.854H3.542v-5.01H8.607l-.045-.04q-.022,2.547-.048,5.09Z" transform="translate(-0.026 -98.72)"/>
    <path id="Path_3491" data-name="Path 3491" d="M116.846,2415.759h5.137l-.045-.041v5.128l.04-.041H116.85l.041.041v-5.128Z" transform="translate(-57.49 -98.676)"/>
    <path id="Path_3492" data-name="Path 3492" d="M240.776,2420.851v-5.091h5.092l-.045-.041v5.128l.04-.041h-5.128Z" transform="translate(-120.322 -98.676)"/>
    <path id="Path_3493" data-name="Path 3493" d="M312.983,2415.75h5.006v4.97h-4.963v-5.013Z" transform="translate(-156.964 -98.675)"/>
    <path id="Path_3494" data-name="Path 3494" d="M292.384,2214.52v-5.006h4.971v4.963h-5.014Z" transform="translate(-146.495 -0.045)"/>
    <path id="Path_3495" data-name="Path 3495" d="M111.663,2431.125h-5.091v-5.092l-.041.045h5.128l-.041-.041v5.129Z" transform="translate(-52.259 -103.61)"/>
    <path id="Path_3496" data-name="Path 3496" d="M183.923,2431.121h-5.088v-5.088l-.041.045h5.128l-.041-.041v5.129Z" transform="translate(-88.908 -103.61)"/>
    <path id="Path_3497" data-name="Path 3497" d="M333.687,2431.3V2426.3h5.043v5l.045-.041h-5.128Z" transform="translate(-167.443 -103.742)"/>
    <path id="Path_3498" data-name="Path 3498" d="M194.206,2436.356v5.006h-5.047v-5.007l-.041.045h5.128Z" transform="translate(-94.144 -108.552)"/>
    <path id="Path_3499" data-name="Path 3499" d="M127.218,2276.452v-5.006h5.047v5.007l.041-.045h-5.128Z" transform="translate(-62.73 -31.455)"/>
    <path id="Path_3500" data-name="Path 3500" d="M152.9,2276.4l-5.194-.046.045.039c0-1.628,0-3.255,0-4.969h5.108v5.019Z" transform="translate(-73.142 -31.444)"/>
    <path id="Path_3501" data-name="Path 3501" d="M343.961,2436.406h5.092v5.092l.041-.045h-5.088v-5.088Z" transform="translate(-172.675 -108.552)"/>
    <path id="Path_3502" data-name="Path 3502" d="M214.853,2271.182v5.007h-5.047v-5.007l-.041.045h5.128Z" transform="translate(-104.615 -31.321)"/>
    <path id="Path_3503" data-name="Path 3503" d="M23.928,2457.043h5.055c0,1.743,0,3.445,0,5.149l.039-.044h-5.05c0-1.812,0-3.48,0-5.148Z" transform="translate(-10.365 -118.421)"/>
    <path id="Path_3504" data-name="Path 3504" d="M251.1,2276.452v-5.006h5.047v5.007l.041-.045h-5.128Z" transform="translate(-125.558 -31.455)"/>
    <path id="Path_3505" data-name="Path 3505" d="M3.491,2472.492V2467.6H8.4v4.887Z" transform="translate(-0.001 -123.505)"/>
    <path id="Path_3506" data-name="Path 3506" d="M276.782,2276.4q-2.6-.022-5.194-.046l.045.039c0-1.628,0-3.255,0-4.969h5.108v5.019Z" transform="translate(-135.97 -31.444)"/>
    <path id="Path_3507" data-name="Path 3507" d="M65.269,2482.93v-5.006H70.24v4.963H65.226Z" transform="translate(-31.31 -128.436)"/>
    <path id="Path_3508" data-name="Path 3508" d="M328.593,2297.052h-5.006v-4.972h4.963v5.014Z" transform="translate(-162.342 -39.538)"/>
    <path id="Path_3509" data-name="Path 3509" d="M127.218,2493.244v-5.006h5.047v5.006l.041-.045h-5.128Z" transform="translate(-62.73 -133.37)"/>
    <path id="Path_3510" data-name="Path 3510" d="M251.1,2493.239v-5h5.043v5.007l.041-.045h-5.128Z" transform="translate(-125.558 -133.369)"/>
    <path id="Path_3511" data-name="Path 3511" d="M240.776,2503.438v-5.092h5.092l-.045-.041v5.128l.04-.041h-5.128Z" transform="translate(-120.322 -138.18)"/>
    <path id="Path_3512" data-name="Path 3512" d="M183.923,2513.708h-5.088v-5.088l-.041.045h5.128l-.041-.041v5.129Z" transform="translate(-88.908 -143.114)"/>
    <path id="Path_3513" data-name="Path 3513" d="M127.223,2328.065v-5h5.043v5.007l.041-.045h-5.128Z" transform="translate(-62.73 -54.358)"/>
    <path id="Path_3514" data-name="Path 3514" d="M251.1,2328.065v-5h5.043v5.007l.041-.045h-5.128Z" transform="translate(-125.558 -54.358)"/>
    <path id="Path_3515" data-name="Path 3515" d="M90.972,2333.122v5.006H85.925v-5.006l-.041.045h5.128Z" transform="translate(-41.787 -59.171)"/>
    <path id="Path_3516" data-name="Path 3516" d="M116.895,2338.2q.021-2.595.042-5.19l-.039.045q2.546.025,5.089.054l-.045-.04v5.128l.04-.041h-5.128Z" transform="translate(-57.494 -59.115)"/>
    <path id="Path_3517" data-name="Path 3517" d="M194.206,2518.944v5.006h-5.047v-5.006l-.041.045h5.128Z" transform="translate(-94.144 -146.271)"/>
    <path id="Path_3518" data-name="Path 3518" d="M240.776,2338.263v-5.092h5.092l-.045-.041v5.129l.04-.041h-5.128Z" transform="translate(-120.322 -59.172)"/>
    <path id="Path_3519" data-name="Path 3519" d="M183.923,2348.534h-5.088v-5.088l-.041.045h5.128l-.041-.041v5.129Z" transform="translate(-88.908 -64.106)"/>
    <path id="Path_3520" data-name="Path 3520" d="M96.239,2565.427v-5.054h5.149l-.045-.039c0,1.631,0,3.26,0,5.05H96.2Z" transform="translate(-47.018 -167.263)"/>
    <path id="Path_3521" data-name="Path 3521" d="M194.206,2353.769v5.006h-5.047v-5.006l-.041.045h5.128Z" transform="translate(-94.144 -69.047)"/>
    <path id="Path_3522" data-name="Path 3522" d="M127.227,2575.813v-5h5c0,1.713,0,3.39,0,5.069l.039-.045-5.081-.062Z" transform="translate(-62.734 -172.575)"/>
    <path id="Path_3523" data-name="Path 3523" d="M256.2,2575.789l-5.132-.011.042.042v-5h5.048v5.01Z" transform="translate(-125.562 -172.581)"/>
    <path id="Path_3524" data-name="Path 3524" d="M122.069,2580.877v5.006H117.1v-4.963h5.014Z" transform="translate(-57.618 -177.681)"/>
    <path id="Path_3525" data-name="Path 3525" d="M245.95,2580.877v5.006h-4.971v-4.963h5.014Z" transform="translate(-120.446 -177.681)"/>
    <path id="Path_3526" data-name="Path 3526" d="M307.891,2580.876v5.006H302.92v-4.963h5.013Z" transform="translate(-151.86 -177.681)"/>
    <path id="Path_3527" data-name="Path 3527" d="M333.631,2467.366h5.006v4.972h-4.963c0-1.679,0-3.347,0-5.014Z" transform="translate(-167.436 -123.365)"/>
    <path id="Path_3528" data-name="Path 3528" d="M318.156,2524.109H313.24v-4.941h4.916Z" transform="translate(-157.094 -146.385)"/>
    <path id="Path_3529" data-name="Path 3529" d="M24.115,2245.229v-15.084h15.11v15.084Z" transform="translate(-10.46 -10.508)"/>
    <path id="Path_3530" data-name="Path 3530" d="M333.9,2230.08h15.08v15.076H333.9Z" transform="translate(-167.572 -10.476)"/>
    <path id="Path_3531" data-name="Path 3531" d="M24.2,2539.782h15.08v15.077H24.2Z" transform="translate(-10.501 -156.839)"/>
  </g>
</svg>
