<svg xmlns="http://www.w3.org/2000/svg" width="223.526" height="240.177" viewBox="0 0 223.526 240.177">
  <g id="Group_9972" data-name="Group 9972" transform="translate(-75.487 -202)">
    <rect id="Rectangle_1551" data-name="Rectangle 1551" width="178.955" height="0.336" transform="translate(120.058 441.84)" fill="#3c354c"/>
    <path id="Path_3374" data-name="Path 3374" d="M555.692,407.388a6.32,6.32,0,0,0-1.187-3.868l-.535,2.109V403.1a1.285,1.285,0,0,0-.784-.185c-1.315.121-2.331,2.331-2.271,4.935s1.177,4.619,2.493,4.5S555.752,410,555.692,407.388Z" transform="translate(-380.175 -96.659)" fill="#57b894"/>
    <path id="Path_3375" data-name="Path 3375" d="M555.4,413.742c-.552.121-1.086.461-1.638.528a1.426,1.426,0,0,1-1.5-1.046c-.188-.457-.283-1.036-.441-1.537a3.125,3.125,0,0,0-.6-1.117,8.7,8.7,0,0,0-.256,2.355c.061,2.6,1.177,4.615,2.493,4.494,1.1-.1,1.995-1.682,2.217-3.72A2.361,2.361,0,0,0,555.4,413.742Z" transform="translate(-380.206 -101.745)" opacity="0.1"/>
    <path id="Path_3376" data-name="Path 3376" d="M879.63,360.625a6.347,6.347,0,0,0-3.525-1.985l1.053,1.884-1.732-1.847a1.3,1.3,0,0,0-.7.4c-.871,1.009-.084,3.3,1.756,5.143s4.037,2.536,4.9,1.541S881.46,362.461,879.63,360.625Z" transform="translate(-594.83 -67.284)" fill="#57b894"/>
    <path id="Path_3377" data-name="Path 3377" d="M881.561,367.485c-.316.464-.471,1.08-.824,1.507a1.433,1.433,0,0,1-1.81.283c-.454-.2-.922-.558-1.379-.811a3.122,3.122,0,0,0-1.208-.4,8.762,8.762,0,0,0,1.44,1.887c1.84,1.847,4.037,2.536,4.9,1.541.727-.834.289-2.587-.955-4.222A1.758,1.758,0,0,0,881.561,367.485Z" transform="translate(-596.134 -73.01)" opacity="0.1"/>
    <path id="Path_3378" data-name="Path 3378" d="M597.331,355.3l-5.792-3.364s-14-1.931-12.069-8.689,11.588,0,11.588,0l6.273,4.316Z" transform="translate(-399.004 -55.074)" fill="#ffc1c7"/>
    <path id="Path_3379" data-name="Path 3379" d="M597.331,355.3l-5.792-3.364s-14-1.931-12.069-8.689,11.588,0,11.588,0l6.273,4.316Z" transform="translate(-399.004 -55.074)" opacity="0.1"/>
    <path id="Path_3380" data-name="Path 3380" d="M655.145,252.637s-14,10.139-14,6.758c0-2.018-2.442-8.251-4.393-12.89-1.292-3.075-2.355-5.453-2.355-5.453l14.464-3.862a16.89,16.89,0,0,0,.161,7.064A13.617,13.617,0,0,0,655.145,252.637Z" transform="translate(-435.578 13.313)" fill="#ffc1c7"/>
    <path id="Path_3381" data-name="Path 3381" d="M562.921,538.94s-11.1,24.62-7.242,33.79c0,0-12.066,36.689-15.928,38.136s9.654,3.862,9.654,3.862,15.921-21.239,16.88-38.136,18.35-34.267,18.35-34.267Z" transform="translate(-372.307 -186.934)" fill="#ffc1c7"/>
    <path id="Path_3382" data-name="Path 3382" d="M686,556.284s6.274,20.277,14.481,26.07c0,0,16.9,28,14.464,36.686,0,0,9.654,1.45,10.139,0,0,0-4.346-30.412-14.966-42.478S704.353,550,704.353,550Z" transform="translate(-469.821 -194.273)" fill="#ffc1c7"/>
    <path id="Path_3383" data-name="Path 3383" d="M497.575,749.341s-5.792-4.827-10.135-.965-12.069,2.9-17.862.965-5.308,2.9,8.208,9.17,21.239,7.737,21.239,7.737,1.931-7.737,1.931-9.654a24.838,24.838,0,0,1,1.2-5.54Z" transform="translate(-323.868 -324.926)" fill="#f2f2f2"/>
    <path id="Path_3384" data-name="Path 3384" d="M741.55,750.558s-5.792-3.364-6.758,2.9-14.966,10.139-14.966,10.139-6.758,6.274,14,4.333,19.308-5.793,19.308-5.793l-6.573-12.493Z" transform="translate(-491.572 -326.758)" fill="#f2f2f2"/>
    <path id="Path_3385" data-name="Path 3385" d="M612.2,465.871s-14.966,21.239-9.173,23.651,5.311-3.862,11.1,2.9,20.758,3.364,22.689,1.931,6.758-7.737,10.62-7.239-6.284-24.62-6.284-24.62Z" transform="translate(-413.877 -136.2)" fill="#3f3d56"/>
    <path id="Path_3386" data-name="Path 3386" d="M647.721,242.172c-2.065,1.927-3.525,5.2-6.573,5.2a11.507,11.507,0,0,1-4.393-.865c-1.292-3.075-2.355-5.453-2.355-5.453l14.464-3.862C648.393,239.955,647.226,240.207,647.721,242.172Z" transform="translate(-435.578 13.313)" opacity="0.1"/>
    <circle id="Ellipse_144" data-name="Ellipse 144" cx="11.585" cy="11.585" r="11.585" transform="translate(193.984 236.503)" fill="#ffc1c7"/>
    <path id="Path_3387" data-name="Path 3387" d="M640.9,278.81s-5.005,5.079-7.33,5.436-11.02,15.319-8.6,27.388-2.9,37.17-.481,38.617,41.039-5.308,41.039-5.308Z" transform="translate(-428.571 -14.307)" fill="#f2f2f2"/>
    <path id="Path_3388" data-name="Path 3388" d="M651.862,271.205s-8.689-2.9-11.585,12.55-6.758,2.415-6.758,22.2-1.45,27.035.965,43.928,4.343,16.9,1.446,22.689,30.893,4.346,39.1-6.758-2.415-52.617-6.758-58.894-4.346-25.582-7.737-30.409a12.954,12.954,0,0,0-8.675-5.308Z" transform="translate(-434.707 -9.117)" fill="#6c63ff"/>
    <path id="Path_3389" data-name="Path 3389" d="M652.772,369.1l-4.275-5.348-13.647-65.13,9.173-17.122a10.159,10.159,0,0,1,7.8-5.3,9.964,9.964,0,0,1,8.746,3.364c13.277,15.117,19.941,61.992,20.217,63.98l.027.188-1.346,3.5L672.4,363.07Zm-2.93-5.981,3.445,4.306,18.044-5.564,6.781-15.2,1.208-3.118c-.478-3.29-7.263-48.718-19.847-63.041a8.692,8.692,0,0,0-14.178,1.662l-8.921,16.661Z" transform="translate(-435.877 -12.527)" fill="#2f2e41"/>
    <path id="Path_3390" data-name="Path 3390" d="M576.118,334.145h0l-12.544-11.158a.757.757,0,0,1-.124-.982l.155-.235h0a.673.673,0,0,1,1.033-.121l11.437,10.6a1.312,1.312,0,0,1,.044,1.9Z" transform="translate(-388.411 -42.611)" fill="#6c63ff"/>
    <path id="Path_3391" data-name="Path 3391" d="M576.118,334.755h0L563.575,323.6a.757.757,0,0,1-.124-.982l.155-.235,12.483,11.195a.811.811,0,0,1,.03,1.181Z" transform="translate(-388.411 -43.221)" fill="#192534"/>
    <path id="Path_3392" data-name="Path 3392" d="M650.089,344.062s-17.862-1.446-21.239-7.737-12.069-2.9-9.654,0,1.931,9.654,8.689,10.139,23.651,3.875,23.651,3.875Z" transform="translate(-425.211 -50.116)" fill="#ffc1c7"/>
    <path id="Path_3393" data-name="Path 3393" d="M708.272,476.84s-12.069.965-14.966,13.516-15.928,6.277-15.928,6.277-1.45,32.824,19.789,24.62,26.07-23.654,26.07-25.585S708.756,482.151,708.272,476.84Z" transform="translate(-464.086 -145.723)" fill="#2f2e41"/>
    <path id="Path_3394" data-name="Path 3394" d="M678.345,499.045s13.021,6.277,15.928-6.273c2.758-11.955,13.829-13.4,14.878-13.509a6.462,6.462,0,0,1-.878-2.422s-12.069.965-14.966,13.516-15.928,6.277-15.928,6.277-.471,10.714,3.085,18.37C677.965,507.693,678.345,499.045,678.345,499.045Z" transform="translate(-464.087 -145.723)" opacity="0.1"/>
    <path id="Path_3395" data-name="Path 3395" d="M786.1,501.64a4.037,4.037,0,0,0,.1-.727c0-1.652-10.6-10.374-13.963-16.183C772.953,489.217,782.8,497.778,786.1,501.64Z" transform="translate(-527.052 -150.959)" opacity="0.1"/>
    <path id="Path_3396" data-name="Path 3396" d="M608.078,164.168c-.673,2.112,1.5,4.249,3.7,4.471s4.326-.831,6.337-1.773,4.259-1.823,6.408-1.251c2.355.622,3.922,2.812,4.968,5a24.931,24.931,0,0,1,1.981,6.015c.431,2.227.629,4.676,2.16,6.358s4.07,2.136,6.391,2.126,4.669-.336,6.906.235c4.44,1.157,7.188,5.581,8.773,9.876s2.536,8.975,5.406,12.55c2.392,2.987,5.88,4.881,9.375,6.452A17.763,17.763,0,0,0,676,215.934a6.9,6.9,0,0,0,5.382-1.584c1.571-1.473,2.075-3.72,2.5-5.826.622-3.054,1.245-6.193.73-9.271-.673-4.037-3.266-7.585-3.862-11.639-.579-3.942.784-7.922.646-11.9a16.361,16.361,0,0,0-11.575-14.744c-2.355-.673-4.827-.794-7.088-1.682-2.947-1.174-5.217-3.535-7.626-5.6a46.383,46.383,0,0,0-20.018-10c-4.958-1.1-10.825-1.117-14.33,2.546-1.423,1.49-2.355,3.505-4.171,4.5a18.556,18.556,0,0,1-3,1.046,10.082,10.082,0,0,0-5.877,12.729" transform="translate(-417.464 75.792)" fill="#fff"/>
    <path id="Path_3397" data-name="Path 3397" d="M679,232.2a17.763,17.763,0,0,1-5.513-1.709c-3.5-1.571-6.98-3.465-9.375-6.452-2.869-3.576-3.825-8.251-5.406-12.55s-4.333-8.719-8.773-9.876c-2.237-.585-4.595-.246-6.906-.235s-4.827-.417-6.391-2.126-1.729-4.131-2.16-6.358a24.89,24.89,0,0,0-1.981-6.015c-1.046-2.186-2.62-4.373-4.968-5-2.149-.572-4.4.309-6.408,1.251s-4.124,1.995-6.337,1.773-4.373-2.355-3.7-4.471l-.336.336a9.318,9.318,0,0,1-.229-5.944,10.115,10.115,0,0,0-2.671,10.764l.336-.336c-.673,2.112,1.5,4.249,3.7,4.471s4.326-.831,6.337-1.773,4.259-1.823,6.408-1.251c2.355.622,3.922,2.812,4.968,5a24.931,24.931,0,0,1,1.981,6.015c.431,2.227.629,4.676,2.16,6.358s4.07,2.136,6.391,2.126,4.669-.336,6.906.235c4.44,1.157,7.188,5.581,8.773,9.876s2.536,8.975,5.406,12.55c2.392,2.987,5.88,4.881,9.375,6.452a17.764,17.764,0,0,0,5.513,1.709,6.9,6.9,0,0,0,5.382-1.584,8.416,8.416,0,0,0,2.16-4.265A7.36,7.36,0,0,1,679,232.2Z" transform="translate(-417.557 54.696)" opacity="0.1"/>
    <path id="Path_3398" data-name="Path 3398" d="M674.193,284.12s-1.45,10.62,3.862,13.035,9.17,10.606,9.17,10.606l-4.343.965s-1.45,6.758,2.412,8.689,14.481,0,14.481,0,4.83-2.415.965-10.139-14.959-24.6-14.959-24.6S679.986,276.4,674.193,284.12Z" transform="translate(-461.866 -15.274)" fill="#6c63ff"/>
    <ellipse id="Ellipse_145" data-name="Ellipse 145" cx="2.324" cy="3.485" rx="2.324" ry="3.485" transform="translate(211.416 244.768)" fill="#ffc1c7"/>
    <circle id="Ellipse_146" data-name="Ellipse 146" cx="1.161" cy="1.161" r="1.161" transform="translate(212.58 247.479)" fill="#f2f2f2"/>
    <ellipse id="Ellipse_147" data-name="Ellipse 147" cx="1.356" cy="0.582" rx="1.356" ry="0.582" transform="translate(211.642 251.332) rotate(-63.3)" fill="#f2f2f2"/>
    <path id="Path_3399" data-name="Path 3399" d="M811.692,120.388a6.359,6.359,0,0,0-1.187-3.868l-.535,2.109V116.1a1.285,1.285,0,0,0-.784-.185c-1.315.121-2.331,2.331-2.271,4.935s1.177,4.619,2.493,4.5S811.752,123,811.692,120.388Z" transform="translate(-550.061 93.799)" fill="#57b894"/>
    <path id="Path_3400" data-name="Path 3400" d="M811.4,126.742c-.552.121-1.086.461-1.638.528a1.426,1.426,0,0,1-1.5-1.046c-.188-.457-.283-1.036-.441-1.537a3.124,3.124,0,0,0-.6-1.117,8.7,8.7,0,0,0-.256,2.355c.061,2.6,1.177,4.615,2.493,4.494,1.1-.1,1.995-1.682,2.217-3.72A2.355,2.355,0,0,0,811.4,126.742Z" transform="translate(-550.092 88.713)" opacity="0.1"/>
    <path id="Path_3401" data-name="Path 3401" d="M882.641,527.382a6.315,6.315,0,0,0,3.115-2.583l-2.136.309,2.355-.955a1.3,1.3,0,0,0-.128-.794c-.616-1.167-3.048-1.258-5.429-.2s-3.815,2.856-3.2,4.037S880.256,528.438,882.641,527.382Z" transform="translate(-596.623 -175.971)" fill="#57b894"/>
    <path id="Path_3402" data-name="Path 3402" d="M881.336,527.679a15.4,15.4,0,0,1-1.113-1.309,1.427,1.427,0,0,1,.387-1.79c.336-.336.848-.673,1.248-1.009a3.075,3.075,0,0,0,.8-.982,8.781,8.781,0,0,0-2.274.673c-2.382,1.056-3.815,2.856-3.2,4.037.518.979,2.314,1.2,4.286.622A2.389,2.389,0,0,0,881.336,527.679Z" transform="translate(-596.603 -176.084)" opacity="0.1"/>
    <path id="Path_3403" data-name="Path 3403" d="M497.641,573.382a6.315,6.315,0,0,0,3.115-2.583l-2.136.309,2.355-.955a1.3,1.3,0,0,0-.128-.794c-.616-1.167-3.048-1.258-5.429-.2s-3.815,2.856-3.2,4.037S495.256,574.438,497.641,573.382Z" transform="translate(-341.13 -206.498)" fill="#57b894"/>
    <path id="Path_3404" data-name="Path 3404" d="M496.336,573.679a15.385,15.385,0,0,1-1.113-1.309,1.427,1.427,0,0,1,.387-1.79c.336-.336.848-.673,1.248-1.009a3.075,3.075,0,0,0,.8-.982,8.784,8.784,0,0,0-2.274.673c-2.382,1.056-3.815,2.856-3.2,4.037.518.979,2.314,1.2,4.286.622a2.394,2.394,0,0,0-.138-.242Z" transform="translate(-341.11 -206.61)" opacity="0.1"/>
    <rect id="Rectangle_1552" data-name="Rectangle 1552" width="42" height="4" transform="translate(97 215.088)" fill="#fff"/>
    <path id="Path_3405" data-name="Path 3405" d="M351,158.542l-8.672-15.093H267.75V94h98.224v49.448H351Zm-82.918-15.43h74.441l8.14,14.172V143.112h14.969V94.336H268.086Z" transform="translate(-192.263 108.336)" fill="#fff" opacity="0.1"/>
    <path id="Path_3406" data-name="Path 3406" d="M351,157.542l-8.672-15.093H267.75V93h98.224v49.448H351Zm-82.918-15.43h74.441l8.14,14.172V142.112h14.969V93.336H268.086Z" transform="translate(-192.263 109)" fill="#fff"/>
    <circle id="Ellipse_148" data-name="Ellipse 148" cx="5.55" cy="5.55" r="5.55" transform="translate(81.037 211.251)" fill="#fff"/>
    <circle id="Ellipse_149" data-name="Ellipse 149" cx="2.018" cy="2.018" r="2.018" transform="translate(154.032 237.825)" fill="#fff"/>
    <circle id="Ellipse_150" data-name="Ellipse 150" cx="2.018" cy="2.018" r="2.018" transform="translate(159.078 237.825)" fill="#fff"/>
    <circle id="Ellipse_151" data-name="Ellipse 151" cx="2.018" cy="2.018" r="2.018" transform="translate(164.124 237.825)" fill="#fff"/>
  </g>
</svg>
