<svg xmlns="http://www.w3.org/2000/svg" xmlns:xlink="http://www.w3.org/1999/xlink" width="331.308" height="243.057" viewBox="0 0 331.308 243.057">
  <defs>
    <linearGradient id="linear-gradient" x1="0.5" y1="1" x2="0.5" gradientUnits="objectBoundingBox">
      <stop offset="0" stop-color="gray" stop-opacity="0.251"/>
      <stop offset="0.54" stop-color="gray" stop-opacity="0.122"/>
      <stop offset="1" stop-color="gray" stop-opacity="0.102"/>
    </linearGradient>
    <linearGradient id="linear-gradient-2" x1="9.926" x2="9.926" y2="0" xlink:href="#linear-gradient"/>
  </defs>
  <g id="Group_9998" data-name="Group 9998" transform="translate(0 0.001)">
    <path id="Path_3553" data-name="Path 3553" d="M188.876,281.209c-4.357,1.316-8.436,4.5-9.524,8.926-1.245,5.082,1.626,10.2,2.041,15.423,1.34,17.1-22.981,29.158-19.511,45.951,1.378,6.677,6.946,11.589,12.433,15.647,8.79,6.48,18.542,12.2,29.342,13.82,16.392,2.456,33.519-4.762,49.451-.2,12.851,3.68,22.685,14.467,35.447,18.447,9.715,3.031,20.181,1.837,30.274.609,5.442-.66,11.143-1.422,15.535-4.687,8.164-6.079,8.677-18.083,14.144-26.685,8.443-13.266,26.954-15.872,42.475-13.293s30.593,8.926,46.319,8.409a21.143,21.143,0,0,0,9.735-2.218c3.565-2,5.973-5.534,8.1-9.028a146.078,146.078,0,0,0,21.181-72.585c.092-4.4-.065-9-2.136-12.888-2.619-4.919-7.854-7.861-13.065-9.841-12.514-4.762-26.338-5.541-38.6-10.912-11.827-5.181-21.406-14.266-31.706-22.052a168.883,168.883,0,0,0-69.558-30.978c-5.915-1.143-12.055-1.959-17.933-.639-6.772,1.52-12.609,5.742-17.858,10.286-13.963,12.089-25.154,27-38.022,40.254a216.473,216.473,0,0,1-28.886,24.909c-4.762,3.432-9.824,7.507-15.13,10.045C198.567,280.246,194.013,279.661,188.876,281.209Z" transform="translate(-145.031 -158.074)" fill="#fff"/>
    <path id="Path_3554" data-name="Path 3554" d="M385.824,138.88s-13.147,17.46-3.742,37.811-16.392,53.05-16.392,53.05" transform="translate(-279.737 -123.186)" fill="none" stroke="#535461" stroke-miterlimit="10" stroke-width="2"/>
    <path id="Path_3555" data-name="Path 3555" d="M425.72,101.9c-1.044,4.493-6.041,7.17-6.041,7.17s-3.3-4.609-2.255-9.1,3.742-7.7,6.041-7.17S426.764,97.406,425.72,101.9Z" transform="translate(-313.738 -92.74)" fill="#8ed16f"/>
    <ellipse id="Ellipse_360" data-name="Ellipse 360" cx="2.623" cy="0.983" rx="2.623" ry="0.983" transform="translate(106.116 10.485) rotate(-76.9)" fill="#8ed16f"/>
    <ellipse id="Ellipse_361" data-name="Ellipse 361" cx="2.623" cy="0.983" rx="2.623" ry="0.983" transform="translate(106.116 10.485) rotate(-76.9)" opacity="0.3"/>
    <path id="Path_3556" data-name="Path 3556" d="M417.483,161.08c-4.34,1.565-9.3-1.177-9.3-1.177s2.075-5.276,6.419-6.837,8.5-1.02,9.3,1.177S421.824,159.515,417.483,161.08Z" transform="translate(-307.774 -131.956)" fill="#8ed16f"/>
    <ellipse id="Ellipse_362" data-name="Ellipse 362" cx="2.623" cy="0.983" rx="2.623" ry="0.983" transform="matrix(0.94, -0.34, 0.34, 0.94, 105.357, 24.703)" fill="#8ed16f"/>
    <ellipse id="Ellipse_363" data-name="Ellipse 363" cx="2.623" cy="0.983" rx="2.623" ry="0.983" transform="matrix(0.94, -0.34, 0.34, 0.94, 105.357, 24.703)" opacity="0.3"/>
    <path id="Path_3557" data-name="Path 3557" d="M414.513,207.85c-4.34,1.565-9.3-1.177-9.3-1.177s2.075-5.276,6.419-6.837,8.5-1.02,9.3,1.177S418.854,206.289,414.513,207.85Z" transform="translate(-305.814 -162.817)" fill="#8ed16f"/>
    <ellipse id="Ellipse_364" data-name="Ellipse 364" cx="2.623" cy="0.983" rx="2.623" ry="0.983" transform="translate(104.397 40.847) rotate(-19.8)" fill="#8ed16f"/>
    <ellipse id="Ellipse_365" data-name="Ellipse 365" cx="2.623" cy="0.983" rx="2.623" ry="0.983" transform="translate(104.397 40.847) rotate(-19.8)" opacity="0.3"/>
    <path id="Path_3558" data-name="Path 3558" d="M429.423,262.72c-4.34,1.565-9.3-1.177-9.3-1.177s2.075-5.276,6.419-6.837,8.5-1.02,9.3,1.177S433.764,261.165,429.423,262.72Z" transform="translate(-315.652 -199.023)" fill="#8ed16f"/>
    <ellipse id="Ellipse_366" data-name="Ellipse 366" cx="2.623" cy="0.983" rx="2.623" ry="0.983" transform="translate(109.47 59.519) rotate(-19.8)" fill="#8ed16f"/>
    <ellipse id="Ellipse_367" data-name="Ellipse 367" cx="2.623" cy="0.983" rx="2.623" ry="0.983" transform="translate(109.47 59.519) rotate(-19.8)" opacity="0.3"/>
    <path id="Path_3559" data-name="Path 3559" d="M419.723,312.9c-4.34,1.565-9.3-1.177-9.3-1.177s2.075-5.276,6.419-6.837,8.5-1.021,9.3,1.177S424.067,311.339,419.723,312.9Z" transform="translate(-309.252 -232.134)" fill="#8ed16f"/>
    <ellipse id="Ellipse_368" data-name="Ellipse 368" cx="2.623" cy="0.983" rx="2.623" ry="0.983" transform="matrix(0.94, -0.34, 0.34, 0.94, 106.179, 76.303)" fill="#8ed16f"/>
    <ellipse id="Ellipse_369" data-name="Ellipse 369" cx="2.623" cy="0.983" rx="2.623" ry="0.983" transform="matrix(0.94, -0.34, 0.34, 0.94, 106.179, 76.303)" opacity="0.3"/>
    <path id="Path_3560" data-name="Path 3560" d="M371.131,172.921c3.2,3.32,8.868,3.061,8.868,3.061s.466-5.65-2.738-8.97-7.174-4.687-8.868-3.061S367.927,169.6,371.131,172.921Z" transform="translate(-281.018 -139.277)" fill="#8ed16f"/>
    <ellipse id="Ellipse_370" data-name="Ellipse 370" cx="0.983" cy="2.623" rx="0.983" ry="2.623" transform="matrix(0.719, -0.695, 0.695, 0.719, 90.771, 29.375)" fill="#8ed16f"/>
    <ellipse id="Ellipse_371" data-name="Ellipse 371" cx="0.983" cy="2.623" rx="0.983" ry="2.623" transform="matrix(0.719, -0.695, 0.695, 0.719, 90.771, 29.375)" opacity="0.3"/>
    <path id="Path_3561" data-name="Path 3561" d="M365.721,327.911c3.2,3.32,8.868,3.061,8.868,3.061s.466-5.65-2.738-8.97-7.174-4.687-8.868-3.061S362.517,324.591,365.721,327.911Z" transform="translate(-277.448 -241.547)" fill="#8ed16f"/>
    <ellipse id="Ellipse_372" data-name="Ellipse 372" cx="0.983" cy="2.623" rx="0.983" ry="2.623" transform="matrix(0.719, -0.695, 0.695, 0.719, 88.926, 82.1)" fill="#8ed16f"/>
    <ellipse id="Ellipse_373" data-name="Ellipse 373" cx="0.983" cy="2.623" rx="0.983" ry="2.623" transform="matrix(0.719, -0.695, 0.695, 0.719, 88.926, 82.1)" opacity="0.3"/>
    <path id="Path_3562" data-name="Path 3562" d="M373.725,228.678c4.129,2.061,9.378-.082,9.378-.082s-1.446-5.48-5.572-7.541-8.327-2.041-9.378.082S369.6,226.617,373.725,228.678Z" transform="translate(-281.204 -176.4)" fill="#8ed16f"/>
    <ellipse id="Ellipse_374" data-name="Ellipse 374" cx="0.983" cy="2.623" rx="0.983" ry="2.623" transform="translate(91.706 48.024) rotate(-63.48)" fill="#8ed16f"/>
    <ellipse id="Ellipse_375" data-name="Ellipse 375" cx="0.983" cy="2.623" rx="0.983" ry="2.623" transform="translate(91.706 48.024) rotate(-63.48)" opacity="0.3"/>
    <path id="Path_3563" data-name="Path 3563" d="M378.817,283.248c4.129,2.061,9.378-.082,9.378-.082s-1.446-5.48-5.572-7.541-8.327-2.041-9.378.082S374.7,281.207,378.817,283.248Z" transform="translate(-284.564 -212.408)" fill="#8ed16f"/>
    <ellipse id="Ellipse_376" data-name="Ellipse 376" cx="0.983" cy="2.623" rx="0.983" ry="2.623" transform="translate(93.439 66.588) rotate(-63.48)" fill="#8ed16f"/>
    <ellipse id="Ellipse_377" data-name="Ellipse 377" cx="0.983" cy="2.623" rx="0.983" ry="2.623" transform="translate(93.439 66.588) rotate(-63.48)" opacity="0.3"/>
    <path id="Path_3564" data-name="Path 3564" d="M189.749,249.21s24.011,24.011,10.456,59.642,23.236,94.882,23.236,94.882-.395-.058-1.126-.187c-49.322-8.7-73.813-65.109-46.4-107.009C186.1,280.96,194.484,262.687,189.749,249.21Z" transform="translate(-146.981 -195.987)" fill="#8ed16f"/>
    <path id="Path_3565" data-name="Path 3565" d="M113,534.138s27.4-4.364,29.9,20.191,52.686,27.961,52.686,27.961-.34.224-.942.626c-41.441,27.212-81.055,17.327-75.085-18.794C121.779,550.69,121.6,537.2,113,534.138Z" transform="translate(-113 -383.797)" fill="#8ed16f"/>
    <g id="Group_9996" data-name="Group 9996" transform="translate(0 150.04)" opacity="0.3">
      <path id="Path_3566" data-name="Path 3566" d="M113,534.138s27.4-4.364,29.9,20.191,52.686,27.961,52.686,27.961-.34.224-.942.626c-41.441,27.212-81.055,17.327-75.085-18.794C121.779,550.69,121.6,537.2,113,534.138Z" transform="translate(-113 -533.838)" fill="#fff"/>
    </g>
    <ellipse id="Ellipse_378" data-name="Ellipse 378" cx="7.534" cy="19.657" rx="7.534" ry="19.657" transform="translate(28.297 110.723)" fill="#8ed16f"/>
    <ellipse id="Ellipse_379" data-name="Ellipse 379" cx="7.534" cy="19.657" rx="7.534" ry="19.657" transform="translate(28.297 110.723)" opacity="0.3"/>
    <ellipse id="Ellipse_380" data-name="Ellipse 380" cx="5.078" cy="11.303" rx="5.078" ry="11.303" transform="translate(15.568 189.378) rotate(-45)" fill="#8ed16f"/>
    <ellipse id="Ellipse_381" data-name="Ellipse 381" cx="5.078" cy="11.303" rx="5.078" ry="11.303" transform="translate(15.568 189.378) rotate(-45)" opacity="0.3"/>
    <path id="Path_3567" data-name="Path 3567" d="M475.142,358.2H296.786a8.126,8.126,0,0,0-8.126,8.126V470.865a8.126,8.126,0,0,0,8.126,8.126H475.142a8.126,8.126,0,0,0,8.126-8.126V366.326A8.126,8.126,0,0,0,475.142,358.2Z" transform="translate(-228.909 -267.903)" fill="url(#linear-gradient)"/>
    <rect id="Rectangle_1924" data-name="Rectangle 1924" width="190.027" height="117.948" rx="24.81" transform="translate(62.041 91.718)" fill="#0264d1"/>
    <rect id="Rectangle_1925" data-name="Rectangle 1925" width="190.027" height="21.624" transform="translate(62.041 112.359)" fill="#0264d1"/>
    <rect id="Rectangle_1926" data-name="Rectangle 1926" width="190.027" height="21.624" transform="translate(62.041 112.359)" opacity="0.3"/>
    <rect id="Rectangle_1927" data-name="Rectangle 1927" width="153.987" height="10.484" transform="translate(80.062 150.038)" fill="#d6d6e3"/>
    <circle id="Ellipse_382" data-name="Ellipse 382" cx="15.072" cy="15.072" r="15.072" transform="translate(77.766 171.661)" fill="#0264d1"/>
    <circle id="Ellipse_383" data-name="Ellipse 383" cx="15.072" cy="15.072" r="15.072" transform="translate(77.766 171.661)" opacity="0.3"/>
    <path id="Path_3568" data-name="Path 3568" d="M822.173,229.819a3.3,3.3,0,0,0,1.453,1.837c3.126,2.065,9.922,1.626,10.739,1.626.174,0,.4.31.653.83a57.423,57.423,0,0,1,3.187,11.368c.167,1.976,2,11.225,5.01,14.671.092.105.184.2.272.3,2.949,2.963,6.409-.3,6.409-.3l.5-1.725c-.139.68-.3,1.473-.452,2.361-.078.446-.156.918-.231,1.4a53.839,53.839,0,0,0-.7,8.29,30.063,30.063,0,0,0,.129,3.021c.027.279.058.554.1.823a28.84,28.84,0,0,1,.224,3.687,100.236,100.236,0,0,1-1.895,16.426l.071-.024c-.044.228-.071.34-.071.34l.109-.034q-.078.507-.15,1.037c-.633,4.592-1,10.307-1.17,13.606a27.232,27.232,0,0,0,.231,5.211l3.32,23.372v10.885a19.218,19.218,0,0,0,.6,4.891c1.082,4.113.19,18.467-.31,25.277-.14,1.857-.248,3.157-.279,3.531v.112l.1-.037v.119a1.921,1.921,0,0,1,.442-.129c-1.316,2.041-3.7,5.415-5.534,5.983a5.807,5.807,0,0,0-2.766,1.833l-.048.065-.068.1a2.042,2.042,0,0,0-.4,1.041,1.142,1.142,0,0,1-.061-.2c-.14.759.316,1.452,1.748,1.789a11.772,11.772,0,0,0,2.534.2c4.966,0,13.78-1.527,14.752-3.17v-5.667l.16.051v.051l.609.2,1.67-5.606c2-1.483.34-28.025,0-34.124-.306-5.558,3.133-27.668,3.742-31.563l-.082-.1.092-.568a2.413,2.413,0,0,1,.34.3,4.44,4.44,0,0,1,.52.769,10.274,10.274,0,0,1,.738,1.524c3.361,8.381,4.874,32.349,4.874,34.5V372.54a23.472,23.472,0,0,0,.918,6.575,28.211,28.211,0,0,1,.714,3.422c.071.452.133.9.19,1.33s.116.918.16,1.32a2.729,2.729,0,0,0,.034.3.6.6,0,0,1,0,.139c.092.888.139,1.469.139,1.469a.342.342,0,0,1,.068-.133l.017.214a.458.458,0,0,1,.133-.211,3.222,3.222,0,0,1,.449-.367v2.864l-.082-.061v.493c3.463,2.612,9.1,3.4,13.426,3.371a17.175,17.175,0,0,0,5.868-.735c1.129-.554.51-1.847-.517-2.837a3.88,3.88,0,0,0-2.49-1.286c-1.1.119-4.84-4.123-6.8-6.446l.221-.1.313-.136v-37.58s.5-14.837,2-29.512a52.208,52.208,0,0,0-2.568-21.892l-.048-.139.456.071c.483.075.742.119.742.119a2.824,2.824,0,0,0-.031-.34h.031s-.585-6.364-.592-14.358c0-9.062.765-20.11,3.932-26.362a18.6,18.6,0,0,0,2.381-8.722,9.122,9.122,0,0,0-1.629-5.579,4.422,4.422,0,0,0-1.874-1.483l-.065-.037h-.034a4.659,4.659,0,0,0-1.721-.34h-6.841a4.568,4.568,0,0,1-2.259-.6l-2.677-1.517a13.578,13.578,0,0,1-.83-6.63c0-.18.034-.361.051-.537l.194-.2c.15-.16.289-.34.425-.493a3.742,3.742,0,0,1-.031.4c-.034.214-.092.34-.184.367,1.463-.19,3.1-.48,3.993-1.609.037-.044.071-.092.105-.139a7.3,7.3,0,0,0,.656-1.361,3.951,3.951,0,0,1,.5-.912c.224-.293.517-.531.759-.81l.041-.048a5.874,5.874,0,0,0,.918-3.817c.017-3.238-.078-6.8-2.245-9.232-1.8-2.021-4.67-2.786-7.395-2.874s-5.443.4-8.164.415c-1.85,0-4.082-.031-5.1,1.5-.5.752-.561,1.735-1.106,2.456-.313.415-.792.772-.82,1.289a1.324,1.324,0,0,0,.177.68v.024a4.812,4.812,0,0,0,3.524,2.364,8.78,8.78,0,0,0-.68.939A8.94,8.94,0,0,0,858.664,220a5.579,5.579,0,0,0,.02.585,8.991,8.991,0,0,0,2.85,5.99c-.027.19-.054.381-.085.568l.061.054q.289.262.6.5l.075.058v.34a5.709,5.709,0,0,1-.02.592c-.02.194,0,.313-.02.469l-.044-.037-3.323-2.776-5.344-4.946s-13.361-9.725-14.031-5.1a3.33,3.33,0,0,0,.636,2.306c2.453,3.742,10.885,6.926,10.885,6.926a71.269,71.269,0,0,1,8.392,11.048c-.119.065-.238.126-.364.184-2.993,1.391-7.361.8-7.361.8-5.045.786-5.5,6.313-5.473,8.548v.463l-6.694-15.719-.02-.048a3.31,3.31,0,0,0-2.5-1.966C832.425,228.084,821.237,226.516,822.173,229.819ZM850.2,382.548a2.918,2.918,0,0,1,.3-.054l-.031.048Z" transform="translate(-580.909 -167.183)" fill="url(#linear-gradient-2)"/>
    <path id="Path_3569" data-name="Path 3569" d="M987.533,716.43s6.34,7.97,7.807,7.807,4.878,3.089,2.929,4.082-13.171,1.626-18.708-2.6v-6.371Z" transform="translate(-684.797 -504.28)" fill="#aca9c9"/>
    <path id="Path_3570" data-name="Path 3570" d="M890.326,717.86s-3.742,6.667-6.34,7.483-4.878,3.742-1.463,4.555,15.613-.976,16.749-2.929v-8.623Z" transform="translate(-619.629 -505.224)" fill="#aca9c9"/>
    <path id="Path_3571" data-name="Path 3571" d="M894.479,475.656l3.231,23.056V509.43a19.214,19.214,0,0,0,.585,4.823c1.055,4.058.187,18.215-.3,24.933-.16,2.191-.282,3.592-.282,3.592,2.112-.976,11.058,2.112,11.058,2.112l.9-3.078.721-2.449c1.952-1.463.34-27.644,0-33.675-.221-4.119,1.616-17.474,2.793-25.477.34-2.262.616-4.082.782-5.177.106-.68.163-1.058.163-1.058a3.56,3.56,0,0,1,.878,1.058,10.178,10.178,0,0,1,.718,1.5c3.272,8.269,4.762,31.91,4.762,34.015v22.232a23.444,23.444,0,0,0,.895,6.487,34.018,34.018,0,0,1,.881,4.684c.231,1.765.34,3.187.34,3.187.163-.976,10.245-5.368,10.245-5.368V504.7s.486-14.627,1.952-29.11A51.934,51.934,0,0,0,932.934,456c-.4-1.384-.81-2.558-1.16-3.487-.6-1.582-1.021-2.456-1.021-2.456H897.541c-.558.105-1.021,1.228-1.439,2.932-.272,1.143-.51,2.544-.718,4.082-.616,4.527-.969,10.164-1.14,13.422A27.17,27.17,0,0,0,894.479,475.656Z" transform="translate(-628.48 -328.517)" fill="#618fd8"/>
    <g id="Group_9997" data-name="Group 9997" transform="translate(269.313 121.645)" opacity="0.1">
      <path id="Path_3572" data-name="Path 3572" d="M987.377,542.079V505s.486-14.627,1.952-29.11a50.711,50.711,0,0,0-4.082-25.532h.65a51.007,51.007,0,0,1,4.082,25.532c-1.446,14.474-1.952,29.11-1.952,29.11v37.077s-10.082,4.391-10.245,5.368a4.868,4.868,0,0,0-.051-.592C979.927,545.327,987.377,542.079,987.377,542.079Z" transform="translate(-952.902 -450.36)"/>
      <path id="Path_3573" data-name="Path 3573" d="M905.635,722.323a2.524,2.524,0,0,0-.895.184v-.163A5.807,5.807,0,0,1,905.635,722.323Z" transform="translate(-904.74 -629.809)"/>
      <path id="Path_3574" data-name="Path 3574" d="M937.085,586c1.953-1.463.34-27.644,0-33.675s3.742-31.709,3.742-31.709a2.838,2.838,0,0,1,.561.578c-.6,3.837-3.946,25.651-3.65,31.131.34,6.017,1.953,32.2,0,33.675l-1.626,5.528-.592-.2Z" transform="translate(-925.05 -496.721)"/>
    </g>
    <path id="Path_3575" data-name="Path 3575" d="M855.419,293.517l-3.4,12.035s-3.578,3.4-6.5,0-4.728-12.521-4.905-14.474-2.765-12.035-3.742-12.035-10.732.65-11.871-3.4c-.912-3.259,9.98-1.7,14.341-.969a3.231,3.231,0,0,1,2.439,1.939l6.687,15.97S852,288.476,855.419,293.517Z" transform="translate(-582.772 -212.115)" fill="#f7c4a7"/>
    <path id="Path_3576" data-name="Path 3576" d="M944.055,249.82s-4.228,11.871,1.14,16.1S926,271.287,926,271.287l3.333-3.17s2.357-9.351.731-17.157Z" transform="translate(-649.455 -196.389)" fill="#f7c4a7"/>
    <path id="Path_3577" data-name="Path 3577" d="M917.477,292.894s4.31-1.058,4.31-2.194l3.82,2.194h9.6s6.994,3.9,1.14,15.613-3.252,40.478-3.252,40.478-20.814-3.742-38.053,1.952c0,0,2.6-12.848,1.626-20.164s1.626-17.562,1.626-17.562l1.463-6.181s-.082-5.783-6.1-2.847c0,0-.895-8.375,5.286-9.351,0,0,7.143.976,9.269-2.6C908.208,292.244,912.926,295.01,917.477,292.894Z" transform="translate(-628.081 -223.364)" opacity="0.1"/>
    <path id="Path_3578" data-name="Path 3578" d="M917.477,291.944s4.31-1.058,4.31-2.194l2.8,1.609a4.422,4.422,0,0,0,2.2.585h6.711a4.422,4.422,0,0,1,3.6,1.83c1.541,2.167,2.922,6.439-.748,13.783-5.854,11.708-3.252,40.478-3.252,40.478s-20.814-3.742-38.053,1.952c0,0,2.6-12.848,1.626-20.164s1.626-17.538,1.626-17.538l1.463-6.181s-.082-5.783-6.1-2.847c0,0-.871-8.143,5.031-9.307a1.665,1.665,0,0,1,.5-.034c1.262.133,7.143.558,9.028-2.629C908.207,291.291,912.925,294.056,917.477,291.944Z" transform="translate(-628.081 -222.737)" fill="#e14b5a"/>
    <path id="Path_3579" data-name="Path 3579" d="M961.275,314.9s-5.2,3.252-13.661,0c0,0-9.269-3.4-12.2-10.082s14.8,1.14,14.8,1.14,3.742,0,4.878-.813S964.2,311.326,961.275,314.9Z" transform="translate(-655.453 -230.901)" opacity="0.1"/>
    <path id="Path_3580" data-name="Path 3580" d="M921.16,271.038s-5.2,3.252-13.661,0c0,0-9.269-3.4-12.2-10.082s-9.756-14-9.756-14-11.871-4.555-11.225-9.106,13.661,5.041,13.661,5.041l5.2,4.878,16.912,14.31s3.742,0,4.878-.813S924.085,267.46,921.16,271.038Z" transform="translate(-615.338 -187.684)" fill="#f7c4a7"/>
    <path id="Path_3581" data-name="Path 3581" d="M937.49,252.39l13.984-1.14a32.1,32.1,0,0,0-1.459,6.623,8.936,8.936,0,0,1-12.518.34A15.9,15.9,0,0,0,937.49,252.39Z" transform="translate(-657.037 -197.333)" opacity="0.1"/>
    <circle id="Ellipse_384" data-name="Ellipse 384" cx="8.943" cy="8.943" r="8.943" transform="translate(277.772 44.896)" fill="#f7c4a7"/>
    <path id="Path_3582" data-name="Path 3582" d="M940.3,225.98c-.524-.864.541-1.99.191-2.936-.323-.871-1.609-1.02-2.041-1.833-.34-.656,0-1.463-.136-2.187a2.247,2.247,0,0,0-2.157-1.565,7.693,7.693,0,0,0-2.786.616,10.7,10.7,0,0,1-4.589.708,4.811,4.811,0,0,1-3.789-2.4,1.361,1.361,0,0,1-.173-.66c.027-.51.5-.861.8-1.269.531-.711.592-1.68,1.075-2.422.987-1.51,3.153-1.473,4.956-1.48,2.653,0,5.293-.5,7.946-.408s5.443.84,7.2,2.833c2.109,2.4,2.2,5.908,2.187,9.106a5.8,5.8,0,0,1-.895,3.765c-.245.3-.544.541-.779.844-.51.68-.646,1.551-1.126,2.242-.85,1.228-2.51,1.527-3.99,1.725.435-.058.075-2.973,0-3.242C941.909,226.072,941.6,226.1,940.3,225.98Z" transform="translate(-648.677 -170.199)" opacity="0.1"/>
    <path id="Path_3583" data-name="Path 3583" d="M940.3,225.03c-.524-.864.541-1.99.191-2.936-.323-.871-1.609-1.02-2.041-1.833-.34-.656,0-1.463-.136-2.187a2.247,2.247,0,0,0-2.157-1.565,7.694,7.694,0,0,0-2.786.616,10.7,10.7,0,0,1-4.589.708,4.811,4.811,0,0,1-3.789-2.4,1.361,1.361,0,0,1-.173-.66c.027-.51.5-.861.8-1.269.531-.711.592-1.68,1.075-2.422.987-1.51,3.153-1.473,4.956-1.48,2.653,0,5.293-.5,7.946-.408s5.443.84,7.2,2.833c2.109,2.4,2.2,5.908,2.187,9.106a5.8,5.8,0,0,1-.895,3.766c-.245.3-.544.541-.779.844-.51.68-.646,1.551-1.126,2.242-.85,1.228-2.51,1.527-3.99,1.725.435-.058.075-2.973,0-3.242C941.909,225.105,941.6,225.146,940.3,225.03Z" transform="translate(-648.677 -169.572)" fill="#281c1c"/>
    <path id="Path_3584" data-name="Path 3584" d="M995.3,317.909s-4.391-11.385-7.806-11.708,6.5,0,6.5,0l3.252,5.854Z" transform="translate(-689.558 -233.497)" opacity="0.1"/>
    <path id="Path_3585" data-name="Path 3585" d="M996.258,317.909s-4.391-11.385-7.807-11.708,6.5,0,6.5,0l3.252,5.854Z" transform="translate(-690.192 -233.497)" fill="#e14b5a"/>
    <path id="Path_3586" data-name="Path 3586" d="M976.65,716.817c.231,1.766.34,3.187.34,3.187.163-.976,10.245-5.368,10.245-5.368v-2.643a4.483,4.483,0,0,0-.769.037,14.508,14.508,0,0,0-5.443,2.225A49.637,49.637,0,0,1,976.65,716.817Z" transform="translate(-682.877 -501.351)" fill="#618fd8"/>
    <path id="Path_3587" data-name="Path 3587" d="M976.65,716.817c.231,1.766.34,3.187.34,3.187.163-.976,10.245-5.368,10.245-5.368v-2.643a4.483,4.483,0,0,0-.769.037,14.508,14.508,0,0,0-5.443,2.225A49.637,49.637,0,0,1,976.65,716.817Z" transform="translate(-682.877 -501.351)" opacity="0.3"/>
    <path id="Path_3588" data-name="Path 3588" d="M904.5,715.258c2.112-.976,11.058,2.112,11.058,2.112l.9-3.078c-1.561-.316-3.112-.711-4.636-1.18a15.42,15.42,0,0,1-2.082-.769,13.926,13.926,0,0,0-1.388-.646,7.2,7.2,0,0,0-3.578-.031C904.622,713.857,904.5,715.258,904.5,715.258Z" transform="translate(-635.269 -500.996)" fill="#618fd8"/>
    <path id="Path_3589" data-name="Path 3589" d="M904.5,715.258c2.112-.976,11.058,2.112,11.058,2.112l.9-3.078c-1.561-.316-3.112-.711-4.636-1.18a15.42,15.42,0,0,1-2.082-.769,13.926,13.926,0,0,0-1.388-.646,7.2,7.2,0,0,0-3.578-.031C904.622,713.857,904.5,715.258,904.5,715.258Z" transform="translate(-635.269 -500.996)" opacity="0.3"/>
    <path id="Path_3590" data-name="Path 3590" d="M998.008,744.842a.973.973,0,0,0,.558-.646.956.956,0,0,1-.558,1.133c-1.952.976-13.171,1.626-18.708-2.6v-.486C984.838,746.468,996.056,745.818,998.008,744.842Z" transform="translate(-684.625 -521.311)" fill="#fff" opacity="0.4"/>
    <path id="Path_3591" data-name="Path 3591" d="M882.273,746.119c3.4.813,15.613-.976,16.749-2.929v.486c-1.14,1.953-13.334,3.742-16.749,2.929-1.395-.34-1.84-1.021-1.7-1.765C880.682,745.391,881.192,745.847,882.273,746.119Z" transform="translate(-619.464 -521.938)" fill="#fff" opacity="0.4"/>
    <path id="Path_3592" data-name="Path 3592" d="M917.025,402.548s-3.578-1.139-4.555,0-9.32,3.81-9.32,3.81" transform="translate(-634.378 -296.832)" opacity="0.1"/>
    <rect id="Rectangle_1928" data-name="Rectangle 1928" width="17.399" height="0.367" transform="translate(259.557 61.033) rotate(180)" fill="#8ed16f"/>
    <rect id="Rectangle_1929" data-name="Rectangle 1929" width="17.399" height="0.367" transform="translate(259.557 61.401) rotate(180)" fill="#8ed16f"/>
    <rect id="Rectangle_1930" data-name="Rectangle 1930" width="17.399" height="0.367" transform="translate(259.557 61.401) rotate(180)" opacity="0.1"/>
    <rect id="Rectangle_1931" data-name="Rectangle 1931" width="17.399" height="0.367" transform="translate(259.557 61.768) rotate(180)" fill="#8ed16f"/>
    <rect id="Rectangle_1932" data-name="Rectangle 1932" width="17.399" height="0.367" transform="translate(259.557 62.132) rotate(180)" fill="#8ed16f"/>
    <rect id="Rectangle_1933" data-name="Rectangle 1933" width="17.399" height="0.367" transform="translate(259.557 62.132) rotate(180)" opacity="0.1"/>
    <rect id="Rectangle_1934" data-name="Rectangle 1934" width="17.399" height="0.367" transform="translate(259.557 62.499) rotate(180)" fill="#8ed16f"/>
    <rect id="Rectangle_1935" data-name="Rectangle 1935" width="17.399" height="0.367" transform="translate(259.557 62.863) rotate(180)" fill="#8ed16f"/>
    <rect id="Rectangle_1936" data-name="Rectangle 1936" width="17.399" height="0.367" transform="translate(259.557 62.863) rotate(180)" opacity="0.1"/>
    <rect id="Rectangle_1937" data-name="Rectangle 1937" width="17.399" height="0.367" transform="translate(259.557 63.231) rotate(180)" fill="#8ed16f"/>
    <rect id="Rectangle_1938" data-name="Rectangle 1938" width="17.399" height="0.367" transform="translate(259.557 63.595) rotate(180)" fill="#8ed16f"/>
    <rect id="Rectangle_1939" data-name="Rectangle 1939" width="17.399" height="0.367" transform="translate(259.557 63.595) rotate(180)" opacity="0.1"/>
    <rect id="Rectangle_1940" data-name="Rectangle 1940" width="17.399" height="0.367" transform="translate(259.557 58.108) rotate(180)" fill="#8ed16f"/>
    <rect id="Rectangle_1941" data-name="Rectangle 1941" width="17.399" height="0.367" transform="matrix(-0.769, -0.639, 0.639, -0.769, 267.843, 60.536)" fill="#8ed16f"/>
    <rect id="Rectangle_1942" data-name="Rectangle 1942" width="17.399" height="0.367" transform="matrix(-0.769, -0.639, 0.639, -0.769, 255.647, 54.682)" fill="#8ed16f"/>
    <rect id="Rectangle_1943" data-name="Rectangle 1943" width="17.399" height="0.367" transform="translate(259.557 58.472) rotate(180)" fill="#8ed16f"/>
    <rect id="Rectangle_1944" data-name="Rectangle 1944" width="17.399" height="0.367" transform="translate(259.557 58.472) rotate(180)" opacity="0.1"/>
    <rect id="Rectangle_1945" data-name="Rectangle 1945" width="17.399" height="0.367" transform="translate(259.557 58.843) rotate(180)" fill="#8ed16f"/>
    <rect id="Rectangle_1946" data-name="Rectangle 1946" width="17.399" height="0.367" transform="translate(259.557 59.207) rotate(180)" fill="#8ed16f"/>
    <rect id="Rectangle_1947" data-name="Rectangle 1947" width="17.399" height="0.367" transform="translate(259.557 59.207) rotate(180)" opacity="0.1"/>
    <rect id="Rectangle_1948" data-name="Rectangle 1948" width="17.399" height="0.367" transform="translate(259.557 59.571) rotate(180)" fill="#8ed16f"/>
    <rect id="Rectangle_1949" data-name="Rectangle 1949" width="17.399" height="0.367" transform="translate(259.557 59.938) rotate(180)" fill="#8ed16f"/>
    <rect id="Rectangle_1950" data-name="Rectangle 1950" width="17.399" height="0.367" transform="translate(259.557 59.938) rotate(180)" opacity="0.1"/>
    <rect id="Rectangle_1951" data-name="Rectangle 1951" width="17.399" height="0.367" transform="translate(259.557 60.302) rotate(180)" fill="#8ed16f"/>
    <rect id="Rectangle_1952" data-name="Rectangle 1952" width="17.399" height="0.367" transform="translate(259.557 60.669) rotate(180)" fill="#8ed16f"/>
    <rect id="Rectangle_1953" data-name="Rectangle 1953" width="17.399" height="0.367" transform="translate(259.557 60.669) rotate(180)" opacity="0.1"/>
    <rect id="Rectangle_1954" data-name="Rectangle 1954" width="6.34" height="12.358" transform="translate(246.187 76.09) rotate(-169.48)" fill="#8ed16f"/>
    <ellipse id="Ellipse_385" data-name="Ellipse 385" cx="2.602" cy="1.299" rx="2.602" ry="1.299" transform="translate(242.533 71.797) rotate(-79.48)" fill="#8ed16f"/>
    <ellipse id="Ellipse_386" data-name="Ellipse 386" cx="2.602" cy="1.299" rx="2.602" ry="1.299" transform="translate(242.533 71.797) rotate(-79.48)" opacity="0.1"/>
    <rect id="Rectangle_1955" data-name="Rectangle 1955" width="6.34" height="12.358" transform="translate(247.254 101.736) rotate(-169.48)" fill="#8ed16f"/>
    <ellipse id="Ellipse_387" data-name="Ellipse 387" cx="2.602" cy="1.299" rx="2.602" ry="1.299" transform="translate(243.596 97.44) rotate(-79.48)" fill="#8ed16f"/>
    <ellipse id="Ellipse_388" data-name="Ellipse 388" cx="2.602" cy="1.299" rx="2.602" ry="1.299" transform="translate(243.596 97.44) rotate(-79.48)" opacity="0.1"/>
    <rect id="Rectangle_1956" data-name="Rectangle 1956" width="6.34" height="12.358" transform="matrix(0.476, -0.879, 0.879, 0.476, 215.454, 43.119)" fill="#8ed16f"/>
    <ellipse id="Ellipse_389" data-name="Ellipse 389" cx="1.303" cy="2.608" rx="1.303" ry="2.608" transform="translate(220.543 43.405) rotate(-61.39)" fill="#8ed16f"/>
    <ellipse id="Ellipse_390" data-name="Ellipse 390" cx="1.303" cy="2.608" rx="1.303" ry="2.608" transform="translate(220.543 43.405) rotate(-61.39)" opacity="0.1"/>
    <rect id="Rectangle_1957" data-name="Rectangle 1957" width="6.34" height="12.358" transform="matrix(0.476, -0.879, 0.879, 0.476, 191.59, 153.167)" fill="#8ed16f"/>
    <ellipse id="Ellipse_391" data-name="Ellipse 391" cx="1.299" cy="2.602" rx="1.299" ry="2.602" transform="matrix(0.476, -0.879, 0.879, 0.476, 195.591, 153.298)" fill="#8ed16f"/>
    <ellipse id="Ellipse_392" data-name="Ellipse 392" cx="1.299" cy="2.602" rx="1.299" ry="2.602" transform="matrix(0.476, -0.879, 0.879, 0.476, 195.591, 153.298)" opacity="0.1"/>
    <rect id="Rectangle_1958" data-name="Rectangle 1958" width="6.34" height="12.358" transform="matrix(0.476, -0.879, 0.879, 0.476, 176.989, 62.352)" fill="#8ed16f"/>
    <ellipse id="Ellipse_393" data-name="Ellipse 393" cx="1.299" cy="2.602" rx="1.299" ry="2.602" transform="matrix(0.476, -0.879, 0.879, 0.476, 180.987, 62.478)" fill="#8ed16f"/>
    <ellipse id="Ellipse_394" data-name="Ellipse 394" cx="1.299" cy="2.602" rx="1.299" ry="2.602" transform="matrix(0.476, -0.879, 0.879, 0.476, 180.987, 62.478)" opacity="0.1"/>
    <rect id="Rectangle_1959" data-name="Rectangle 1959" width="6.34" height="12.358" transform="matrix(0.476, -0.879, 0.879, 0.476, 195.289, 43.118)" fill="#8ed16f"/>
    <ellipse id="Ellipse_395" data-name="Ellipse 395" cx="1.299" cy="2.602" rx="1.299" ry="2.602" transform="matrix(0.476, -0.879, 0.879, 0.476, 199.287, 43.244)" fill="#8ed16f"/>
    <ellipse id="Ellipse_396" data-name="Ellipse 396" cx="1.299" cy="2.602" rx="1.299" ry="2.602" transform="matrix(0.476, -0.879, 0.879, 0.476, 199.287, 43.244)" opacity="0.1"/>
    <rect id="Rectangle_1960" data-name="Rectangle 1960" width="6.34" height="12.358" transform="matrix(0.994, -0.109, 0.109, 0.994, 210.276, 60.926)" fill="#8ed16f"/>
    <ellipse id="Ellipse_397" data-name="Ellipse 397" cx="1.299" cy="2.602" rx="1.299" ry="2.602" transform="matrix(0.994, -0.109, 0.109, 0.994, 212.441, 64.289)" fill="#8ed16f"/>
    <ellipse id="Ellipse_398" data-name="Ellipse 398" cx="1.299" cy="2.602" rx="1.299" ry="2.602" transform="matrix(0.994, -0.109, 0.109, 0.994, 212.441, 64.289)" opacity="0.1"/>
    <rect id="Rectangle_1961" data-name="Rectangle 1961" width="6.34" height="12.358" transform="matrix(0.994, -0.109, 0.109, 0.994, 253.489, 128.195)" fill="#8ed16f"/>
    <ellipse id="Ellipse_399" data-name="Ellipse 399" cx="1.299" cy="2.602" rx="1.299" ry="2.602" transform="matrix(0.994, -0.109, 0.109, 0.994, 255.657, 131.558)" fill="#8ed16f"/>
    <ellipse id="Ellipse_400" data-name="Ellipse 400" cx="1.299" cy="2.602" rx="1.299" ry="2.602" transform="matrix(0.994, -0.109, 0.109, 0.994, 255.657, 131.558)" opacity="0.1"/>
    <rect id="Rectangle_1962" data-name="Rectangle 1962" width="6.34" height="12.358" transform="matrix(0.476, -0.879, 0.879, 0.476, 188.879, 91.908)" fill="#8ed16f"/>
    <ellipse id="Ellipse_401" data-name="Ellipse 401" cx="1.299" cy="2.602" rx="1.299" ry="2.602" transform="matrix(0.476, -0.879, 0.879, 0.476, 192.875, 92.039)" fill="#8ed16f"/>
    <ellipse id="Ellipse_402" data-name="Ellipse 402" cx="1.299" cy="2.602" rx="1.299" ry="2.602" transform="matrix(0.476, -0.879, 0.879, 0.476, 192.875, 92.039)" opacity="0.1"/>
    <rect id="Rectangle_1963" data-name="Rectangle 1963" width="6.34" height="12.358" transform="matrix(0.476, -0.879, 0.879, 0.476, 161.453, 84.075)" fill="#8ed16f"/>
    <ellipse id="Ellipse_403" data-name="Ellipse 403" cx="1.303" cy="2.608" rx="1.303" ry="2.608" transform="translate(166.346 84.556) rotate(-61.39)" fill="#8ed16f"/>
    <ellipse id="Ellipse_404" data-name="Ellipse 404" cx="1.303" cy="2.608" rx="1.303" ry="2.608" transform="translate(166.346 84.556) rotate(-61.39)" opacity="0.1"/>
    <rect id="Rectangle_1964" data-name="Rectangle 1964" width="6.34" height="12.358" transform="matrix(0.476, -0.879, 0.879, 0.476, 152.669, 215.955)" fill="#8ed16f"/>
    <ellipse id="Ellipse_405" data-name="Ellipse 405" cx="1.299" cy="2.602" rx="1.299" ry="2.602" transform="matrix(0.476, -0.879, 0.879, 0.476, 156.666, 216.083)" fill="#8ed16f"/>
    <ellipse id="Ellipse_406" data-name="Ellipse 406" cx="1.299" cy="2.602" rx="1.299" ry="2.602" transform="matrix(0.476, -0.879, 0.879, 0.476, 156.666, 216.083)" opacity="0.1"/>
    <rect id="Rectangle_1965" data-name="Rectangle 1965" width="6.34" height="12.358" transform="translate(146.623 218.763) rotate(-79.49)" fill="#8ed16f"/>
    <rect id="Rectangle_1966" data-name="Rectangle 1966" width="6.34" height="12.358" transform="translate(146.623 218.763) rotate(-79.49)" opacity="0.05"/>
    <ellipse id="Ellipse_407" data-name="Ellipse 407" cx="1.299" cy="2.602" rx="1.299" ry="2.602" transform="translate(150.469 217.655) rotate(-79.49)" fill="#8ed16f"/>
    <ellipse id="Ellipse_408" data-name="Ellipse 408" cx="1.299" cy="2.602" rx="1.299" ry="2.602" transform="translate(150.469 217.655) rotate(-79.49)" opacity="0.1"/>
    <rect id="Rectangle_1967" data-name="Rectangle 1967" width="6.34" height="12.358" transform="translate(147.761 222.502) rotate(-79.49)" fill="#8ed16f"/>
    <ellipse id="Ellipse_409" data-name="Ellipse 409" cx="1.299" cy="2.602" rx="1.299" ry="2.602" transform="translate(151.604 221.393) rotate(-79.49)" fill="#8ed16f"/>
    <ellipse id="Ellipse_410" data-name="Ellipse 410" cx="1.299" cy="2.602" rx="1.299" ry="2.602" transform="translate(151.604 221.393) rotate(-79.49)" opacity="0.1"/>
    <rect id="Rectangle_1968" data-name="Rectangle 1968" width="6.34" height="12.358" transform="matrix(0.476, -0.879, 0.879, 0.476, 165.489, 231.982)" fill="#8ed16f"/>
    <ellipse id="Ellipse_411" data-name="Ellipse 411" cx="1.299" cy="2.602" rx="1.299" ry="2.602" transform="matrix(0.476, -0.879, 0.879, 0.476, 169.49, 232.11)" fill="#8ed16f"/>
    <ellipse id="Ellipse_412" data-name="Ellipse 412" cx="1.299" cy="2.602" rx="1.299" ry="2.602" transform="matrix(0.476, -0.879, 0.879, 0.476, 169.49, 232.11)" opacity="0.1"/>
    <rect id="Rectangle_1969" data-name="Rectangle 1969" width="6.34" height="12.358" transform="translate(159.446 234.786) rotate(-79.49)" fill="#8ed16f"/>
    <rect id="Rectangle_1970" data-name="Rectangle 1970" width="6.34" height="12.358" transform="translate(159.446 234.786) rotate(-79.49)" opacity="0.05"/>
    <ellipse id="Ellipse_413" data-name="Ellipse 413" cx="1.299" cy="2.602" rx="1.299" ry="2.602" transform="translate(163.288 233.678) rotate(-79.49)" fill="#8ed16f"/>
    <ellipse id="Ellipse_414" data-name="Ellipse 414" cx="1.299" cy="2.602" rx="1.299" ry="2.602" transform="translate(163.288 233.678) rotate(-79.49)" opacity="0.1"/>
    <rect id="Rectangle_1971" data-name="Rectangle 1971" width="6.34" height="12.358" transform="translate(160.583 238.529) rotate(-79.49)" fill="#8ed16f"/>
    <ellipse id="Ellipse_415" data-name="Ellipse 415" cx="1.299" cy="2.602" rx="1.299" ry="2.602" transform="translate(164.429 237.421) rotate(-79.49)" fill="#8ed16f"/>
    <ellipse id="Ellipse_416" data-name="Ellipse 416" cx="1.299" cy="2.602" rx="1.299" ry="2.602" transform="translate(164.429 237.421) rotate(-79.49)" opacity="0.1"/>
    <rect id="Rectangle_1972" data-name="Rectangle 1972" width="6.34" height="12.358" transform="matrix(0.476, -0.879, 0.879, 0.476, 184.724, 221.653)" fill="#8ed16f"/>
    <ellipse id="Ellipse_417" data-name="Ellipse 417" cx="1.299" cy="2.602" rx="1.299" ry="2.602" transform="matrix(0.476, -0.879, 0.879, 0.476, 188.718, 221.78)" fill="#8ed16f"/>
    <ellipse id="Ellipse_418" data-name="Ellipse 418" cx="1.299" cy="2.602" rx="1.299" ry="2.602" transform="matrix(0.476, -0.879, 0.879, 0.476, 188.718, 221.78)" opacity="0.1"/>
    <rect id="Rectangle_1973" data-name="Rectangle 1973" width="6.34" height="12.358" transform="translate(178.679 224.459) rotate(-79.49)" fill="#8ed16f"/>
    <rect id="Rectangle_1974" data-name="Rectangle 1974" width="6.34" height="12.358" transform="translate(178.679 224.459) rotate(-79.49)" opacity="0.05"/>
    <ellipse id="Ellipse_419" data-name="Ellipse 419" cx="1.299" cy="2.602" rx="1.299" ry="2.602" transform="translate(182.521 223.351) rotate(-79.49)" fill="#8ed16f"/>
    <ellipse id="Ellipse_420" data-name="Ellipse 420" cx="1.299" cy="2.602" rx="1.299" ry="2.602" transform="translate(182.521 223.351) rotate(-79.49)" opacity="0.1"/>
    <rect id="Rectangle_1975" data-name="Rectangle 1975" width="6.34" height="12.358" transform="translate(179.817 228.201) rotate(-79.49)" fill="#8ed16f"/>
    <ellipse id="Ellipse_421" data-name="Ellipse 421" cx="1.299" cy="2.602" rx="1.299" ry="2.602" transform="translate(183.662 227.094) rotate(-79.49)" fill="#8ed16f"/>
    <ellipse id="Ellipse_422" data-name="Ellipse 422" cx="1.299" cy="2.602" rx="1.299" ry="2.602" transform="translate(183.662 227.094) rotate(-79.49)" opacity="0.1"/>
  </g>
</svg>
