<svg xmlns="http://www.w3.org/2000/svg" xmlns:xlink="http://www.w3.org/1999/xlink" width="242.01" height="224.37" viewBox="0 0 242.01 224.37">
  <defs>
    <linearGradient id="linear-gradient" x1="0.5" y1="1" x2="0.5" gradientUnits="objectBoundingBox">
      <stop offset="0" stop-color="gray" stop-opacity="0.251"/>
      <stop offset="0.54" stop-color="gray" stop-opacity="0.122"/>
      <stop offset="1" stop-color="gray" stop-opacity="0.102"/>
    </linearGradient>
    <linearGradient id="linear-gradient-2" x1="0.507" y1="1.003" x2="0.507" y2="0" xlink:href="#linear-gradient"/>
  </defs>
  <g id="Group_10005" data-name="Group 10005" transform="translate(0.003 -0.18)">
    <ellipse id="Ellipse_423" data-name="Ellipse 423" cx="58.463" cy="4.471" rx="58.463" ry="4.471" transform="translate(71.583 215.608)" fill="#0264d1"/>
    <ellipse id="Ellipse_424" data-name="Ellipse 424" cx="58.463" cy="4.471" rx="58.463" ry="4.471" transform="translate(71.583 215.608)" opacity="0.4"/>
    <path id="Path_3595" data-name="Path 3595" d="M217.065,84.894c8.2-7.316,21.091-8.807,32.825-8.217,36.849,1.83,70.115,19.621,98.884,39.744,10.415,7.287,20.671,15.137,27.434,25.168,13.765,20.422,9.68,48.715-9.46,65.539-6.512,5.724-14.4,10.113-22.508,14.013-14.41,6.917-29.959,12.469-46.312,14.047-11.663,1.129-23.471.212-35.064-1.362-32.389-4.41-64.185-14.111-90.836-30.747-11.689-7.289-22.706-16.35-27.524-28.145s-1.734-26.736,10.2-33.716c4.936-2.887,10.84-4.191,16.617-5.415,8.506-1.8,17.149-3.58,24.824-7.242,7.932-3.786,17.313-11.1,15.745-19.478C210.206,100.1,208.868,92.2,217.065,84.894Z" transform="translate(-142.33 -62.957)" fill="#0264d1"/>
    <path id="Path_3596" data-name="Path 3596" d="M217.065,84.894c8.2-7.316,21.091-8.807,32.825-8.217,36.849,1.83,70.115,19.621,98.884,39.744,10.415,7.287,20.671,15.137,27.434,25.168,13.765,20.422,9.68,48.715-9.46,65.539-6.512,5.724-14.4,10.113-22.508,14.013-14.41,6.917-29.959,12.469-46.312,14.047-11.663,1.129-23.471.212-35.064-1.362-32.389-4.41-64.185-14.111-90.836-30.747-11.689-7.289-22.706-16.35-27.524-28.145s-1.734-26.736,10.2-33.716c4.936-2.887,10.84-4.191,16.617-5.415,8.506-1.8,17.149-3.58,24.824-7.242,7.932-3.786,17.313-11.1,15.745-19.478C210.206,100.1,208.868,92.2,217.065,84.894Z" transform="translate(-142.33 -62.957)" fill="#fff"/>
    <path id="Path_3597" data-name="Path 3597" d="M550.924,45.03V45.5a3.06,3.06,0,0,1-.018.407V46c0,.114-.013.227-.024.338v.1a.364.364,0,0,1,0,.053,3.038,3.038,0,0,1-.026.309c-.011.1-.018.164-.026.249-.024.2-.05.407-.082.611-.018.135-.04.264-.061.4a.116.116,0,0,0,0,.029c-.013.066-.024.132-.037.2s-.013.077-.021.116a.29.29,0,0,1-.021.106,1.352,1.352,0,0,0-.042.212c-.016.069-.029.14-.045.212s-.021.1-.034.156-.04.177-.061.264a.033.033,0,0,0,0,.016l-.048.182-.056.222c-.024.09-.05.18-.074.264a.092.092,0,0,1-.021.071l-.079.264c-.085.28-.177.561-.264.838l-.1.264-.056.145a18.772,18.772,0,0,1-2.578,4.632c-.063.09-.132.177-.2.264a19.744,19.744,0,0,1-1.626,1.851L518.295,85.4,491.263,58.366a19.148,19.148,0,0,1-2.115-2.517,18.514,18.514,0,0,1-1.1-1.756,19.129,19.129,0,0,1-2.311-10.869c.029-.346.069-.693.116-1.036.085-.608.2-1.214.344-1.814.029-.122.061-.243.093-.362.016-.061.032-.124.048-.182s.019-.074.029-.111l.079-.264h0c.063-.209.127-.418.2-.627l.1-.286c.143-.4.3-.793.465-1.2l.1-.235c.053-.119.106-.238.161-.357.09-.19.182-.381.264-.568l.024-.042h0c.042-.087.087-.169.132-.264l.156-.288c.066-.119.135-.238.2-.357.032-.056.066-.111.1-.169s.04-.061.058-.1a.11.11,0,0,0,0-.019h0c.042-.069.085-.137.13-.206s.1-.156.148-.233c.111-.172.225-.344.341-.513l.124-.177.156-.214c.053-.077.108-.151.167-.225l.2-.264c.063-.077.124-.156.185-.233l.066-.079.135-.164c.069-.085.14-.167.211-.249l.093-.108.016-.019.161-.18.18-.2c.169-.182.344-.365.529-.529l.209-.206.325-.307c.071-.066.143-.132.217-.2s.169-.153.264-.227l.169-.143c.056-.05.114-.1.169-.143a4.268,4.268,0,0,1,.344-.264l.174-.137c.291-.222.584-.436.886-.642l.18-.122.182-.119.172-.111.264-.159.127-.077.185-.108c.249-.145.5-.286.748-.418l.151-.079.233-.119.193-.1.193-.09.193-.093.2-.087.2-.085c.264-.114.529-.219.793-.32l.172-.106.212-.077.188-.066.159-.053.365-.116.188-.058.151-.042.148-.042q.132-.04.264-.071l.349-.09c.36-.087.722-.167,1.084-.233l.148-.026.206-.034.211-.034.264-.04.156-.021c.349-.045.7-.082,1.058-.108h2.456a1.524,1.524,0,0,1,.264.016h.18c.28.021.561.05.838.082l.375.05.264.037.209.034.209.034.137.024q.542.1,1.079.23l.439.114.122.034.188.053c.122.034.243.069.362.108l.159.05q.4.122.793.264l.18.066.235.09.354.143c.137.058.264.116.4.177l.159.069.217.1.193.09.19.1.241.122.19.1c.148.079.3.159.442.243l.185.106c.217.124.428.264.64.389l.172.111.182.119.18.122h0l.119.082c.264.177.505.362.754.553l.174.137c.114.09.23.182.344.264.056.045.114.093.169.143l.169.143.264.227c.074.063.145.13.217.2l.3.323.209.206.211-.206.323-.307c.071-.066.143-.132.217-.2s.169-.153.264-.227l.169-.143c.056-.05.114-.1.169-.143a4.285,4.285,0,0,1,.344-.264l.174-.137c.291-.222.584-.436.886-.642l.18-.122.182-.119.172-.111.251-.159.127-.077.185-.108c.249-.145.5-.286.748-.418l.151-.079.233-.119.193-.1.193-.09.193-.093.2-.087.2-.085c.264-.114.529-.219.793-.32.063-.024.13-.05.2-.071l.209-.077.19-.066.156-.053.365-.116.188-.058.151-.042.148-.042c.087-.026.174-.05.264-.071l.346-.09c.36-.087.722-.167,1.084-.233l.148-.026.206-.034.212-.034.264-.04.156-.021c.349-.045.7-.082,1.058-.108h2.432a1.525,1.525,0,0,1,.264.016h.18c.28.021.561.05.838.082l.375.05.264.037.209.034.209.034.138.024q.542.1,1.079.23l.439.114.122.034.188.053c.122.034.243.069.365.108l.156.05c.264.082.529.172.793.264l.177.066.235.09.354.143c.138.058.264.116.4.177l.159.069.217.1.193.09.19.1.241.122.193.1c.145.079.293.159.439.243l.185.106c.217.124.431.264.64.389l.172.111.182.119.18.122h.013l.119.082c.264.177.5.362.753.553l.174.137c.114.09.23.182.344.264.055.045.114.093.169.143l.169.143.219.2c.074.066.148.132.219.2l.124.114h0a.121.121,0,0,1,.018.019c.071.063.14.132.212.2l.1.093c.037.04.074.077.114.114l.209.214c.106.108.212.219.315.333.061.063.122.13.18.2.1.111.2.222.3.336l.312.373c.357.439.69.888,1,1.348l.127.193c.048.069.09.137.135.206l.114.177c.063.1.127.2.188.307l.167.286c.034.058.069.116.1.174l.077.137.077.137.111.209.108.209q.373.73.677,1.489l.087.214c.082.209.159.415.233.627l.066.19c.029.09.061.18.087.264s.053.161.077.243l.048.153c.024.074.045.148.066.222s.05.182.077.264c.04.148.077.3.114.447l.056.233c.026.111.05.222.074.333a.682.682,0,0,0,.029.143c.011.048.026.127.037.19s.021.1.029.151l.024.127a.238.238,0,0,0,.021.119c.021.04,0,.077.018.116l.04.238a1.472,1.472,0,0,0,.034.238c.013.079.024.177.034.264s.021.169.029.264l.016.145c0,.087.018.175.026.264v.13c0,.09.016.18.021.264a.041.041,0,0,1,0,.019v.341a2.071,2.071,0,0,0,.013.286h0v.293A3.377,3.377,0,0,1,550.924,45.03Z" transform="translate(-394.892 -25.61)" fill="#ff6584"/>
    <path id="Path_3598" data-name="Path 3598" d="M552.382,45.03V45.5a3.05,3.05,0,0,1-.019.407V46c0,.114-.013.227-.024.338v.1a.364.364,0,0,1,0,.053,3.056,3.056,0,0,1-.026.309c-.011.1-.018.164-.026.249-.024.2-.05.407-.082.611-.018.135-.04.264-.061.4a.116.116,0,0,0,0,.029c-.013.066-.024.132-.037.2s-.013.077-.021.116a.29.29,0,0,1-.021.106,1.352,1.352,0,0,0-.042.212c-.016.069-.029.14-.045.212s-.021.1-.034.156-.04.177-.061.264a.035.035,0,0,0,0,.016l-.048.182-.056.222c-.024.09-.05.18-.074.264a.092.092,0,0,1-.021.071l-.079.264c-.085.28-.177.561-.264.838l-.1.264-.055.145A19.129,19.129,0,0,0,542.851,31q-.516-.328-1.042-.619a19.111,19.111,0,0,0-22.765,3.268,19.157,19.157,0,0,0-2.335-1.983h0a18.826,18.826,0,0,0-1.978-1.253,19.156,19.156,0,0,0-18.407,0,18.9,18.9,0,0,0-2.715,1.814,19.528,19.528,0,0,0-4.759,5.571.1.1,0,0,1,0,.024,18.158,18.158,0,0,0-.817,1.637c-.137.307-.264.619-.383.931.029-.122.061-.243.093-.362.016-.061.032-.124.048-.182s.018-.074.029-.111l.079-.264h0c.063-.209.127-.418.2-.627l.1-.286c.143-.4.3-.793.465-1.2l.1-.235c.053-.119.106-.238.161-.357.09-.19.182-.381.264-.568l.024-.042h0c.042-.087.087-.169.132-.264l.156-.288c.066-.119.135-.238.2-.357.032-.056.066-.111.1-.169s.04-.061.058-.1a.117.117,0,0,0,0-.019h0c.042-.069.085-.137.13-.206s.1-.156.148-.233c.111-.172.225-.344.341-.513l.124-.177.156-.214c.053-.077.108-.151.167-.225l.2-.264c.063-.077.124-.156.185-.233l.066-.079.135-.164c.069-.085.14-.167.212-.249l.093-.108.016-.019.161-.18.18-.2c.169-.182.344-.365.529-.529l.209-.206.325-.307c.071-.066.143-.132.217-.2s.169-.153.264-.227l.169-.143c.056-.05.114-.1.169-.143a4.28,4.28,0,0,1,.344-.264l.174-.137c.291-.222.584-.436.886-.642l.18-.122.182-.119.172-.111.264-.159.127-.077.185-.108c.249-.145.5-.286.748-.418l.151-.079.233-.119.193-.1.193-.09.193-.093.2-.087.2-.085c.264-.114.529-.219.793-.32l.177-.116.212-.077.188-.066.159-.053.365-.116.188-.058.151-.042.148-.042q.132-.04.264-.071l.349-.09c.36-.087.722-.167,1.084-.233l.148-.026.206-.034.211-.034.264-.04.156-.021c.349-.045.7-.082,1.058-.108h2.456a1.524,1.524,0,0,1,.264.016h.18c.28.021.561.05.838.082l.375.05.264.037.209.034.209.034.137.024q.542.1,1.079.23l.439.114.122.034.188.053c.122.034.243.069.362.108l.159.05q.4.122.793.264l.18.066.235.09.354.143c.138.058.264.116.4.177l.159.069.217.1.193.09.19.1.241.122.19.1c.148.079.3.159.442.243l.185.106c.217.124.428.264.64.389l.172.111.182.119.18.122h0l.119.082c.264.177.505.362.754.553l.174.137c.114.09.23.182.344.264.056.045.114.093.169.143l.169.143.264.227c.074.063.145.13.217.2l.3.323.209.206.212-.206.323-.307c.071-.066.143-.132.217-.2s.169-.153.264-.227l.169-.143c.056-.05.114-.1.169-.143a4.263,4.263,0,0,1,.344-.264l.174-.137c.291-.222.584-.436.886-.642l.18-.122.182-.119.172-.111.251-.159.127-.077.185-.108c.249-.145.5-.286.748-.418l.151-.079.233-.119.193-.1.193-.09.193-.093.2-.087.2-.085c.264-.114.529-.219.793-.32.063-.024.13-.05.2-.071l.209-.077.19-.066.156-.053.365-.116.188-.058.151-.042.148-.042c.087-.026.174-.05.264-.071l.346-.09c.36-.087.722-.167,1.084-.233l.148-.026.206-.034.212-.034.264-.04.156-.021c.349-.045.7-.082,1.058-.108h2.432a1.524,1.524,0,0,1,.264.016h.18c.28.021.561.05.838.082l.375.05.264.037.209.034.209.034.138.024q.542.1,1.079.23l.439.114.122.034.188.053c.122.034.243.069.365.108l.156.05c.264.082.529.172.793.264l.177.066.235.09.354.143c.137.058.264.116.4.177l.159.069.217.1.193.09.19.1.241.122.193.1c.145.079.293.159.439.243l.185.106c.217.124.431.264.64.389l.172.111.182.119.18.122h.013l.119.082c.264.177.505.362.754.553l.174.137c.114.09.23.182.344.264.056.045.114.093.169.143l.169.143.219.2c.074.066.148.132.219.2l.124.114h0a.119.119,0,0,1,.018.019c.071.063.14.132.212.2l.1.093c.037.04.074.077.114.114l.209.214c.106.108.212.219.315.333.061.063.122.13.18.2.1.111.2.222.3.336l.312.373c.357.439.69.888,1,1.348l.127.193c.048.069.09.137.135.206l.114.177c.063.1.127.2.188.307l.167.286c.034.058.069.116.1.174l.077.137.077.137.111.209.108.209q.373.73.677,1.489l.087.214c.082.209.159.415.233.627l.066.19c.029.09.061.18.087.264s.053.161.077.243l.048.153c.024.074.045.148.066.222s.05.182.077.264c.04.148.077.3.114.447l.055.233c.026.111.05.222.074.333a.686.686,0,0,0,.029.143c.011.048.026.127.037.19s.021.1.029.151l.024.127a.238.238,0,0,0,.021.119c.021.04,0,.077.019.116l.04.238a1.479,1.479,0,0,0,.034.238c.013.079.024.177.034.264s.021.169.029.264l.016.145c0,.087.018.175.026.264v.13c0,.09.016.18.021.264a.04.04,0,0,1,0,.019v.341a2.071,2.071,0,0,0,.013.286h0v.293A3.384,3.384,0,0,1,552.382,45.03Z" transform="translate(-396.351 -25.61)" opacity="0.1"/>
    <path id="Path_3599" data-name="Path 3599" d="M844.391,305.242v.42a.035.035,0,0,1,0,.016v.169l-.024.188a.973.973,0,0,1-.018.122h0v.1a.138.138,0,0,1,0,.032v.066a.536.536,0,0,1-.013.063q0,.024,0,.048a.15.15,0,0,1-.018.082h0l-.016.056-.016.066-.024.082v.024a.549.549,0,0,1-.026.082c-.024.087-.053.172-.082.264a.3.3,0,0,1-.029.082.322.322,0,0,1-.019.045,5.7,5.7,0,0,1-.772,1.409l-.061.082a5.821,5.821,0,0,1-.5.563l-8.342,8.26-8.252-8.252a5.9,5.9,0,0,1-.648-.767,6.048,6.048,0,0,1-.336-.529,5.859,5.859,0,0,1-.706-3.318,2.161,2.161,0,0,1,.037-.317c.026-.185.061-.37.106-.553a.425.425,0,0,1,.026-.111l.016-.056v-.034l.024-.082h0c.018-.063.04-.127.061-.19s.019-.058.029-.087q.063-.188.143-.365l.032-.074.048-.108c.029-.058.056-.116.087-.172v-.013h0l.042-.077.048-.087c.018-.037.04-.074.061-.111l.032-.05.016-.029h0c0-.021.024-.042.037-.063s.032-.048.045-.071.069-.106.106-.156l.037-.056.048-.066.05-.066.063-.082.056-.071.021-.024.04-.05.066-.077.026-.032h0l.05-.056c.016-.021.037-.04.056-.061s.1-.111.159-.167l.063-.061.1-.1.066-.061.079-.069.05-.042.053-.045.1-.085.056-.042c.087-.066.177-.132.264-.2l.056-.037.053-.037.053-.032.079-.05.037-.021.058-.034c.074-.045.151-.087.227-.127l.045-.024.071-.037.058-.029.061-.029.058-.026.058-.026.061-.026.241-.1.061-.021.063-.024.058-.021.048-.016.111-.034.058-.019.045-.013.045-.013.082-.021.106-.026c.108-.029.219-.053.331-.071h.3c.106-.013.212-.026.32-.034h.886l.264.026.116.016h.246c.111.018.219.042.331.069l.132.034h.037l.058.016.111.034.048.013c.082.026.161.053.241.085l.056.019.071.029.108.042.122.053.05.024.066.029.058.029.058.029.074.037.058.032.135.071.056.034c.066.037.132.077.2.119l.053.032.056.037.056.037h0l.037.026.23.167a.41.41,0,0,0,.053.042l.106.085.05.045.053.042.077.069.066.061.1.1a.721.721,0,0,1,.066.061.469.469,0,0,1,.063-.061l.1-.1.066-.061.077-.069.053-.042.05-.045.106-.085a.4.4,0,0,0,.053-.042l.264-.2.055-.037.056-.037.053-.032.077-.05.04-.021.055-.034q.114-.069.23-.127l.045-.024.071-.037.058-.029.058-.029.061-.026.058-.026.061-.026.241-.1.061-.021.063-.024.058-.021.048-.016.111-.034.058-.018.045-.013.045-.013.079-.021.106-.026q.167-.042.333-.071h.3c.108-.013.214-.026.32-.034h.886l.264.026a.276.276,0,0,1,.114.016h.249c.108.019.219.042.328.069l.135.034h.037l.058.016.111.034.048.013c.079.026.161.053.241.085l.053.018.071.029.108.042.124.053.048.024.066.029.061.029.058.029.071.037.061.032.132.071.058.034c.066.037.13.077.2.119l.053.032.053.037.055.037h0l.034.026q.119.079.23.167l.056.042.1.085.053.045.05.042.069.061.066.061.037.034h0l.063.061.029.026.034.034.063.066.1.1c.019.021.037.04.053.061l.093.1.1.114a4.386,4.386,0,0,1,.307.412l.04.058.04.063.034.053.058.1.05.085.032.056.024.042.021.042a.457.457,0,0,1,.034.061l.032.066c.077.148.145.3.209.452,0,.024.018.045.026.066l.071.19a.079.079,0,0,0,.019.061c.018.021.018.053.029.082a.61.61,0,0,1,.021.074l.016.045a.33.33,0,0,0,.018.069l.024.085c.013.045.024.09.034.135a.7.7,0,0,1,.018.071.712.712,0,0,0,.021.1.1.1,0,0,1,0,.042v.767h0v.05a.333.333,0,0,0,0,.053v.087h0v.09C844.232,305.091,844.394,305.183,844.391,305.242Z" transform="translate(-644.118 -226.901)" fill="#ff6584"/>
    <path id="Path_3600" data-name="Path 3600" d="M845.111,305.183v.42a.035.035,0,0,1,0,.016v.169l-.024.188a.974.974,0,0,1-.018.122h0v.1a.138.138,0,0,1,0,.032v.066a.533.533,0,0,1-.013.063q0,.024,0,.048a.15.15,0,0,1-.018.082h0l-.016.056-.016.066-.024.082v.024a.547.547,0,0,1-.026.082c-.024.087-.053.172-.082.264a.3.3,0,0,1-.029.082.322.322,0,0,1-.019.045,5.677,5.677,0,0,0,.161-1.414,5.849,5.849,0,0,0-2.7-4.878c-.106-.069-.212-.13-.32-.19a5.851,5.851,0,0,0-5.616,0,6.073,6.073,0,0,0-.555.346,5.82,5.82,0,0,0-.761.645,5.915,5.915,0,0,0-.714-.608h0a6.078,6.078,0,0,0-.6-.383,5.817,5.817,0,0,0-6.449.555,6.235,6.235,0,0,0-.487.436,5.755,5.755,0,0,0-.64.759c-.116.164-.225.333-.323.505h0a5.5,5.5,0,0,0-.249.5c-.042.1-.082.19-.116.286a.424.424,0,0,1,.026-.111l.016-.056v-.034l.024-.082h0c.018-.063.04-.127.061-.19s.018-.058.029-.087q.063-.188.143-.365l.032-.074.048-.108c.029-.058.056-.116.087-.172v-.013h0l.042-.077.048-.087c.018-.037.04-.074.061-.111l.032-.05.016-.029h0c0-.021.024-.042.037-.063s.032-.048.045-.071.069-.106.106-.156l.037-.056.048-.066.05-.066.063-.082.055-.071.021-.024.04-.05.066-.077.026-.032h0l.05-.056c.016-.021.037-.04.055-.061s.1-.111.159-.167l.063-.061.1-.1.066-.061.079-.069.05-.042.053-.045.1-.085.055-.042c.087-.066.177-.132.264-.2l.056-.037.053-.037.053-.032.079-.05.037-.021.058-.034c.074-.045.151-.087.227-.127l.045-.024.071-.037.058-.029.061-.029.058-.026.058-.026.061-.026.241-.1.061-.021.063-.024.058-.021.048-.016.111-.034.058-.018.045-.013.045-.013.082-.021.106-.026c.108-.029.219-.053.331-.071h.3c.106-.013.212-.026.32-.034h.886l.264.026.116.016h.246c.111.018.219.042.331.069l.132.034h.037l.058.016.111.034.048.013c.082.026.161.053.241.085l.056.019.071.029.108.042.122.053.05.024.066.029.058.029.058.029.074.037.058.032.135.071.055.034c.066.037.132.077.2.119l.053.032.056.037.056.037h0l.037.026.23.167a.412.412,0,0,0,.053.042l.106.085.05.045.053.042.077.069.066.061.1.1a.725.725,0,0,1,.066.061.458.458,0,0,1,.063-.061l.1-.1.066-.061.077-.069.053-.042.05-.045.106-.085a.419.419,0,0,0,.053-.042l.264-.2.056-.037.056-.037.053-.032.077-.05.04-.021.056-.034q.114-.069.23-.127l.045-.024.071-.037.058-.029.058-.029.061-.026.058-.026.061-.026.241-.1.061-.021.063-.024.058-.021.048-.016.111-.034.058-.018.045-.013.045-.013.079-.021.106-.026q.167-.042.333-.071h.3c.108-.013.214-.026.32-.034h.886l.264.026a.276.276,0,0,1,.114.016h.249c.108.018.219.042.328.069l.135.034h.037l.058.016.111.034.048.013c.079.026.161.053.241.085l.053.018.071.029.108.042.124.053.048.024.066.029.061.029.058.029.071.037.061.032.132.071.058.034c.066.037.13.077.2.119l.053.032.053.037.056.037h0l.034.026q.119.079.23.167l.055.042.1.085.053.045.05.042.069.061.066.061.037.034h0l.063.061.029.026.034.034.063.066.1.1c.018.021.037.04.053.061l.093.1.1.114a4.385,4.385,0,0,1,.307.412l.04.058.04.063.034.053.058.1.05.085.032.056.024.042.021.042a.448.448,0,0,1,.034.061l.032.066c.077.148.145.3.209.452,0,.024.018.045.026.066l.071.19a.079.079,0,0,0,.018.061c.018.021.018.053.029.082a.611.611,0,0,1,.021.074l.016.045a.331.331,0,0,0,.018.069l.024.085c.013.045.024.09.034.135a.7.7,0,0,1,.019.071.72.72,0,0,0,.021.1.1.1,0,0,1,0,.042v.767h0v.05a.348.348,0,0,0,0,.053v.087h0v.09C845.047,305.011,845.113,305.125,845.111,305.183Z" transform="translate(-644.838 -226.842)" opacity="0.1"/>
    <path id="Path_3601" data-name="Path 3601" d="M700.012,263.751v.539a.713.713,0,0,1,0,.074.5.5,0,0,1-.024.188c-.024.061,0,.082-.019.122h0a.482.482,0,0,1,0,.061.208.208,0,0,1,0,.037v.1l-.016.063a.3.3,0,0,1,0,.048.754.754,0,0,1-.018.082h0a.421.421,0,0,0,0,.056.652.652,0,0,0-.018.069l-.024.082a.062.062,0,0,1,0,.021l-.024.085c-.026.085-.053.172-.085.264a.241.241,0,0,1-.029.079l-.016.045a5.815,5.815,0,0,1-.775,1.412l-.061.079a5.811,5.811,0,0,1-.494.566l-8.252,8.249-8.252-8.249a5.854,5.854,0,0,1-.645-.769,5.706,5.706,0,0,1-.338-.529,5.817,5.817,0,0,1-.7-3.316,2.527,2.527,0,0,1,.034-.317c.026-.188.061-.37.106-.555a.388.388,0,0,1,.029-.108.372.372,0,0,1,.013-.058.145.145,0,0,1,0-.032l.024-.085h0c.018-.063.037-.127.058-.19l.032-.087c.042-.124.09-.246.14-.368l.032-.071c.016-.037.032-.074.05-.108s.056-.116.085-.174v-.013h0l.04-.079.048-.087.063-.108a.529.529,0,0,1,.029-.053l.018-.029h0l.04-.063c.013-.024.029-.048.045-.071l.1-.156.04-.053.048-.066.05-.069.061-.082a.731.731,0,0,1,.058-.069.223.223,0,0,1,.019-.026l.042-.048.063-.077.029-.034h0l.048-.056.056-.061.159-.164.063-.063.1-.093a.717.717,0,0,1,.066-.061l.077-.069.053-.045.05-.042.106-.085.053-.042c.087-.069.18-.135.264-.2l.056-.037.056-.037.053-.034.077-.048.037-.024.058-.034c.074-.042.151-.087.227-.127l.048-.024-.005-.061.058-.029.058-.026.058-.029.061-.026.058-.026.243-.1.058-.021.063-.024.058-.018.05-.016.111-.037.055-.016.048-.013.045-.013.079-.024.106-.026.33-.071h.3c.106-.013.214-.024.32-.032h.886a2.389,2.389,0,0,1,.264.024l.114.016h.246c.111.021.222.045.331.071l.135.034h.037a.443.443,0,0,1,.056.016l.111.032.05.016.238.082.056.021.071.026.108.045.124.053.048.021.066.032.058.026.058.029.074.037.058.032.135.074.058.032.193.119.053.034.056.037.056.037h0l.037.024c.079.056.156.111.23.169a.408.408,0,0,1,.053.042c.037.026.071.056.106.085l.053.042.05.045.077.069a.717.717,0,0,1,.066.061l.1.093.063.063.063-.063.1-.093.066-.061.079-.069.05-.045.053-.042c.034-.029.069-.058.106-.085a.411.411,0,0,1,.053-.042c.087-.069.177-.135.264-.2l.056-.037.056-.037.05-.034.079-.048.037-.024.058-.034c.074-.042.151-.087.227-.127l.045-.024.071-.037.061-.029.058-.026.058-.029.061-.026.058-.026.241-.1.061-.021.063-.024.058-.018.048-.016.111-.037.058-.016.045-.013.045-.013.082-.024.106-.026c.111-.026.219-.05.331-.071h.3c.106-.013.211-.024.32-.032h.886l.264.024.114.016h.246c.111.021.219.045.33.071l.135.034h.034a.373.373,0,0,1,.058.016l.111.032.048.016.241.082.055.021.071.026.108.045.124.053.048.021.066.032.058.026.058.029.074.037.058.032.135.074.056.032.2.119.053.034.055.037.056.037h0l.037.024.23.169.053.042.106.085.05.042.053.045.066.058.069.061.037.037h0l.066.061.029.029.034.034.063.063.1.1.056.061c.032.032.061.066.09.1l.1.114a4.768,4.768,0,0,1,.307.412l.04.058.04.063a.622.622,0,0,1,.034.056,1.092,1.092,0,0,1,.058.093c.018.032.034.058.05.087l.032.053.024.042.024.042.032.063c0,.021.024.042.034.063a4.984,4.984,0,0,1,.206.455.486.486,0,0,1,.026.066q.04.1.071.19a.173.173,0,0,0,.021.058l.026.082.024.074a.066.066,0,0,0,.013.048c.013.016,0,.045.021.066l.024.085a.655.655,0,0,0,.034.137l.016.071.024.1v.045a.385.385,0,0,1,0,.058.263.263,0,0,1,0,.045.205.205,0,0,1,0,.04v.071a.663.663,0,0,1,0,.071.713.713,0,0,1,0,.074.167.167,0,0,0,.013.079v.325h0v.193h0v.087C700.012,263.629,700.012,263.687,700.012,263.751Z" transform="translate(-537.989 -196.358)" fill="#ff6584"/>
    <path id="Path_3602" data-name="Path 3602" d="M700.168,263.751v.539a.681.681,0,0,1,0,.074.5.5,0,0,1-.024.188c-.024.061,0,.082-.018.122h0a.482.482,0,0,1,0,.061.2.2,0,0,1,0,.037v.1l-.016.063a.31.31,0,0,1,0,.048.769.769,0,0,1-.019.082h0a.421.421,0,0,0,0,.056.667.667,0,0,0-.018.069l-.024.082a.063.063,0,0,1,0,.021l-.024.085c-.026.085-.053.172-.085.264a.24.24,0,0,1-.029.079l-.016.045a5.842,5.842,0,0,0-2.546-6.293c-.1-.066-.209-.13-.317-.188a5.841,5.841,0,0,0-5.618,0,5.215,5.215,0,0,0-.553.346,5.619,5.619,0,0,0-.764.642,5.951,5.951,0,0,0-.714-.608h0a5.768,5.768,0,0,0-.6-.381,5.843,5.843,0,0,0-6.935.989,5.752,5.752,0,0,0-.751.759c-.116.164-.222.333-.32.505h0c-.09.164-.174.33-.249.5-.042.093-.079.188-.116.283a.386.386,0,0,1,.029-.108.365.365,0,0,1,.013-.058.145.145,0,0,1,0-.032l.024-.085h0c.018-.063.037-.127.058-.19l.032-.087c.042-.124.09-.246.14-.368l.032-.071c.016-.037.032-.074.05-.108s.056-.116.085-.175v-.013h0l.04-.079.048-.087.063-.108a.521.521,0,0,1,.029-.053l.018-.029h0l.04-.063c.013-.024.029-.048.045-.071l.1-.156.04-.053.048-.066.05-.069.061-.082a.73.73,0,0,1,.058-.069.226.226,0,0,1,.019-.026l.042-.048.063-.077.029-.034h0l.048-.056.056-.061.159-.164.063-.063.1-.093a.716.716,0,0,1,.066-.061l.077-.069.053-.045.05-.042.106-.085.053-.042c.087-.069.18-.135.264-.2l.055-.037.056-.037.053-.034.077-.048.037-.024.058-.034c.074-.042.151-.087.227-.127l.048-.024.1-.045.058-.029.058-.026.058-.029.061-.026.058-.026.243-.1.058-.021.063-.024.058-.018.05-.016.111-.037.056-.016.048-.013.045-.013.079-.024.106-.026.331-.071h.3c.106-.013.214-.024.32-.032h.886a2.389,2.389,0,0,1,.264.024l.114.016h.246c.111.021.222.045.331.071l.135.034h.037a.437.437,0,0,1,.056.016l.111.032.05.016.238.082.056.021.071.026.108.045.124.053.048.021.066.032.058.026.058.029.074.037.058.032.135.074.058.032.193.119.053.034.056.037.056.037h0l.037.024c.079.056.156.111.23.169a.417.417,0,0,1,.053.042c.037.026.071.056.106.085l.053.042.05.045.077.069a.717.717,0,0,1,.066.061l.1.093.063.063.063-.063.1-.093.066-.061.079-.069.05-.045.053-.042c.034-.029.069-.058.106-.085a.415.415,0,0,1,.053-.042c.087-.069.177-.135.264-.2l.056-.037.056-.037.05-.034.079-.048.037-.024.058-.034c.074-.042.151-.087.227-.127l.045-.024.071-.037.061-.029.058-.026.058-.029.061-.026.058-.026.241-.1.061-.021.063-.024.058-.018.048-.016.111-.037.058-.016.045-.013.045-.013.082-.024.106-.026c.111-.026.219-.05.33-.071h.3c.106-.013.212-.024.32-.032h.886l.264.024.114.016h.246c.111.021.219.045.331.071l.135.034h.034a.373.373,0,0,1,.058.016l.111.032.048.016.241.082.056.021.071.026.108.045.124.053.048.021.066.032.058.026.058.029.074.037.058.032.135.074.055.032.2.119.053.034.056.037.056.037h0l.037.024.23.169.053.042.106.085.05.042.053.045.066.058.069.061.037.037h0l.066.061.029.029.034.034.063.063.1.1.055.061c.032.032.061.066.09.1l.1.114a4.755,4.755,0,0,1,.307.412l.04.058.04.063a.623.623,0,0,1,.034.056,1.075,1.075,0,0,1,.058.093c.019.032.034.058.05.087l.032.053.024.042.024.042.032.063c0,.021.024.042.034.063.077.148.145.3.206.455a.478.478,0,0,1,.026.066q.04.1.071.19a.171.171,0,0,0,.021.058l.026.082.024.074a.066.066,0,0,0,.013.048c.013.016,0,.045.021.066l.024.085a.655.655,0,0,0,.034.137l.016.071.024.1v.045a.385.385,0,0,1,0,.058.263.263,0,0,1,0,.045.205.205,0,0,1,0,.04v.071a.663.663,0,0,1,0,.071.713.713,0,0,1,0,.074.168.168,0,0,0,.013.079v.325h0v.193h0v.087C700.168,263.629,700.168,263.687,700.168,263.751Z" transform="translate(-538.146 -196.358)" opacity="0.1"/>
    <path id="Path_3603" data-name="Path 3603" d="M404.926,285.737a.337.337,0,0,1,0,.05v.479a.765.765,0,0,1,0,.077,1.141,1.141,0,0,1-.024.188c-.011.063,0,.082-.019.122h0a.412.412,0,0,1,0,.061v.135l-.016.063a.3.3,0,0,1,0,.048.134.134,0,0,1-.018.082h0a.422.422,0,0,0-.013.056.618.618,0,0,0-.019.066l-.024.082a.078.078,0,0,1,0,.024l-.024.082c-.026.087-.053.172-.085.264a.743.743,0,0,1-.029.082l-.016.045a5.793,5.793,0,0,1-.775,1.409l-.061.082a5.8,5.8,0,0,1-.494.563l-8.252,8.252-8.252-8.252a5.89,5.89,0,0,1-.648-.767c-.122-.174-.233-.354-.336-.529a5.835,5.835,0,0,1-.7-3.318,2.581,2.581,0,0,1,.034-.317c.026-.185.061-.37.106-.553a.564.564,0,0,1,.026-.111l.016-.056a.17.17,0,0,1,0-.034.312.312,0,0,1,.021-.082h0c.019-.063.037-.127.058-.19s.021-.058.029-.087q.066-.188.143-.365l.032-.074c.016-.034.032-.071.05-.108s.056-.116.085-.172v-.013h0l.04-.077.048-.087.063-.111.029-.05.019-.029h0l.04-.063c.013-.024.029-.048.045-.071l.1-.156.04-.056.048-.066c.016-.021.032-.045.05-.066a.943.943,0,0,1,.061-.082l.058-.071.019-.024.04-.05.066-.077.029-.032h0l.048-.056.056-.061.159-.167.063-.061.1-.1.066-.061.077-.069.053-.042.05-.045.106-.085.053-.042c.087-.066.177-.132.264-.2l.056-.037.056-.037.053-.032a.767.767,0,0,1,.077-.05l.037-.021.058-.034c.074-.045.151-.087.227-.127l.048-.026.024-.037.058-.029.058-.029.058-.026.061-.026.058-.026.243-.1.058-.021.063-.024.058-.021.05-.016.111-.034.056-.018.048-.013h.045l.079-.021.106-.026c.111-.029.219-.053.331-.071h.174l.079-.013h.048c.106,0,.214-.026.32-.034h.878l.264.026.114.013.077.013h.169c.111.019.222.042.331.069l.135.034h.037l.056.016.111.034.048.013c.082.026.161.053.241.085l.056.018.071.029.108.042.124.053.048.024.066.029.058.029.058.029.074.037.058.032.135.071.056.034c.066.037.132.077.2.119l.053.032.056.037.056.037h0a.186.186,0,0,1,.037.026q.116.079.23.167l.053.042.106.085.05.045.053.042.077.069.066.061.1.1.063.061.063-.061.1-.1.066-.061.079-.069.05-.042.053-.045.106-.085.053-.042c.087-.066.177-.132.264-.2l.056-.037.056-.037.05-.032.079-.05.037-.021.058-.034c.074-.045.151-.087.227-.127a.263.263,0,0,0,.045-.026l.071-.034.058-.029.061-.029.058-.026.061-.026.058-.026.241-.1.061-.021.063-.024.058-.021.048-.016.111-.034.058-.018.045-.013h.045l.082-.021.106-.026c.108-.029.219-.053.331-.071h.172l.082-.013h.048c.106,0,.211-.026.32-.034h.886l.264.026.116.013.077.013h.169c.111.019.219.042.331.069l.132.034h.037l.058.016.111.034.048.013c.082.026.161.053.241.085l.056.018.071.029.108.042.122.053.05.024.066.029.058.029.058.029.074.037.058.032.135.071.056.034c.066.037.132.077.2.119l.053.032.056.037.056.037h0l.037.026.23.167.053.042.106.085.05.045.053.042.066.061a.729.729,0,0,1,.066.061l.04.034h0l.066.061.026.026.037.034.063.066.1.1.056.061.09.1.1.114a4.391,4.391,0,0,1,.307.412l.04.058.04.063a.362.362,0,0,1,.034.053c.021.032.04.063.058.1l.05.085.032.056.024.042.024.042.032.061c.013.021.024.045.034.066a4.956,4.956,0,0,1,.206.452l.026.066q.04.1.071.19l.021.061a.367.367,0,0,0,.026.082l.024.074a.057.057,0,0,0,.013.045l.021.069a.792.792,0,0,1,.021.085c.013.045.024.09.037.135l.016.071.024.1v.042a.451.451,0,0,1,0,.058.3.3,0,0,1,0,.048.156.156,0,0,1,0,.037v.145a.671.671,0,0,1,0,.071c0,.026,0,.056,0,.082a.756.756,0,0,1,0,.077v.167a.79.79,0,0,1,0,.082h0a.321.321,0,0,0,0,.05v.14h0v.09C404.8,285.6,404.926,285.679,404.926,285.737Z" transform="translate(-320.914 -212.549)" fill="#ff6584"/>
    <path id="Path_3604" data-name="Path 3604" d="M405.111,285.737a.337.337,0,0,1,0,.05v.479a.765.765,0,0,1,0,.077,1.138,1.138,0,0,1-.024.188c-.011.063,0,.082-.018.122h0a.421.421,0,0,1,0,.061v.135l-.016.063a.3.3,0,0,1,0,.048.134.134,0,0,1-.018.082h0a.422.422,0,0,0-.013.056.611.611,0,0,0-.019.066l-.024.082a.077.077,0,0,1,0,.024l-.024.082c-.026.087-.053.172-.085.264a.743.743,0,0,1-.029.082l-.016.045a5.7,5.7,0,0,0-2.647-6.279c-.1-.069-.212-.13-.317-.19a5.856,5.856,0,0,0-5.618,0,5.687,5.687,0,0,0-.553.346,5.845,5.845,0,0,0-.764.645,5.716,5.716,0,0,0-.714-.608h0a5.8,5.8,0,0,0-.6-.383,5.856,5.856,0,0,0-5.618,0,5.655,5.655,0,0,0-.828.555,5.82,5.82,0,0,0-.489.436,5.755,5.755,0,0,0-.64.759c-.116.164-.222.333-.32.505h0c-.09.164-.175.331-.249.5-.042.1-.079.19-.116.286a.564.564,0,0,1,.026-.111l.016-.056a.17.17,0,0,1,0-.034.312.312,0,0,1,.021-.082h0c.018-.063.037-.127.058-.19s.021-.058.029-.087q.066-.188.143-.365l.032-.074c.016-.034.032-.071.05-.108s.056-.116.085-.172v-.013h0l.04-.077.048-.087.063-.111.029-.05.019-.029h0l.04-.063c.013-.024.029-.048.045-.071l.1-.156.04-.056.048-.066c.016-.021.032-.045.05-.066a.936.936,0,0,1,.061-.082l.058-.071.019-.024.04-.05.066-.077.029-.032h0l.048-.056.056-.061.159-.167.063-.061.1-.1.066-.061.077-.069.053-.042.05-.045.106-.085.053-.042c.087-.066.177-.132.264-.2l.056-.037.056-.037.053-.032a.766.766,0,0,1,.077-.05l.037-.021.058-.034c.074-.045.151-.087.227-.127l.048-.026.119-.037.058-.029.058-.029.058-.026.061-.026.058-.026.243-.1.058-.021.063-.024.058-.021.05-.016.111-.034.056-.018.048-.013h.045l.079-.021.106-.026c.111-.029.219-.053.331-.071h.174l.079-.013h.048c.106,0,.214-.026.32-.034h.878l.264.026.114.013.077.013h.169c.111.019.222.042.33.069l.135.034h.037l.056.016.111.034.048.013c.082.026.161.053.241.085l.056.018.071.029.108.042.124.053.048.024.066.029.058.029.058.029.074.037.058.032.135.071.056.034c.066.037.132.077.2.119l.053.032.056.037.056.037h0a.187.187,0,0,1,.037.026q.116.079.23.167l.053.042.106.085.05.045.053.042.077.069.066.061.1.1.063.061.063-.061.1-.1.066-.061.079-.069.05-.042.053-.045.106-.085.053-.042c.087-.066.177-.132.264-.2l.056-.037.056-.037.05-.032.079-.05.037-.021.058-.034c.074-.045.151-.087.227-.127a.261.261,0,0,0,.045-.026l.071-.034.058-.029.061-.029.058-.026.061-.026.058-.026.241-.1.061-.021.063-.024.058-.021.048-.016.111-.034.058-.018.045-.013h.045l.082-.021.106-.026c.108-.029.219-.053.331-.071h.172l.082-.013h.048c.106,0,.212-.026.32-.034h.886l.264.026.116.013.077.013h.169c.111.019.219.042.331.069l.132.034h.037l.058.016.111.034.048.013c.082.026.161.053.241.085l.056.018.071.029.108.042.122.053.05.024.066.029.058.029.058.029.074.037.058.032.135.071.056.034c.066.037.132.077.2.119l.053.032.056.037.056.037h0l.037.026.23.167.053.042.106.085.05.045.053.042.066.061a.725.725,0,0,1,.066.061l.04.034h0l.066.061.026.026.037.034.063.066.1.1.056.061.09.1.1.114a4.391,4.391,0,0,1,.307.412l.04.058.04.063a.362.362,0,0,1,.034.053c.021.032.04.063.058.1l.05.085.032.056.024.042.024.042.032.061c.013.021.024.045.034.066a4.956,4.956,0,0,1,.206.452l.026.066q.04.1.071.19l.021.061a.367.367,0,0,0,.026.082l.024.074a.057.057,0,0,0,.013.045l.021.069a.8.8,0,0,1,.021.085c.013.045.024.09.037.135l.016.071.024.1v.042a.44.44,0,0,1,0,.058.3.3,0,0,1,0,.048.156.156,0,0,1,0,.037v.145a.663.663,0,0,1,0,.071v.082a.765.765,0,0,1,0,.077v.167a.79.79,0,0,1,0,.082h0a.321.321,0,0,0,0,.05v.14h0v.09C404.989,285.6,405.111,285.679,405.111,285.737Z" transform="translate(-321.099 -212.549)" opacity="0.1"/>
    <path id="Path_3605" data-name="Path 3605" d="M395.245,445.006v.093a.356.356,0,0,1,0,.053v.283a.034.034,0,0,1,0,.016v.169l-.024.188a.279.279,0,0,1-.019.122h0v.1a.135.135,0,0,1,0,.032.492.492,0,0,1-.013.066.536.536,0,0,1-.013.063v.048a.15.15,0,0,1-.019.082h0l-.016.056-.016.069-.024.082v.021a.664.664,0,0,1-.026.085c-.024.085-.053.172-.082.264l-.029.079a.23.23,0,0,1-.019.045,5.711,5.711,0,0,1-.772,1.412l-.061.079a5.813,5.813,0,0,1-.5.563l-8.249,8.252-8.252-8.252a5.89,5.89,0,0,1-.648-.767,6.034,6.034,0,0,1-.336-.529,5.817,5.817,0,0,1-.7-3.318,2.082,2.082,0,0,1,.034-.315c.026-.188.061-.37.106-.555a.425.425,0,0,1,.026-.111l.016-.056v-.032l.024-.085h0c.021-.063.04-.127.061-.19l.029-.087c.045-.124.09-.246.143-.368l-.04-.074.048-.108c.029-.058.056-.116.087-.174v-.013h0l.042-.077.048-.087c.018-.037.04-.074.061-.108l.032-.053.016-.029h0c0-.021.024-.042.037-.063s.032-.048.045-.071l.106-.156c.013-.019.024-.037.037-.053l.048-.066.05-.069.063-.082.056-.071.021-.024.04-.05.066-.077.029-.032h0l.05-.056.077-.066c.05-.056.1-.111.159-.164l.063-.063.1-.1.066-.058.079-.069.05-.045.053-.042c.034-.029.069-.058.106-.085a.415.415,0,0,1,.053-.042c.087-.069.177-.135.264-.2l.056-.037a.4.4,0,0,1,.056-.037l.05-.034.079-.048.037-.024.058-.034c.074-.045.151-.087.227-.127l.045-.024.071-.037.058-.029.061-.026.058-.029.058-.026.061-.026.241-.1.061-.021.063-.024.058-.019.048-.016.111-.037.058-.019.045-.013h.045l.082-.024.106-.026c.108-.026.219-.05.33-.071h.3c.106-.013.212-.024.32-.032h.878l.264.024.116.016h.246c.111.018.219.042.33.069l.132.037h.037l.058.019.111.032.048.016c.082.024.161.053.241.082l.056.021.071.026.108.045.122.053.05.021.066.032.058.026.058.029.074.037.058.032.135.074.056.032c.066.04.132.077.2.119l.053.034.056.037.056.037h0l.037.024.23.169.053.042.106.085.05.042.053.045.077.069.066.058.1.1.066.063.063-.063.1-.1.066-.058.077-.069.053-.045.05-.042.106-.085.053-.042c.09-.069.18-.135.264-.2l.056-.037.056-.037.053-.034.077-.048.04-.024.056-.034.23-.127.045-.024.071-.037.058-.029.058-.026.061-.029.058-.026.061-.026.241-.1.061-.021.063-.024.058-.019.048-.016.111-.037.058-.018.045-.013h.045l.079-.024.108-.026c.108-.026.219-.05.331-.071h.3l.32-.032h.878a2.333,2.333,0,0,1,.264.024l.114.016h.249c.111.019.219.042.328.069l.135.037h.037l.058.019.111.032.048.016c.079.024.161.053.241.082l.053.021.071.026.108.045.124.053.048.021.066.032.061.026.058.029.074.037.058.032c.045.024.09.048.132.074l.058.032.2.119.053.034.056.037.053.037h0l.034.024c.079.056.156.111.23.169l.056.042.1.085.053.042.05.045.069.058.066.061.037.037h0l.063.061.029.029.034.034.063.063.1.1.056.058.09.1.1.114a4.754,4.754,0,0,1,.307.412l.04.058.04.063.034.056.058.093.05.087.032.053.024.042c0,.013.013.029.021.042s.024.042.034.063.021.042.034.063c.074.148.143.3.206.455,0,.021.018.042.026.066l.071.19.019.058a.254.254,0,0,0,.029.082.455.455,0,0,1,.021.074l.016.048.019.066.024.085c.013.045.024.09.034.137a.71.71,0,0,1,.019.071.765.765,0,0,0,.021.1v.809h0v.053a.373.373,0,0,0,0,.053v.087h0v.09C395.1,444.874,395.248,444.948,395.245,445.006Z" transform="translate(-313.784 -329.716)" fill="#ff6584"/>
    <path id="Path_3606" data-name="Path 3606" d="M395.52,445.006v.093a.356.356,0,0,1,0,.053v.283a.034.034,0,0,1,0,.016v.169l-.024.188a.279.279,0,0,1-.019.122h0v.1a.135.135,0,0,1,0,.032.492.492,0,0,1-.013.066.536.536,0,0,1-.013.063v.048a.15.15,0,0,1-.019.082h0l-.016.056-.016.069-.024.082v.021a.664.664,0,0,1-.026.085c-.024.085-.053.172-.082.264l-.029.079a.23.23,0,0,1-.019.045,5.664,5.664,0,0,0,.161-1.415,5.737,5.737,0,0,0-.2-1.467,5.862,5.862,0,0,0-2.506-3.411c-.106-.066-.212-.13-.32-.188a5.835,5.835,0,0,0-5.616,0,8.293,8.293,0,0,0-1.385.991,5.917,5.917,0,0,0-.714-.608h0a6.061,6.061,0,0,0-.6-.381,5.84,5.84,0,0,0-6.449.553,6.241,6.241,0,0,0-.487.436,5.755,5.755,0,0,0-.64.759,5.4,5.4,0,0,0-.32.505h0a5.485,5.485,0,0,0-.249.5c-.042.093-.082.188-.116.283a.425.425,0,0,1,.026-.111l.016-.056v-.032l.024-.085h0c.021-.063.04-.127.061-.19l.029-.087c.045-.124.09-.246.143-.368l.024-.061.048-.108.087-.174v-.013h0l.042-.077.048-.087c.018-.037.04-.074.061-.108l.032-.053.016-.029h0c0-.021.024-.042.037-.063s.032-.048.045-.071l.106-.156c.013-.019.024-.037.037-.053l.048-.066.05-.069.063-.082.056-.071.021-.024.04-.05.066-.077.029-.032h0l.05-.056.077-.066c.05-.056.1-.111.159-.164l.063-.063.1-.1.066-.058.079-.069.05-.045.053-.042c.034-.029.069-.058.106-.085a.415.415,0,0,1,.053-.042c.087-.069.177-.135.264-.2l.056-.037a.4.4,0,0,1,.056-.037l.05-.034.079-.048.037-.024.058-.034c.074-.045.151-.087.227-.127l.045-.024.071-.037.058-.029.061-.026.058-.029.058-.026.061-.026.241-.1.061-.021.063-.024.058-.019.048-.016.111-.037.058-.019.045-.013h.045l.082-.024.106-.026c.108-.026.219-.05.33-.071h.3c.106-.013.212-.024.32-.032h.878l.264.024.116.016h.246c.111.018.219.042.33.069l.132.037H383l.058.019.111.032.048.016c.082.024.161.053.241.082l.056.021.071.026.108.045.122.053.05.021.066.032.058.026.058.029.074.037.058.032.135.074.056.032c.066.04.132.077.2.119l.053.034.056.037.056.037h0l.037.024.23.169.053.042.106.085.05.042.053.045.077.069.066.058.1.1.066.063.063-.063.1-.1.066-.058.077-.069.053-.045.05-.042.106-.085.053-.042c.09-.069.18-.135.264-.2l.056-.037.056-.037.053-.034.077-.048.04-.024.056-.034.23-.127.045-.024.071-.037.058-.029.058-.026.061-.029.058-.026.061-.026.241-.1.061-.021.063-.024.058-.019.048-.016.111-.037.058-.018.045-.013h.045l.079-.024.108-.026c.108-.026.219-.05.331-.071h.3l.32-.032h.878a2.333,2.333,0,0,1,.264.024l.114.016h.249c.111.019.219.042.328.069l.135.037h.037l.058.019.111.032.048.016c.079.024.161.053.241.082l.053.021.071.026.108.045.124.053.048.021.066.032.061.026.058.029.074.037.058.032c.045.024.09.048.132.074l.058.032.2.119.053.034.056.037.053.037h0l.034.024c.079.056.156.111.23.169l.056.042.1.085.053.042.05.045.069.058.066.061.037.037h0l.063.061.029.029.034.034.063.063.1.1.056.058.09.1.1.114a4.754,4.754,0,0,1,.307.412l.04.058.04.063.034.056.058.093.05.087.032.053.024.042c0,.013.013.029.021.042s.024.042.034.063.021.042.034.063c.074.148.143.3.206.455,0,.021.018.042.026.066l.071.19.019.058a.254.254,0,0,0,.029.082.455.455,0,0,1,.021.074l.016.048.019.066.024.085c.013.045.024.09.034.137a.71.71,0,0,1,.019.071.765.765,0,0,0,.021.1v.809h0v.053a.373.373,0,0,0,0,.053v.087h0v.09C395.377,444.874,395.523,444.948,395.52,445.006Z" transform="translate(-314.059 -329.716)" opacity="0.1"/>
    <path id="Path_3607" data-name="Path 3607" d="M494.66,347.494v.066a.15.15,0,0,1,0,.034v.278a.393.393,0,0,1,0,.053l-.016.132-.016.085h0v.042a.1.1,0,0,1,0,.026v.145a.578.578,0,0,0,0,.058h0v.037a.072.072,0,0,1-.013.05l-.016.058v.013l-.016.061c-.019.061-.04.122-.061.18s0,.04-.018.058l-.013.032a4.169,4.169,0,0,1-.545,1l-.045.056a3.809,3.809,0,0,1-.349.4l-5.83,5.83-5.83-5.83a4.135,4.135,0,0,1-1.192-3.265,1.673,1.673,0,0,1,.026-.225,3.872,3.872,0,0,1,.074-.389.431.431,0,0,1,.018-.079.215.215,0,0,0,0-.04v-.024l.016-.058h0c.013-.048.029-.093.042-.135l.021-.063c.032-.087.063-.172.1-.264l.024-.05c0-.026.021-.05.034-.077l.058-.122h0a.561.561,0,0,0,.029-.056l.034-.061a.721.721,0,0,1,.045-.077.169.169,0,0,1,.021-.037v-.021h0l.029-.042.032-.05.074-.111.026-.04.032-.045.037-.05.045-.056a.37.37,0,0,1,.04-.05l.013-.018.029-.034c.016-.018.029-.037.045-.053l.021-.024h0l.034-.037.04-.045.111-.116.045-.045.071-.066a.343.343,0,0,0,.045-.042l.056-.048.037-.032.037-.029.074-.061.037-.029.19-.14.04-.026.04-.024.037-.024.053-.034.029-.016.04-.024c.053-.032.106-.063.161-.09l.032-.019.05-.026.042-.019.042-.021.04-.018.042-.019.042-.018.172-.069.042-.016.045-.016.04-.016h.034l.079-.026h.1l.058-.016.074-.018c.079-.021.156-.037.235-.05h.212c.074,0,.151-.019.225-.024h.627l.18.018h.256c.077.013.156.029.233.048l.1.026h.066l.079.021h.032l.172.058.037.016.05.019.077.032.087.037.034.016.048.021.042.021.04.019.053.026.04.024.1.05.04.024.14.085.037.024.037.024.04.026h0l.026.019c.056.037.108.077.161.119l.037.029.077.061.034.029.037.032.056.048.048.042a.808.808,0,0,0,.069.066l.045.045.045-.045a.808.808,0,0,0,.069-.066l.048-.042.056-.048.037-.032.034-.029.077-.061.037-.029c.061-.048.124-.1.19-.14l.04-.026.037-.024.037-.024.056-.034.026-.016.04-.024c.056-.032.108-.063.164-.09l.032-.018.05-.026.04-.018.042-.021.042-.019.042-.018.042-.019.169-.069.042-.016.045-.016.042-.016h.034l.077-.026h.106l.056-.016.077-.019c.077-.021.156-.037.233-.05h.214c.074,0,.148-.018.225-.024h.627l.18.019h.256l.23.048.1.026h.069l.077.021h.034l.169.058.04.016.05.018.077.032.087.037.034.016.045.021.042.021.042.018.05.026.042.024.1.05.04.024c.048.026.093.056.138.085l.037.024.04.024.04.026h0l.024.018c.056.037.111.077.164.119l.037.029a.822.822,0,0,1,.074.061l.037.029.037.032.048.042.048.042.026.026h0l.045.045.019.018.026.024.045.048.069.071.037.042.063.071.069.082c.077.093.148.19.217.291l.026.04c0,.016.018.032.029.045l.024.04c.013.021.029.042.042.066l.034.061a.264.264,0,0,1,.021.037l.019.029.016.032.024.045.024.045c.053.1.1.212.145.32l.018.048c.019.045.034.087.05.135a.232.232,0,0,1,.013.04.065.065,0,0,0,.021.058l.016.053a.249.249,0,0,0,0,.034.066.066,0,0,0,.013.048l.016.058a.426.426,0,0,0,.026.1c.008.032,0,.034,0,.053l.016.071v.071a.131.131,0,0,0,0,.032v.238a.4.4,0,0,1,0,.056v.029a.394.394,0,0,0,0,.058.105.105,0,0,0,0,.029v.058h0a.188.188,0,0,1,0,.037.174.174,0,0,1,0,.037.518.518,0,0,1,0,.063h0a.518.518,0,0,1,0,.063Z" transform="translate(-391.228 -259.26)" fill="#ff6584"/>
    <path id="Path_3608" data-name="Path 3608" d="M495.053,347.45v.066a.15.15,0,0,1,0,.034v.278a.392.392,0,0,1,0,.053l-.016.132-.016.085h0v.042a.1.1,0,0,1,0,.026v.145a.578.578,0,0,0,0,.058h0v.037a.073.073,0,0,1-.013.05l-.016.058v.013l-.016.061c-.019.061-.04.122-.061.18s0,.04-.018.058l-.013.032a4.112,4.112,0,0,0,.114-1,4.2,4.2,0,0,0-.14-1.039,4.135,4.135,0,0,0-1.058-1.851,4.191,4.191,0,0,0-.706-.566c-.074-.045-.148-.09-.225-.132a4.133,4.133,0,0,0-3.966,0,4.592,4.592,0,0,0-.391.243,4.348,4.348,0,0,0-.529.455,4.227,4.227,0,0,0-.5-.428h0a3.632,3.632,0,0,0-.428-.264,4.133,4.133,0,0,0-3.966,0,4.023,4.023,0,0,0-.584.391,4.193,4.193,0,0,0-.344.307,4.328,4.328,0,0,0-.455.529c-.082.116-.156.235-.225.357h0a3.7,3.7,0,0,0-.177.354c-.029.066-.056.132-.082.2a.431.431,0,0,1,.018-.079.215.215,0,0,0,0-.04v-.024l.016-.058h0c.013-.048.029-.093.042-.135l.021-.063c.032-.087.063-.172.1-.264l.024-.05c0-.026.021-.05.034-.077l.058-.122h0a.558.558,0,0,0,.029-.056l.034-.061a.725.725,0,0,1,.045-.077.17.17,0,0,1,.021-.037v-.021h0l.029-.042.032-.05.074-.111.026-.04.032-.045.037-.05.045-.056a.368.368,0,0,1,.04-.05l.013-.019.029-.034c.016-.019.029-.037.045-.053l.021-.024h0l.034-.037.04-.045.111-.116.045-.045.071-.066a.34.34,0,0,0,.045-.042l.056-.048.037-.032.037-.029.074-.061.037-.029.19-.14.04-.026.04-.024.037-.024.053-.034.029-.016.04-.024c.053-.032.106-.063.161-.09l.032-.018.05-.026.042-.019.042-.021.04-.018.042-.019.042-.019.172-.069.042-.016.045-.016.04-.016h.034l.079-.026h.1l.058-.016.074-.018c.079-.021.156-.037.235-.05h.212c.074,0,.151-.019.225-.024h.627l.18.018h.256c.077.013.156.029.233.048l.1.026h.066l.079.021h.032l.172.058.037.016.05.019.077.032.087.037.034.016.048.021.042.021.04.018.053.026.04.024.1.05.04.024.14.085.037.024.037.024.04.026h0l.026.018c.056.037.108.077.161.119l.037.029.077.061.034.029.037.032.056.048.048.042a.822.822,0,0,0,.069.066l.045.045.045-.045a.818.818,0,0,0,.069-.066l.048-.042.056-.048.037-.032.034-.029.077-.061.037-.029c.061-.048.124-.1.19-.14l.04-.026.037-.024.037-.024.056-.034.026-.016.04-.024c.055-.032.108-.063.164-.09l.032-.019.05-.026.04-.018.042-.021.042-.018.042-.018.042-.019.169-.069.042-.016.045-.016.042-.016h.034l.077-.026h.106l.056-.016.077-.018c.077-.021.156-.037.233-.05h.214c.074,0,.148-.018.225-.024h.627l.18.019h.256l.23.048.1.026h.069l.077.021h.034l.169.058.04.016.05.018.077.032.087.037.034.016.045.021.042.021.042.019.05.026.042.024.1.05.04.024c.048.026.093.056.138.085l.037.024.04.024.04.026h0l.024.019c.056.037.111.077.164.119l.037.029a.821.821,0,0,1,.074.061l.037.029.037.032.048.042.048.042.026.026h0l.045.045.019.019.026.024.045.048.069.071.037.042.063.071.069.082c.077.093.148.19.217.291l.026.04c0,.016.019.032.029.045l.024.04c.013.021.029.042.042.066l.034.061a.263.263,0,0,1,.021.037l.019.029.016.032.024.045.024.045c.053.1.1.212.145.32l.018.048c.019.045.034.087.05.135a.229.229,0,0,1,.013.04.065.065,0,0,0,.021.058l.016.053a.254.254,0,0,0,0,.034.066.066,0,0,0,.013.048l.016.058a.427.427,0,0,0,.026.1c.008.032,0,.034,0,.053l.016.071v.071a.131.131,0,0,0,0,.032v.238a.392.392,0,0,1,0,.056v.029a.394.394,0,0,0,0,.058.107.107,0,0,0,0,.029c0,.019,0,.037,0,.058h0a.188.188,0,0,1,0,.037.177.177,0,0,1,0,.037.512.512,0,0,1,0,.063h0a.511.511,0,0,1,0,.063Z" transform="translate(-391.621 -259.215)" opacity="0.1"/>
    <path id="Path_3609" data-name="Path 3609" d="M730.758,431.908v.066a.187.187,0,0,1,0,.037v.106a.633.633,0,0,0,0,.071v.1a.364.364,0,0,1,0,.053l-.016.132v.087h0v.042a.08.08,0,0,1,0,.026v.024a.368.368,0,0,1,0,.045v.138h0a.226.226,0,0,0,0,.04v.048l-.016.058V433a.486.486,0,0,0-.018.058c-.019.061-.037.122-.058.182a.488.488,0,0,0-.021.056l-.013.032a4.122,4.122,0,0,1-.545,1l-.042.056a4.167,4.167,0,0,1-.352.4l-5.83,5.83-5.817-5.83a3.823,3.823,0,0,1-.457-.542,3.77,3.77,0,0,1-.238-.378,4.127,4.127,0,0,1-.5-2.345,1.057,1.057,0,0,1,.024-.222,3.907,3.907,0,0,1,.074-.391.114.114,0,0,1,.021-.079.221.221,0,0,1,0-.04.076.076,0,0,1,0-.024l.016-.058h0a.531.531,0,0,1,.042-.135.593.593,0,0,0,.021-.063c.032-.087.066-.172.1-.264l.024-.053a.216.216,0,0,1,.034-.077c.013-.026.04-.082.061-.122h0l.026-.056.034-.061c.016-.026.029-.053.045-.077a.263.263,0,0,1,.021-.037v-.021h0c0-.016.018-.032.029-.045l.032-.05.074-.111.026-.037.034-.048.034-.048.045-.058.04-.05v-.019l.029-.034.045-.053.021-.024h0l.034-.04.04-.042c.037-.04.074-.079.114-.116a.361.361,0,0,1,.045-.045.812.812,0,0,1,.069-.066l.048-.042a.479.479,0,0,1,.053-.05l.037-.032.037-.029.074-.061.037-.029c.063-.048.127-.1.19-.137l.04-.026.04-.026.037-.024.056-.034.026-.016.04-.024.161-.09.032-.019.05-.024.042-.021.042-.019.042-.021.04-.018.042-.019.172-.069.042-.016.045-.016.04-.013.034-.013.079-.024h.1l.058-.016.074-.019c.079-.019.156-.037.235-.05h.211l.227-.024h.624l.182.019h.254a2.267,2.267,0,0,1,.233.05l.1.024h.066l.079.024h.034l.169.058h.037l.05.019.077.032.087.037.034.016.048.024.042.018.04.021.053.026.042.021.093.053.042.021.138.085.037.024.04.026.037.026h0l.026.018.161.119.04.029.074.061.037.029.034.032.056.05.048.042.069.066a.361.361,0,0,1,.045.045c.016-.016.029-.032.045-.045l.071-.066a.341.341,0,0,1,.045-.042l.055-.05.037-.032.037-.029.074-.061.037-.029c.063-.048.127-.1.19-.137l.04-.026.04-.026.037-.024.053-.034.029-.016.04-.024.161-.09.032-.019.05-.024.042-.021.04-.018.042-.021.042-.019.042-.018.169-.069.042-.016.045-.016.042-.013.034-.013.079-.024h.1l.058-.016.074-.018c.077-.019.156-.037.233-.05h.214l.225-.024h.627l.18.018h.256c.077.013.156.029.233.05l.1.024h.066l.077.024h.034l.169.058h.04l.05.018.077.032.087.037.034.016.048.024.04.019.042.021.053.026.04.021.1.053.04.021c.048.026.093.056.138.085l.037.024.04.026.04.026h0l.026.019.161.119.037.029.074.061.037.029.037.032.048.042.048.042a.257.257,0,0,0,.026.026h0c0,.016.029.029.045.045l.021.018.024.026.045.045.069.071.037.042a.842.842,0,0,1,.063.074l.069.079c.077.1.148.19.217.291,0,.013.018.026.026.042l.029.042.024.04c.016.021.029.045.042.066l.034.061.024.037.016.032.016.029.024.045.024.045c.053.106.1.212.145.32a.352.352,0,0,1,.019.048c.018.045.034.09.05.135l.016.042a.455.455,0,0,0,.018.055l.016.053v.082l.016.058a.448.448,0,0,0,.026.1c.008.032,0,.032,0,.05l.016.071v.571h0a.154.154,0,0,0,0,.034v.037a.524.524,0,0,1,0,.063h0a.524.524,0,0,1,0,.063Z" transform="translate(-564.931 -321.337)" fill="#ff6584"/>
    <path id="Path_3610" data-name="Path 3610" d="M731.1,431.923v.066a.187.187,0,0,1,0,.037v.106a.633.633,0,0,0,0,.071v.1a.364.364,0,0,1,0,.053l-.016.132v.087h0v.042a.08.08,0,0,1,0,.026v.024a.345.345,0,0,1,0,.045v.138h0a.226.226,0,0,0,0,.04v.048l-.016.058v.016a.5.5,0,0,0-.019.058c-.018.061-.037.122-.058.182a.488.488,0,0,0-.021.056l-.013.032a4.115,4.115,0,0,0-1.8-4.437c-.074-.048-.148-.093-.225-.135a4.133,4.133,0,0,0-3.966,0,4.047,4.047,0,0,0-.391.246,4.131,4.131,0,0,0-.529.455,4.05,4.05,0,0,0-.5-.431h0a4.788,4.788,0,0,0-.426-.264,4.138,4.138,0,0,0-3.966,0,4.247,4.247,0,0,0-.584.391,3.778,3.778,0,0,0-.344.309,3.9,3.9,0,0,0-.452.529,3.426,3.426,0,0,0-.227.36h0c-.066.116-.124.235-.177.354-.029.066-.056.132-.082.2a.113.113,0,0,1,.021-.079.215.215,0,0,1,0-.04.074.074,0,0,1,0-.024l.016-.058h0a.531.531,0,0,1,.042-.135.593.593,0,0,0,.021-.063c.032-.087.066-.172.1-.264l.024-.053a.216.216,0,0,1,.034-.077c.013-.026.04-.082.061-.122h0l.026-.056.034-.061c.016-.026.029-.053.045-.077a.263.263,0,0,1,.021-.037v-.021h0c0-.016.018-.032.029-.045l.032-.05.074-.111.026-.037.034-.048.034-.048.045-.058.04-.05v-.018l.029-.034.045-.053.021-.024h0l.034-.04.04-.042c.037-.04.074-.079.114-.116a.363.363,0,0,1,.045-.045.822.822,0,0,1,.069-.066l.048-.042a.479.479,0,0,1,.053-.05l.037-.032.037-.029.074-.061.037-.029c.063-.048.127-.1.19-.138l.04-.026.04-.026.037-.024.056-.034.026-.016.04-.024.161-.09.032-.018.05-.024.042-.021.042-.019.042-.021.04-.019.042-.019.172-.069.042-.016.045-.016.04-.013.034-.013.079-.024h.1l.058-.016.074-.018c.079-.018.156-.037.235-.05h.211l.227-.024h.624l.182.019H722a2.275,2.275,0,0,1,.233.05l.1.024h.066l.079.024h.034l.169.058h.037l.05.019.077.032.087.037.034.016.048.024.042.019.04.021.053.026.042.021.093.053.042.021.137.085.037.024.04.026.037.026h0l.026.018.161.119.04.029.074.061.037.029.034.032.056.05.048.042.069.066a.364.364,0,0,1,.045.045c.016-.016.029-.032.045-.045l.071-.066a.345.345,0,0,1,.045-.042l.056-.05.037-.032.037-.029.074-.061.037-.029c.063-.048.127-.1.19-.137l.04-.026.04-.026.037-.024.053-.034.029-.016.04-.024.161-.09.032-.019.05-.024.042-.021.04-.019.042-.021.042-.018.042-.019.169-.069.042-.016.045-.016.042-.013.034-.013.079-.024h.1l.058-.016.074-.018c.077-.019.156-.037.233-.05h.214l.225-.024h.627l.18.019h.256c.077.013.156.029.233.05l.1.024h.066l.077.024h.034l.169.058h.04l.05.019.077.032.087.037.034.016.048.024.04.018.042.021.053.026.04.021.1.053.04.021c.048.026.093.056.138.085l.037.024.04.026.04.026h0l.026.018.161.119.037.029.074.061.037.029.037.032.048.042.048.042a.254.254,0,0,0,.026.026h0c0,.016.029.029.045.045l.021.018.024.026.045.045.069.071.037.042a.853.853,0,0,1,.063.074l.069.079c.077.1.148.19.217.291,0,.013.018.026.026.042l.029.042.024.04c.016.021.029.045.042.066l.034.061.024.037.016.032.016.029.024.045.024.045c.053.106.1.212.145.32a.357.357,0,0,1,.018.048c.018.045.034.09.05.135l.016.042a.456.456,0,0,0,.018.056l.016.053v.082l.016.058a.448.448,0,0,0,.026.1c.008.032,0,.032,0,.05l.016.071v.571h0a.154.154,0,0,0,0,.034v.037a.524.524,0,0,1,0,.063h0a.524.524,0,0,1,0,.063Z" transform="translate(-565.275 -321.352)" opacity="0.1"/>
    <path id="Path_3611" data-name="Path 3611" d="M547.048,267.355h0a30.411,30.411,0,0,0-2.686-2.419c.114-1.417.378-4.809.4-5.462.026-.828-1.192-1.885-3.8-2.861s-1.851,3.575-1.814,3.984a3.068,3.068,0,0,0,1.586,2.057c.352.145.447.328.423.5l-.082-.013a10.2,10.2,0,0,1-3.112-.761,16.434,16.434,0,0,0-.793,3.522v.18a1.359,1.359,0,0,0,.063.613h.182a1.991,1.991,0,0,1-.145.9h0a6.988,6.988,0,0,1-.264.65,18.2,18.2,0,0,1-.124-1.959,16.531,16.531,0,0,0-.968-3.212,4.5,4.5,0,0,1-1.3-1.185,5.2,5.2,0,0,0-2.187-1.65c-.6-.212-2.776-3.043-3.672-3.7-.714-.529-1-.217-1.089-.069l-.053.037a3.133,3.133,0,0,1-.711-1.518c0-.288.029-.88.082-1.631a6.873,6.873,0,0,1,.867.793c.608.674,1.058,1.478,1.721,2.1a2.8,2.8,0,0,0,1.9.83,1.754,1.754,0,0,0,.687-.108c.883-.341,1.452-1.417,2.38-1.459.73.037,1.266.711,1.864,1.155a2.5,2.5,0,0,0,1.536.529,1.751,1.751,0,0,0,.648-.1,1.388,1.388,0,0,0,.843-1.766c-.487-1.026-2.142-.793-2.848-1.687a.7.7,0,0,1-.164-.656.457.457,0,0,1,.428-.312,1.492,1.492,0,0,1,.886.423c.344.349.793.793,1.219.746a.579.579,0,0,0,.346-.066c.013-.315.029-.629.042-.944a3.292,3.292,0,0,0,1.47.418,1.72,1.72,0,0,0,.286-.013,1.15,1.15,0,0,0,1.026-1.132,1.282,1.282,0,0,0,.88.293,1.2,1.2,0,0,0,.423-.053,1.28,1.28,0,0,0,.857-1.1,2.51,2.51,0,0,0-.669-1.586l-1.729-2.364a.957.957,0,0,1-.264-.682,1.42,1.42,0,0,1,.3-.529,1.845,1.845,0,0,0-.36-2.274,3.206,3.206,0,0,0-2.306-.764,3.026,3.026,0,0,1-1.827-.238,2.082,2.082,0,0,1-.714-1.245c-.367-1.391-.389-2.85-.645-4.265a5.852,5.852,0,0,0-1.957-3.731,1.811,1.811,0,0,0-.907-.4,6.433,6.433,0,0,0-.841.069,3.072,3.072,0,0,1-2.4-1.348,21.4,21.4,0,0,0-1.748-2.266,4.266,4.266,0,0,0-4.056-.939c-.619.172-1.11.674-1.75.7a20.928,20.928,0,0,1-2.893-.264,7.992,7.992,0,0,0-2.644.058,2.813,2.813,0,0,0-1.851,1.372l-.225-1.906a33.267,33.267,0,0,0-.674-3.889.969.969,0,0,1,.026-.849l.042.04c.032-.1.066-.193.1-.291a.7.7,0,0,0,0-.222,40.626,40.626,0,0,0-1.229-5.317h-1.179a.947.947,0,0,0-.029-.169,31.921,31.921,0,0,0-1.322-5.494,3.277,3.277,0,0,1-.238-1.777,14.247,14.247,0,0,0,.056-2.1,5.737,5.737,0,0,1,.048-1.01,1.417,1.417,0,0,0-.563-1.322c-1.547-1.147-5.306-3.76-7.506-3.826-2.818-.085.883,4.862.841,5.328s2.818.888,2.818.888.169,1.436.338,2.239c.116.558.312,4.7.423,7.178a7.884,7.884,0,0,1-1.9-.711s-3.281-.886-3.577,0,4,5.158,4,5.158,1.515,4.016,1.058,5.288-.127,7.271-.127,7.271.042,7.139.357,8.963a3.513,3.513,0,0,1-.568,2.832s-.378,4.482,0,4.9a13.094,13.094,0,0,1,1.036,1.663l.111.2c-1.243,1.518-2.477,2.969-3.125,3.173-1.261.381-9.883,3.966-9.883,3.966s-2.816,2.692-3.241,2.692,2.565,2.877,2.565,2.877,2.692,2.155,2.988,2.493,7.668,4.355,7.668,4.355,1.264.381,1.388.761,1.808,1.436,1.808,1.436a10.984,10.984,0,0,1,1.629,2.443.569.569,0,0,0,.019.182c.016.264.034.386.05.323.225.619,1.74,2.2,1.01,3.323-.338.529,0,1.478.653,2.245a8.063,8.063,0,0,1-.687,2.38c-.5.677-.28,1.634-.793,1.748s-.674,2.594-.674,2.594l-.436,5.465s-.114,1.126-.73,1.409,0,1.8,0,1.8-.661,1.3-.264,2.028-.793,4.117-.793,4.117-.505,6.539,0,7.44a7.4,7.4,0,0,1,.793,2.874c0,.563.28,11.1.28,11.1s-.674,4.283-.9,5.071.619,2.538.058,3.437a6.672,6.672,0,0,0-.449,2.93s-.841,7.948-.336,10.88-.161,3.551-.161,3.551a6.009,6.009,0,0,0,1.089.481c.013.111.026.23.04.352.264,2.459.653,6.695.3,7.668a15.457,15.457,0,0,0-.489,3.85v.172h0l-.981,1.586a5.076,5.076,0,0,1-.449,1.623c-.254.225-2.361,4.051-2.644,4.542l-.029.053s-2.131,3.918,3.141,4.029,4.6-2.591,4.6-2.591.016-.529.066-1.177a5.677,5.677,0,0,1,.383-2.009,28.23,28.23,0,0,0,1.43-2.565v-3.1h-.338a.544.544,0,0,1,.019-.169,11.7,11.7,0,0,1,.293-1.917,11.871,11.871,0,0,0-.365-2.763,62.206,62.206,0,0,1,.637-7.435c.024-.127.048-.251.071-.37a8.984,8.984,0,0,0,1.134-.592s0-5.748.674-6.763.531-3.889.531-3.889.167-2.536.672-3.043.386-2.763.386-2.763.447-1.465.952-2.644a22.9,22.9,0,0,0,.793-4.508,5.717,5.717,0,0,1,.793-1.637c.563-.793,0-2.536,0-2.536a3.088,3.088,0,0,1-.222-2.255c.394-1.129,2.578-10.259,2.578-10.259l.843-3.268,1.232,4.17a28.641,28.641,0,0,0,0,3.834,11.966,11.966,0,0,0,1.346,2.644v8.849s.114,5.975.563,6.932a22.258,22.258,0,0,1,.672,4.511s1.515,10.428.561,11.948a9.124,9.124,0,0,0,1.549.849v6.142a18.273,18.273,0,0,0-.724,6.248.991.991,0,0,0,.024.151c-.1.074-.211.137-.28.111l.177,4.23a13.094,13.094,0,0,1-.4,3.583,5.094,5.094,0,0,0-.264,1.343c-.1,1.674.547,3.966,4.23,3.728,4.9-.312,4.148-3.437,4.148-3.437s0-.122-.018-.336a12.742,12.742,0,0,0-1.216-4.6,11.569,11.569,0,0,1-1.007-5.187,1.814,1.814,0,0,1-.3.079.76.76,0,0,1,.013-.172c.063-.793.161-1.822.264-2.3a15.1,15.1,0,0,0,0-2.816l.632-6.174.034-.344a5.062,5.062,0,0,0,.87-.529h0a6.327,6.327,0,0,1-.325-1.719,1.518,1.518,0,0,1,.325-1.087c.73-.732,1.232-9.92,1.232-9.92s.4-3.234.4-4.326v-.2c-.045-.658-.394-3.236-.389-4.741a2.98,2.98,0,0,1,.108-.941c.336-.846.793-16.742.793-16.742l.56-7.044v-5.785a34.125,34.125,0,0,0-1-8.223c1.53.8,4.15,2.6,4.629,2.123.59-.592.883-10.74.714-11.752a1.068,1.068,0,0,0-.04-.206c-.04-.185-.1-.434-.169-.722l.233-.4c1.15-1.991,2.908-5.153,3.049-6.081a40.109,40.109,0,0,1,.764-5.008,2.325,2.325,0,0,1,.114-.283h0c.1-.209.214-.323.341-.291.716.169,1.179.719,1.557.508a.184.184,0,0,0,.05-.042h0a.632.632,0,0,0,.1-.135h0a1.318,1.318,0,0,0,.087-.193h0c.026-.069.05-.145.074-.227v-.024a.492.492,0,0,1,.026-.1.17.17,0,0,0,0-.034.369.369,0,0,1,.021-.09l.016-.066V268.5c.066-.3.116-.608.148-.825a1.1,1.1,0,0,1,.026-.2v-.106Z" transform="translate(-398.7 -155.544)" fill="url(#linear-gradient)"/>
    <path id="Path_3612" data-name="Path 3612" d="M559.318,489.463a.9.9,0,0,0-.058-.473C559.279,489.371,559.3,489.545,559.318,489.463Z" transform="translate(-449.027 -366.341)" fill="url(#linear-gradient-2)"/>
    <path id="Path_3613" data-name="Path 3613" d="M674.732,416.35s1-.682.024-1.084a3.065,3.065,0,0,1-1.586-2.046c-.037-.407-.793-4.934,1.814-3.966s3.826,2.02,3.8,2.845-.45,6.055-.45,6.055Z" transform="translate(-532.724 -307.587)" fill="#fbbebe"/>
    <path id="Path_3614" data-name="Path 3614" d="M674.7,436.282a1.548,1.548,0,0,1-.04.3c-.077.529-.264,1.618-.55,1.774-.378.212-.841-.336-1.557-.5-.127-.029-.238.082-.341.291a2.461,2.461,0,0,0-.114.28,39.885,39.885,0,0,0-.764,4.987c-.143.928-1.9,4.077-3.048,6.057-.172.3-.333.571-.471.793-.317.529-.529.875-.529.875l-2.908-5.452v-8.04a7.141,7.141,0,0,0,.529-1.113h0a1.964,1.964,0,0,0,.145-.9.46.46,0,0,0-.124-.264.317.317,0,0,1-.056-.082.413.413,0,0,1-.026-.069.871.871,0,0,1-.037-.206v-.174a16.342,16.342,0,0,1,.793-3.506,9.836,9.836,0,0,0,3.112.756C670.86,432.337,674.7,436.282,674.7,436.282Z" transform="translate(-526.354 -323.926)" fill="#0264d1"/>
    <path id="Path_3615" data-name="Path 3615" d="M675.861,437.547c-.077.529-.264,1.618-.55,1.774-.378.212-.841-.336-1.557-.505-.127-.029-.238.082-.341.291a2.452,2.452,0,0,0-.114.28c-1.446-.7-3.966-1.978-4.127-2.337s-1.917-.442-2.908-.457h-.18a1.34,1.34,0,0,1-.063-.611,18.349,18.349,0,0,1,.793-3.342,9.836,9.836,0,0,0,3.112.756C671.948,433.629,675.459,437.14,675.861,437.547Z" transform="translate(-527.552 -324.89)" opacity="0.1"/>
    <path id="Path_3616" data-name="Path 3616" d="M675.945,436.263s-.212,1.864-.59,2.073-.841-.336-1.557-.5c-.127-.032-.238.079-.341.288-1.425-.693-4.085-2.025-4.23-2.393s-2.147-.452-3.088-.463c-.346-.724.73-3.966.73-3.966a9.87,9.87,0,0,0,3.112.759C672.125,432.313,675.945,436.263,675.945,436.263Z" transform="translate(-527.597 -323.904)" fill="#0264d1"/>
    <path id="Path_3617" data-name="Path 3617" d="M642.187,445.508c-.59.59-4.418-2.271-5.468-2.44s-4.865-16.149-4.865-16.149l.574-9.005-2.237-8.286-.291-1.084s.222-.661,1.121,0,3.083,3.479,3.672,3.688a5.266,5.266,0,0,1,2.187,1.645,4.455,4.455,0,0,0,1.3,1.177,16.434,16.434,0,0,1,.968,3.2c-.042.629.339,4.923.793,5.3s1.219,3.828,1.219,3.828,1.391,4.846,1.684,6.229a1.959,1.959,0,0,1,.04.206C643.07,434.824,642.776,444.918,642.187,445.508Z" transform="translate(-500.99 -306.948)" fill="#0264d1"/>
    <path id="Path_3618" data-name="Path 3618" d="M646.982,473.33l2.776.743s.529,4.8.724,5.05.872,10.095.872,10.095l-4.373-1.978-1.642-5.288V476.1Z" transform="translate(-512.348 -354.822)" opacity="0.1"/>
    <path id="Path_3619" data-name="Path 3619" d="M556.1,765.006a9.366,9.366,0,0,0-.4,1.586,59.926,59.926,0,0,0-.637,7.4,11.888,11.888,0,0,1,.365,2.75,11.539,11.539,0,0,0-.293,1.906c-.045.412-.071.727-.071.727l-5.135-.336s0-.3.016-.769a15.663,15.663,0,0,1,.489-3.828c.346-.968-.032-5.193-.3-7.641-.114-1.058-.206-1.782-.206-1.782S556.966,762.753,556.1,765.006Z" transform="translate(-442.164 -568.646)" fill="#fbbebe"/>
    <path id="Path_3620" data-name="Path 3620" d="M632.093,766.38l-.632,6.142a14.952,14.952,0,0,1,0,2.8c-.1.479-.193,1.5-.264,2.292-.048.6-.079,1.073-.079,1.073s-3.926,2.75-4.823.336a4.267,4.267,0,0,1-.222-.9,18.1,18.1,0,0,1,.724-6.219V764l5.441.888Z" transform="translate(-498.118 -568.64)" fill="#fbbebe"/>
    <path id="Path_3621" data-name="Path 3621" d="M556.138,765a9.367,9.367,0,0,0-.4,1.586,7.834,7.834,0,0,1-5.552.209c-.114-1.058-.206-1.782-.206-1.782S557,762.751,556.138,765Z" transform="translate(-442.201 -568.644)" opacity="0.1"/>
    <path id="Path_3622" data-name="Path 3622" d="M634.5,764.871l-.153,1.489a6.48,6.48,0,0,1-5.288-.264V763.98Z" transform="translate(-500.372 -568.625)" opacity="0.1"/>
    <path id="Path_3623" data-name="Path 3623" d="M551.815,506.21s-.447,3.31-.952,3.984-.28,1.626-.793,1.737-.674,2.581-.674,2.581l-.428,5.441s-.114,1.121-.73,1.4,0,1.8,0,1.8-.661,1.29-.264,2.02-.793,4.093-.793,4.093-.505,6.507,0,7.4a7.358,7.358,0,0,1,.793,2.861c0,.561.28,11.049.28,11.049s-.674,4.265-.9,5.05.619,2.522.058,3.421a6.59,6.59,0,0,0-.449,2.908s-.867,7.919-.362,10.827-.161,3.532-.161,3.532a7.85,7.85,0,0,0,7.9-.336s0-5.722.674-6.732.563-3.868.563-3.868.167-2.525.672-3.03.386-2.742.386-2.742.447-1.459.952-2.644a22.875,22.875,0,0,0,.793-4.495,5.659,5.659,0,0,1,.793-1.629c.563-.793,0-2.522,0-2.522a3.064,3.064,0,0,1-.222-2.245c.394-1.121,2.578-10.208,2.578-10.208l.843-3.252,1.232,4.151a28.326,28.326,0,0,0,0,3.813,12.093,12.093,0,0,0,1.346,2.644v8.807s.114,5.946.563,6.9a22.085,22.085,0,0,1,.672,4.495s1.515,10.378.561,11.9c0,0,4.32,3.083,7.742.561,0,0-.73-2.076,0-2.805s1.232-9.873,1.232-9.873.449-3.646.394-4.495-.616-4.823-.28-5.663.793-16.657.793-16.657l.561-7.009v-5.737a33.705,33.705,0,0,0-1.269-9.185c-.949-3.345-2.263-7.181-3.368-7.422C572.531,507.032,555.125,508.96,551.815,506.21Z" transform="translate(-439.597 -379.008)" fill="#3f3d56"/>
    <path id="Path_3624" data-name="Path 3624" d="M555.136,815.884c-.045.412-.071.727-.071.727l-5.135-.336s0-.3.016-.769c2.409-2.136,4.809.378,4.809.378Z" transform="translate(-442.164 -605.895)" opacity="0.1"/>
    <path id="Path_3625" data-name="Path 3625" d="M542.884,816.542v3.115a25,25,0,0,1-1.43,2.551,5.58,5.58,0,0,0-.383,2c-.05.635-.066,1.169-.066,1.169s.674,2.694-4.6,2.581-3.141-4.011-3.141-4.011l.029-.05c.264-.492,2.4-4.31,2.644-4.521a5.161,5.161,0,0,0,.449-1.615l.981-1.586c2.414-2.157,4.825.365,4.825.365Z" transform="translate(-429.592 -606.376)" fill="#3f3d56"/>
    <path id="Path_3626" data-name="Path 3626" d="M541,849.28s.674,2.694-4.6,2.581-3.141-4-3.141-4l.029-.05c.145.793.767,1.615,2.747,1.51a12.157,12.157,0,0,0,5.024-1.2C541.02,848.746,541,849.28,541,849.28Z" transform="translate(-429.592 -630.29)" opacity="0.1"/>
    <path id="Path_3627" data-name="Path 3627" d="M631.444,814.1c-.048.6-.079,1.073-.079,1.073s-3.926,2.75-4.823.336a4.265,4.265,0,0,1-.222-.9,2.148,2.148,0,0,0,.222-.19c.642-.952,4.064-.981,4.23-.529C630.876,814.141,631.2,814.141,631.444,814.1Z" transform="translate(-498.357 -605.124)" opacity="0.1"/>
    <path id="Path_3628" data-name="Path 3628" d="M627.77,828.171c-3.7.233-4.339-2.044-4.23-3.7a5.026,5.026,0,0,1,.264-1.335,12.979,12.979,0,0,0,.4-3.567l-.177-4.207c.14.056.479-.28.479-.28.642-.952,4.064-.981,4.23-.529s.954.145.954.145a11.447,11.447,0,0,0,1.007,5.158,12.656,12.656,0,0,1,1.216,4.574c.016.212.018.333.018.333S632.674,827.862,627.77,828.171Z" transform="translate(-496.303 -605.617)" fill="#3f3d56"/>
    <path id="Path_3629" data-name="Path 3629" d="M627.77,856.419c-3.7.233-4.339-2.044-4.23-3.7,0,0,.96,1.631,4.378,1.24a9.6,9.6,0,0,0,3.992-1.288c.016.212.019.333.019.333S632.674,856.11,627.77,856.419Z" transform="translate(-496.303 -633.865)" opacity="0.1"/>
    <g id="Group_10002" data-name="Group 10002" transform="translate(131.398 128.034)" opacity="0.1">
      <path id="Path_3630" data-name="Path 3630" d="M643.194,513.477c-.759-2.168-1.586-3.966-2.337-4.117l-.669.069c.7.375,1.465,2.046,2.165,4.048a41.945,41.945,0,0,1,2.3,13.812V531.7l-.561,7.012s-.449,15.816-.793,16.657.225,4.823.28,5.666-.394,4.495-.394,4.495-.505,9.143-1.232,9.87,0,2.805,0,2.805a5.023,5.023,0,0,1-2.644.976,5.145,5.145,0,0,0,3.493-.976s-.73-2.076,0-2.805,1.232-9.87,1.232-9.87.449-3.646.394-4.495-.616-4.825-.28-5.666.793-16.657.793-16.657l.561-7.012v-4.415A41.945,41.945,0,0,0,643.194,513.477Z" transform="translate(-639.31 -509.36)"/>
    </g>
    <g id="Group_10003" data-name="Group 10003" transform="translate(106.862 127.202)" opacity="0.1">
      <path id="Path_3631" data-name="Path 3631" d="M547.52,576.323s.666-.619.161-3.535.336-10.824.336-10.824a6.575,6.575,0,0,1,.449-2.908c.561-.888-.28-2.644-.058-3.421s.9-5.05.9-5.05-.288-10.494-.288-11.057a7.337,7.337,0,0,0-.793-2.858c-.505-.9,0-7.4,0-7.4s1.177-3.366.793-4.093.264-2.02.264-2.02-.616-1.515,0-1.8.73-1.4.73-1.4l.447-5.441s.169-2.467.674-2.581.28-1.058.793-1.737a12.634,12.634,0,0,0,.875-3.458,3.5,3.5,0,0,1-.931-.529s-.45,3.308-.955,3.982-.28,1.626-.793,1.737-.672,2.581-.672,2.581l-.434,5.444s-.114,1.121-.73,1.4,0,1.8,0,1.8-.661,1.29-.264,2.02-.793,4.093-.793,4.093-.505,6.507,0,7.4a7.336,7.336,0,0,1,.793,2.858c0,.563.28,11.049.28,11.049s-.674,4.265-.9,5.05.616,2.522.056,3.421a6.59,6.59,0,0,0-.449,2.908s-.849,7.921-.344,10.83-.161,3.535-.161,3.535a7.726,7.726,0,0,0,4.162.886A7.533,7.533,0,0,1,547.52,576.323Z" transform="translate(-546.51 -506.21)"/>
    </g>
    <path id="Path_3632" data-name="Path 3632" d="M585.424,305.088a20.845,20.845,0,0,1,1.748,2.255,3.088,3.088,0,0,0,2.4,1.343,6.439,6.439,0,0,1,.841-.071,1.811,1.811,0,0,1,.907.4,5.8,5.8,0,0,1,1.957,3.7c.256,1.4.264,2.861.645,4.246a2.115,2.115,0,0,0,.714,1.24,3.076,3.076,0,0,0,1.827.235,3.228,3.228,0,0,1,2.306.761,1.831,1.831,0,0,1,.36,2.263,1.378,1.378,0,0,0-.3.513.946.946,0,0,0,.264.68l1.729,2.353a2.51,2.51,0,0,1,.669,1.586,1.243,1.243,0,0,1-2.189.711c.188.584-.389,1.19-1,1.269a3.2,3.2,0,0,1-1.753-.46l-.045,1c-.508.264-1.044-.264-1.449-.677s-1.237-.65-1.43-.111a.7.7,0,0,0,.164.656c.706.88,2.361.656,2.848,1.676a1.375,1.375,0,0,1-.843,1.758,2.31,2.31,0,0,1-2.068-.423c-.59-.423-1.166-1.161-1.935-1.155-.96,0-1.534,1.11-2.43,1.457a2.48,2.48,0,0,1-2.467-.716c-.658-.619-1.116-1.42-1.724-2.091-1.565-1.727-3.937-2.411-6.147-3.149s-4.55-1.742-5.693-3.773a15.44,15.44,0,0,0-1-1.9c-.746-.973-2-1.428-2.816-2.34a3.614,3.614,0,0,1-.553-3.863,12.939,12.939,0,0,1,1.61-2.173A7.308,7.308,0,0,0,572.008,308a5.434,5.434,0,0,1,.124-1.734,2.7,2.7,0,0,1,1.959-1.613,8.053,8.053,0,0,1,2.644-.061,24.246,24.246,0,0,0,2.893.264c.64-.029,1.132-.529,1.75-.7A4.276,4.276,0,0,1,585.424,305.088Z" transform="translate(-455.924 -230.261)" fill="#3f3d56"/>
    <g id="Group_10004" data-name="Group 10004" transform="translate(112.826 80.023)" opacity="0.1">
      <path id="Path_3633" data-name="Path 3633" d="M658.69,329.536c.264,1.409.264,2.861.648,4.244a2.676,2.676,0,0,0,.42.954c-.032-.093-.061-.188-.085-.28-.367-1.385-.389-2.837-.645-4.246a7.554,7.554,0,0,0-.849-2.438,8.386,8.386,0,0,1,.51,1.766Z" transform="translate(-634.62 -327.77)"/>
      <path id="Path_3634" data-name="Path 3634" d="M681.418,363.754a1.359,1.359,0,0,0-.3.529.941.941,0,0,0,.264.677c.024.032.045.063.069.093a.41.41,0,0,1,0-.1,1.385,1.385,0,0,1,.3-.513,1.794,1.794,0,0,0-.161-2.041A1.631,1.631,0,0,1,681.418,363.754Z" transform="translate(-651.494 -353.244)"/>
      <path id="Path_3635" data-name="Path 3635" d="M608.109,380.133a1.446,1.446,0,0,1-.936,1.428,2.31,2.31,0,0,1-2.068-.426c-.59-.426-1.166-1.158-1.933-1.153-.962,0-1.534,1.11-2.432,1.454a2.474,2.474,0,0,1-2.467-.717c-.658-.619-1.116-1.42-1.721-2.089-1.565-1.727-3.937-2.414-6.15-3.152s-4.537-1.737-5.682-3.76c.1.225.209.447.328.661,1.142,2.031,3.479,3.035,5.69,3.773s4.585,1.422,6.15,3.149c.608.672,1.058,1.473,1.721,2.091a2.483,2.483,0,0,0,2.467.717c.9-.346,1.47-1.449,2.432-1.457.767,0,1.322.7,1.935,1.155a2.221,2.221,0,0,0,2.065.423,1.376,1.376,0,0,0,.846-1.758A1.238,1.238,0,0,0,608.109,380.133Z" transform="translate(-580.582 -360.1)"/>
      <path id="Path_3636" data-name="Path 3636" d="M669.169,384.87a1.446,1.446,0,0,1,.074.542,1.245,1.245,0,0,1-2.192.714c.188.582-.389,1.187-1,1.269a3.178,3.178,0,0,1-1.753-.46c-.016.331-.029.664-.045.994-.508.264-1.058-.264-1.446-.674s-1.237-.653-1.433-.111a.7.7,0,0,0,.164.653,1.352,1.352,0,0,0,.145.156.485.485,0,0,1,.026-.137c.2-.529,1.029-.3,1.433.111s.939.944,1.449.677c0-.333.029-.664.042-1a3.327,3.327,0,0,0,1.756.46c.608-.069,1.185-.685.994-1.269a1.245,1.245,0,0,0,2.192-.711,1.991,1.991,0,0,0-.41-1.216Z" transform="translate(-636.954 -369.773)"/>
      <path id="Path_3637" data-name="Path 3637" d="M572.193,356.857c-.743-.973-2-1.425-2.813-2.34a3.053,3.053,0,0,1-.309-.407,3.36,3.36,0,0,0,.645,1.081c.814.912,2.07,1.367,2.813,2.34a3.59,3.59,0,0,1,.283.434A5.972,5.972,0,0,0,572.193,356.857Z" transform="translate(-569.07 -347.146)"/>
    </g>
    <path id="Path_3638" data-name="Path 3638" d="M592.164,362.39s.616,6.843-2.189,8.915,6,7.742,6,7.742l6.676-1.459s-3.255-3.027-3.255-4.318.56-8.527,1.459-9.368S592.164,362.39,592.164,362.39Z" transform="translate(-471.216 -273.214)" fill="#fbbebe"/>
    <path id="Path_3639" data-name="Path 3639" d="M546.689,287.454l-1.526,3.334s-2.274,1.348-2.44,1.473-1.978,2.189-1.978,2.189l-4.46,2.861s-.108-.2-.264-.492a13.32,13.32,0,0,0-1.036-1.655c-.378-.42,0-4.878,0-4.878a3.5,3.5,0,0,0,.568-2.818c-.315-1.808-.357-8.918-.357-8.918s-.336-5.975.127-7.237-1.058-5.259-1.058-5.259-4.289-4.262-4-5.143,3.577,0,3.577,0a7.4,7.4,0,0,0,1.975.717c.407.024,2.583.034,4.251.037h1.975s1.388,4.836,1.221,5.341c-.034.1-.069.2-.1.291-.135.389-.238.735-.069.97a33.109,33.109,0,0,1,.674,3.871l.463,3.871a33.435,33.435,0,0,1,.672,3.45c-.042.423-1.095,1.3-.632,2.1a11.667,11.667,0,0,1,.635,3.239,9.2,9.2,0,0,0,1.536,2.472A1.29,1.29,0,0,0,546.689,287.454Z" transform="translate(-427.692 -198.278)" fill="#0264d1"/>
    <circle id="Ellipse_425" data-name="Ellipse 425" cx="8.077" cy="8.077" r="8.077" transform="translate(118.016 77.572)" opacity="0.1"/>
    <circle id="Ellipse_426" data-name="Ellipse 426" cx="8.077" cy="8.077" r="8.077" transform="translate(118.016 77.236)" fill="#fbbebe"/>
    <path id="Path_3640" data-name="Path 3640" d="M582.411,407.479c-.73.793-.9,8.461-.465,9.143s-2.171,2.02-3.686,1.962-5.661,1.235-5.661,1.235-8.3-2.245-10.047-1.121-4.207-2.02-3.477-3.141-.793-2.692-1.01-3.308a4.934,4.934,0,0,1-.09-.793h0c-.2-2.824-.415-11.871-.415-11.871V389.2l7.63-5.386a36.6,36.6,0,0,1,3.54,2.049,17.342,17.342,0,0,1,2.29,1.764c2.078,1.964,7.237,4.04,7.237,4.04s5.666,6.787,6.393,7.461S583.138,406.694,582.411,407.479Z" transform="translate(-447.777 -288.971)" fill="#fff"/>
    <path id="Path_3641" data-name="Path 3641" d="M557.57,418.571V409.64s.233,16.268.415,20.8C557.781,427.619,557.57,418.571,557.57,418.571Z" transform="translate(-447.784 -307.971)" opacity="0.1"/>
    <path id="Path_3642" data-name="Path 3642" d="M559.26,490.86a.889.889,0,0,1,.058.471C559.3,491.41,559.279,491.235,559.26,490.86Z" transform="translate(-449.027 -367.717)" opacity="0.1"/>
    <path id="Path_3643" data-name="Path 3643" d="M568.788,388.746a6.849,6.849,0,0,0-1.219,1.724c-.42.925-10,.169-10,.169V389.2l7.63-5.386a36.606,36.606,0,0,1,3.54,2.049C568.788,387.44,568.788,388.746,568.788,388.746Z" transform="translate(-447.784 -288.971)" opacity="0.1"/>
    <path id="Path_3644" data-name="Path 3644" d="M559.26,488.31a.891.891,0,0,1,.058.471C559.3,488.863,559.279,488.688,559.26,488.31Z" transform="translate(-449.027 -365.841)" opacity="0.1"/>
    <path id="Path_3645" data-name="Path 3645" d="M562.728,361.89l-1.526,3.334s-2.274,1.348-2.44,1.473-1.978,2.189-1.978,2.189l-4.46,2.861s-.108-.2-.264-.492a31.06,31.06,0,0,1,3.173-3.591c1.43-1.092-.042-1.219,0-1.43s3.157-1.346,4-2.144a35.314,35.314,0,0,1,3.263-2.38A1.291,1.291,0,0,0,562.728,361.89Z" transform="translate(-443.731 -272.714)" opacity="0.1"/>
    <path id="Path_3646" data-name="Path 3646" d="M517.714,362.39a38.091,38.091,0,0,0-3.5,2.522c-.841.8-3.966,1.935-4,2.147s1.43.336,0,1.43-4.92,6.224-6.184,6.61-9.883,3.966-9.883,3.966-2.818,2.644-3.239,2.644,2.565,2.861,2.565,2.861,2.692,2.147,2.988,2.483,7.662,4.318,7.662,4.318,1.264.378,1.388.756,1.809,1.43,1.809,1.43,1.88,2.16,1.7,2.93-.505-21.945-.505-21.945,9.579.756,10-.169a6.846,6.846,0,0,1,1.219-1.724s-.026-7.781-.563-8.358S517.725,363.1,517.714,362.39Z" transform="translate(-398.717 -273.214)" fill="#0264d1"/>
    <path id="Path_3647" data-name="Path 3647" d="M508.2,414.678s2.522,2.734,3.7,3.2a3.186,3.186,0,0,1,1.639,1.684,9.629,9.629,0,0,0,2.147.925,5.317,5.317,0,0,1,1.893,1.261s2.818.793,2.818,1.388,1.137,1.391,1.137,1.391l-.283-16.155s-4.682.587-6.028,2.565S508.2,414.678,508.2,414.678Z" transform="translate(-411.467 -307.037)" opacity="0.1"/>
    <path id="Path_3648" data-name="Path 3648" d="M529,416.462c.212-.127,5.954-7.525,5.954-7.525l1.058-.217a42.3,42.3,0,0,0-2.684,4.418C533.37,413.474,529,416.462,529,416.462Z" transform="translate(-426.768 -307.294)" opacity="0.1"/>
    <path id="Path_3649" data-name="Path 3649" d="M538.11,423.195s1.515-3.493,1.935-4.082,2.684-4.542,2.684-4.542a2.66,2.66,0,0,1,0,1.01C542.61,415.958,538.11,423.195,538.11,423.195Z" transform="translate(-433.469 -311.598)" opacity="0.1"/>
    <path id="Path_3650" data-name="Path 3650" d="M567.858,348.7s-3.366,6.142-3.07,6.438S567.858,348.7,567.858,348.7Z" transform="translate(-453.081 -263.144)" opacity="0.1"/>
    <path id="Path_3651" data-name="Path 3651" d="M573.84,357.93a40.557,40.557,0,0,0-2.525,4.006A40.561,40.561,0,0,0,573.84,357.93Z" transform="translate(-457.883 -269.933)" opacity="0.1"/>
    <path id="Path_3652" data-name="Path 3652" d="M541.143,222.9l-5.3.378s0-.172-.018-.468c-.074-1.75-.341-7.853-.484-8.535-.169-.793-.338-2.229-.338-2.229s-2.861-.42-2.818-.883-3.659-5.386-.841-5.288c2.2.066,5.96,2.665,7.506,3.8a1.412,1.412,0,0,1,.563,1.306,5.66,5.66,0,0,0-.048,1,14.087,14.087,0,0,1-.056,2.086,3.2,3.2,0,0,0,.238,1.769,33.213,33.213,0,0,1,1.322,5.465C541.032,222.229,541.143,222.9,541.143,222.9Z" transform="translate(-427.712 -158.081)" fill="#fbbebe"/>
    <path id="Path_3653" data-name="Path 3653" d="M555.191,270.826l-.1.288c-1.15-1.14-8.355-1.867-8.355-1.867-.632-.735-.066-1.058.608-1.957.394-.529,2.755-1.28,4.651-1.811h1.975S555.357,270.321,555.191,270.826Z" transform="translate(-439.612 -201.927)" opacity="0.1"/>
    <path id="Path_3654" data-name="Path 3654" d="M556.56,265.812l-5.3.378s0-.172-.018-.468a23.076,23.076,0,0,1,4.27-1.512h.767C556.449,265.141,556.56,265.812,556.56,265.812Z" transform="translate(-443.128 -200.992)" opacity="0.1"/>
    <path id="Path_3655" data-name="Path 3655" d="M555.191,270.186c-.034.1-.069.2-.1.291-1.15-1.142-8.355-1.869-8.355-1.869-.632-.735-.066-1.058.608-1.954.394-.529,2.755-1.282,4.651-1.814h1.975S555.357,269.681,555.191,270.186Z" transform="translate(-439.612 -201.456)" fill="#0264d1"/>
    <path id="Path_3656" data-name="Path 3656" d="M596.091,442.57s-.59,11.316,0,11.863S596.091,442.57,596.091,442.57Z" transform="translate(-475.928 -332.195)" opacity="0.1"/>
    <path id="Path_3657" data-name="Path 3657" d="M612.308,460.55s-.211,12.453,0,12.577S612.308,460.55,612.308,460.55Z" transform="translate(-487.981 -345.421)" opacity="0.1"/>
    <path id="Path_3658" data-name="Path 3658" d="M631,466.12s.793,8.582,1.515,8.918S631,466.12,631,466.12Z" transform="translate(-501.8 -349.518)" opacity="0.1"/>
    <path id="Path_3659" data-name="Path 3659" d="M642.236,434.222a1.753,1.753,0,0,1-.674-.264c-.714-.463-1.515-5.428-2.565-6.1s-4.839-7.279-4.839-7.279a34.723,34.723,0,0,0-2.062-3.323c-.59-.68-.294-3.7-.294-3.7a16.484,16.484,0,0,1-2.232-3.323,3.014,3.014,0,0,1-.291-1.081s.225-.664,1.121,0,3.083,3.479,3.672,3.688a5.274,5.274,0,0,1,2.189,1.642,4.554,4.554,0,0,0,1.3,1.179,16.38,16.38,0,0,1,.968,3.2c-.042.632.336,4.92.793,5.3s1.219,3.826,1.219,3.826S641.942,432.839,642.236,434.222Z" transform="translate(-500.534 -307.393)" opacity="0.1"/>
    <path id="Path_3660" data-name="Path 3660" d="M666.05,444.775V444.6a1.646,1.646,0,0,1,.045.381A.873.873,0,0,1,666.05,444.775Z" transform="translate(-527.582 -333.688)" opacity="0.1"/>
    <path id="Path_3661" data-name="Path 3661" d="M668.332,463.893c-.172.3-.333.571-.471.793-.7-.717-1.478-5.391-2.5-6.041a4.758,4.758,0,0,1-.925-1.039v-5.552a7.141,7.141,0,0,0,.529-1.113c.124,1.5.41,3.728.738,4,.463.378,1.219,3.828,1.219,3.828S667.83,461.949,668.332,463.893Z" transform="translate(-526.398 -338.352)" opacity="0.1"/>
    <path id="Path_3662" data-name="Path 3662" d="M642.876,433.585a1.658,1.658,0,0,1-.674-.264c-.716-.463-1.515-5.425-2.567-6.1s-4.836-7.276-4.836-7.276a34.727,34.727,0,0,0-2.062-3.323c-.59-.68-.293-3.7-.293-3.7a16.57,16.57,0,0,1-2.232-3.323,3.041,3.041,0,0,1-.291-1.084s.222-.661,1.121,0,3.083,3.479,3.672,3.688a5.266,5.266,0,0,1,2.187,1.645,4.456,4.456,0,0,0,1.3,1.177,16.438,16.438,0,0,1,.968,3.2c-.042.629.338,4.923.793,5.3s1.219,3.828,1.219,3.828S642.582,432.2,642.876,433.585Z" transform="translate(-501.005 -306.926)" fill="#0264d1"/>
    <circle id="Ellipse_427" data-name="Ellipse 427" cx="0.568" cy="0.568" r="0.568" transform="translate(132.72 109.81)" fill="#3f3d56"/>
    <circle id="Ellipse_428" data-name="Ellipse 428" cx="0.568" cy="0.568" r="0.568" transform="translate(136.453 114.92)" fill="#3f3d56"/>
    <path id="Path_3663" data-name="Path 3663" d="M670.434,454.051s-2.737-1.251-2.316-.576S670.434,454.051,670.434,454.051Z" transform="translate(-529.071 -340.07)" opacity="0.1"/>
    <path id="Path_3664" data-name="Path 3664" d="M670.681,461.84s-2.779-.756-2.189-.315A4.468,4.468,0,0,0,670.681,461.84Z" transform="translate(-529.318 -346.036)" opacity="0.1"/>
    <path id="Path_3665" data-name="Path 3665" d="M671.078,467.944s-1.893-1.37-1.43-.865A4.452,4.452,0,0,0,671.078,467.944Z" transform="translate(-530.175 -350.141)" opacity="0.1"/>
    <path id="Path_3666" data-name="Path 3666" d="M679.232,476.14s-1.93,3.8-1.007,4.045S679.232,476.14,679.232,476.14Z" transform="translate(-536.354 -356.889)" opacity="0.1"/>
    <path id="Path_3667" data-name="Path 3667" d="M569.4,711.77s-4.431,4.207-3.141,4.151S569.4,711.77,569.4,711.77Z" transform="translate(-453.999 -530.219)" opacity="0.1"/>
    <path id="Path_3668" data-name="Path 3668" d="M555.24,731.864c.225,0,4.712-.449,3.532-.674A9.32,9.32,0,0,0,555.24,731.864Z" transform="translate(-446.07 -544.478)" opacity="0.1"/>
    <path id="Path_3669" data-name="Path 3669" d="M637.76,709.23s4.759.167,4.656.672S637.76,709.23,637.76,709.23Z" transform="translate(-506.772 -528.351)" opacity="0.1"/>
    <path id="Path_3670" data-name="Path 3670" d="M634.79,716.44s2.747,2.076,3.366,1.4S634.79,716.44,634.79,716.44Z" transform="translate(-504.587 -533.654)" opacity="0.1"/>
    <path id="Path_3671" data-name="Path 3671" d="M570.617,597.109a1.4,1.4,0,0,1-.174.426.43.43,0,0,1-.122.127,7.559,7.559,0,0,1-2.245,1.058c-.1-.026-.5-.148-.947-.264-.516-.151-1.087-.312-1.3-.341s-.338-.37-.37-.7,0-.592.14-.643a.333.333,0,0,0,.119-.174,2.091,2.091,0,0,0,.074-.235l.021-.079c.074-.307.135-.7.177-1.015.024-.172.04-.325.053-.428v-.122h0v-.021l.37-.018h.352a21.79,21.79,0,0,1,3.207.032.9.9,0,0,1,.584.672,3.093,3.093,0,0,1,.132.759,3.386,3.386,0,0,1-.071.973Z" transform="translate(-453.579 -444.052)" fill="#fbbebe"/>
    <path id="Path_3672" data-name="Path 3672" d="M635.948,602.232a.383.383,0,0,0,0,.056c0,.574-.04,1.007-.04,1.079a28.106,28.106,0,0,1-7.289,1.682c-.957-.074-.246-.73.288-1.407a2.218,2.218,0,0,0,.423-.717.529.529,0,0,0,0-.288c-.029-.106-.055-.2-.074-.288h0c-.137-.605-.069-.793.074-.941a1.122,1.122,0,0,0,.193-.362,1.45,1.45,0,0,0,.082-.375,1.137,1.137,0,0,0-.214-.812c-.45-.6,1.684-.917,1.684-.917h4.053c.4,0,.608.56.714,1.285a.071.071,0,0,0,0,.024c.029.211.053.436.066.666s.024.434.026.645S635.948,602.018,635.948,602.232Z" transform="translate(-499.702 -447.221)" fill="#fbbebe"/>
    <path id="Path_3673" data-name="Path 3673" d="M579.336,670.213s-4.495,1.058-4.037.793c.172-.108.211-.473.2-.886a5.9,5.9,0,0,0-.053-.611c-.058-.468-.143-.859-.143-.859a11.182,11.182,0,0,1,3.2-.28,1,1,0,0,1,.632.677.962.962,0,0,1,.034.093A3.846,3.846,0,0,1,579.336,670.213Z" transform="translate(-460.802 -498.251)" fill="#fbbebe"/>
    <path id="Path_3674" data-name="Path 3674" d="M592.652,320.543a19.433,19.433,0,0,0,1.75-.854,2.4,2.4,0,0,1,1.883-.185,3,3,0,0,1,.825.579c.529.468,1.058.936,1.555,1.436a9.135,9.135,0,0,0,1.621,1.446c1.388.849,3.152.658,4.759.4a2.933,2.933,0,0,0,.939-.264,1.949,1.949,0,0,0,.812-2.1,4.709,4.709,0,0,0-1.208-2.06,16.922,16.922,0,0,0-5.518-4.082c-2.226-1.023-4.875-1.533-7.1-.5a7.7,7.7,0,0,0-1.851,1.264c-.772.687-2.768,2.435-2.327,3.617C589.281,320.566,591.5,320.929,592.652,320.543Z" transform="translate(-470.707 -237.466)" opacity="0.1"/>
    <path id="Path_3675" data-name="Path 3675" d="M592.652,319.908a18.739,18.739,0,0,0,1.75-.854,2.417,2.417,0,0,1,1.883-.185,3.122,3.122,0,0,1,.825.579c.529.468,1.058.936,1.555,1.436a9.032,9.032,0,0,0,1.621,1.446c1.388.849,3.152.658,4.759.4a2.866,2.866,0,0,0,.939-.264,1.948,1.948,0,0,0,.812-2.1,4.709,4.709,0,0,0-1.208-2.06,16.882,16.882,0,0,0-5.518-4.08c-2.226-1.023-4.875-1.533-7.1-.508a7.772,7.772,0,0,0-1.851,1.264c-.772.687-2.768,2.438-2.327,3.62C589.281,319.935,591.5,320.3,592.652,319.908Z" transform="translate(-470.707 -237.001)" fill="#3f3d56"/>
    <path id="Path_3676" data-name="Path 3676" d="M605.96,335.714a2.836,2.836,0,0,1-.936.264c-1.607.264-3.368.442-4.759-.4a9.134,9.134,0,0,1-1.629-1.459c-.5-.5-1.029-.968-1.555-1.436a3.073,3.073,0,0,0-.825-.582,2.412,2.412,0,0,0-1.885.188,18.7,18.7,0,0,1-1.748.854c-1.15.386-3.371.024-3.868-1.3a.992.992,0,0,1-.05-.2,1.1,1.1,0,0,0,.05.529c.5,1.322,2.718,1.687,3.868,1.3a19.05,19.05,0,0,0,1.748-.854,2.41,2.41,0,0,1,1.885-.185,3,3,0,0,1,.825.579c.529.468,1.058.936,1.555,1.436a9.135,9.135,0,0,0,1.621,1.446c1.388.849,3.149.658,4.759.4a2.908,2.908,0,0,0,.936-.264,1.879,1.879,0,0,0,.854-1.814A1.777,1.777,0,0,1,605.96,335.714Z" transform="translate(-470.679 -250.594)" opacity="0.1"/>
    <path id="Path_3677" data-name="Path 3677" d="M567.043,595.449a10.924,10.924,0,0,1-.293,1.5,12.554,12.554,0,0,0,.264-1.523Z" transform="translate(-454.537 -444.639)" opacity="0.1"/>
    <path id="Path_3678" data-name="Path 3678" d="M570.324,597.672a7.559,7.559,0,0,1-2.245,1.058c-.225-.063-1.851-.56-2.247-.616s-.5-1.235-.23-1.346a.333.333,0,0,0,.119-.174,2.282,2.282,0,0,1-.1.235,1.17,1.17,0,0,0,.264,1.235l2.332.6,2.2-1.2c.529-.727-.063-2.4-.365-2.676s-3.905,0-3.905,0l-.079-.077h0v-.021l.37-.019h.352a21.8,21.8,0,0,1,3.207.032C570.885,594.867,570.885,597.281,570.324,597.672Z" transform="translate(-453.582 -444.052)" opacity="0.1"/>
    <path id="Path_3679" data-name="Path 3679" d="M635.13,598.92h-4.053s-2.134.32-1.684.917a1.355,1.355,0,0,1-.061,1.549c-.161.169-.23.394,0,1.235s-2.179,2.3-.722,2.411a28.215,28.215,0,0,0,7.289-1.682C635.9,603.129,636.214,598.92,635.13,598.92Zm.547,4.352a26.55,26.55,0,0,1-6.874,1.586c-1.378-.1.9-1.478.68-2.271s-.153-1,0-1.163a1.279,1.279,0,0,0,.058-1.462c-.423-.563,1.586-.865,1.586-.865h3.821C635.973,599.094,635.677,603.06,635.677,603.272Z" transform="translate(-499.695 -447.206)" opacity="0.1"/>
    <path id="Path_3680" data-name="Path 3680" d="M578.5,668.34a11.182,11.182,0,0,0-3.2.28s.449,2.076,0,2.356,4.04-.793,4.04-.793S579.342,668.564,578.5,668.34Zm-3.128,2.591c.434-.264,0-2.276,0-2.276a10.677,10.677,0,0,1,3.088-.264c.812.222.812,1.787.812,1.787S574.934,671.2,575.371,670.931Z" transform="translate(-460.805 -498.229)" opacity="0.1"/>
    <path id="Path_3681" data-name="Path 3681" d="M639.051,607.05l-6.681.793h0l6.655-1.433C639.038,606.619,639.049,606.83,639.051,607.05Z" transform="translate(-502.807 -452.716)" opacity="0.1"/>
    <path id="Path_3682" data-name="Path 3682" d="M489.81,581.464l6.94-1.494.148.65Z" transform="translate(-360.308 -426.495)" fill="#3f3d56"/>
    <path id="Path_3683" data-name="Path 3683" d="M638.046,611.39a.383.383,0,0,0,0,.056L631,612.8a2.219,2.219,0,0,0,.423-.717Z" transform="translate(-501.8 -456.379)" opacity="0.1"/>
    <path id="Path_3684" data-name="Path 3684" d="M485.81,585.768l8.461-.888-8.236,1.584Z" transform="translate(-357.366 -430.107)" fill="#3f3d56"/>
    <path id="Path_3685" data-name="Path 3685" d="M639.7,603.78l-6.237.444a1.453,1.453,0,0,1-.082.375l6.322-.793Z" transform="translate(-503.55 -450.781)" opacity="0.1"/>
    <path id="Path_3686" data-name="Path 3686" d="M489.516,577.925l7.089-.505-7.194.9Z" transform="translate(-360.014 -424.62)" fill="#3f3d56"/>
    <path id="Path_3687" data-name="Path 3687" d="M571.719,597.907l-4.889.159c.074-.307.135-.7.177-1.015l4.579.1A3.1,3.1,0,0,1,571.719,597.907Z" transform="translate(-454.596 -445.831)" opacity="0.1"/>
    <path id="Path_3688" data-name="Path 3688" d="M423.12,570.76l6.668.14-.814.711-5.854.188Z" transform="translate(-311.251 -419.72)" fill="#3f3d56"/>
    <path id="Path_3689" data-name="Path 3689" d="M570.648,604a1.4,1.4,0,0,1-.174.426l-3.313.917c-.516-.151-1.087-.312-1.3-.341s-.338-.37-.37-.7Z" transform="translate(-453.61 -450.943)" opacity="0.1"/>
    <path id="Path_3690" data-name="Path 3690" d="M419.81,577.872l7.768-.452-7.123,1.972Z" transform="translate(-308.816 -424.62)" fill="#3f3d56"/>
    <path id="Path_3691" data-name="Path 3691" d="M579.65,671.153l-3.667.981a5.879,5.879,0,0,0-.053-.611c1.023-.138,2.729-.346,3.686-.463A.955.955,0,0,1,579.65,671.153Z" transform="translate(-461.29 -500.273)" opacity="0.1"/>
    <path id="Path_3692" data-name="Path 3692" d="M572.74,670.762c.14-.056,5.246-.672,5.246-.672l-5.246,1.4Z" transform="translate(-458.943 -499.559)" fill="#3f3d56"/>
    <circle id="Ellipse_429" data-name="Ellipse 429" cx="5.719" cy="5.719" r="5.719" transform="translate(191.003 19.613)" fill="#0264d1"/>
    <circle id="Ellipse_430" data-name="Ellipse 430" cx="4.497" cy="4.497" r="4.497" transform="translate(217.609 34.845)" fill="#0264d1"/>
    <circle id="Ellipse_431" data-name="Ellipse 431" cx="5.719" cy="5.719" r="5.719" transform="translate(191.003 19.613)" opacity="0.4"/>
    <circle id="Ellipse_432" data-name="Ellipse 432" cx="4.497" cy="4.497" r="4.497" transform="translate(217.609 34.845)" opacity="0.4"/>
    <circle id="Ellipse_433" data-name="Ellipse 433" cx="14.433" cy="14.433" r="14.433" transform="translate(20.359 24.909)" fill="#0264d1"/>
    <circle id="Ellipse_434" data-name="Ellipse 434" cx="14.433" cy="14.433" r="14.433" transform="translate(20.359 24.909)" opacity="0.4"/>
    <circle id="Ellipse_435" data-name="Ellipse 435" cx="1.586" cy="1.586" r="1.586" transform="translate(219.193 17.672)" fill="#0264d1"/>
    <circle id="Ellipse_436" data-name="Ellipse 436" cx="1.586" cy="1.586" r="1.586" transform="translate(219.193 17.672)" opacity="0.4"/>
    <path id="Path_3693" data-name="Path 3693" d="M448.418,788s1.645,2.15-.759,5.4-4.384,5.986-3.583,8.011c0,0,3.625-6.028,6.576-6.113S451.657,791.628,448.418,788Z" transform="translate(-364.165 -586.294)" fill="#0264d1"/>
    <path id="Path_3694" data-name="Path 3694" d="M448.679,788a2.642,2.642,0,0,1,.336.674c2.879,3.384,4.413,6.541,1.647,6.61-2.578.071-5.671,4.682-6.412,5.846a2.412,2.412,0,0,0,.087.264s3.625-6.028,6.576-6.113S451.918,791.628,448.679,788Z" transform="translate(-364.426 -586.294)" opacity="0.1"/>
    <path id="Path_3695" data-name="Path 3695" d="M471.478,797.029c0,.756-.085,1.37-.19,1.37s-.188-.613-.188-1.37.106-.4.209-.4S471.478,796.27,471.478,797.029Z" transform="translate(-384.177 -592.578)" fill="#ffd037"/>
    <path id="Path_3696" data-name="Path 3696" d="M472.894,800.348c-.664.362-1.245.582-1.293.489s.447-.46,1.11-.822.4-.1.452,0S473.555,799.986,472.894,800.348Z" transform="translate(-384.543 -594.996)" fill="#ffd037"/>
    <path id="Path_3697" data-name="Path 3697" d="M417.865,788s-1.645,2.15.759,5.4,4.384,5.986,3.583,8.011c0,0-3.625-6.028-6.576-6.113S414.618,791.628,417.865,788Z" transform="translate(-342.303 -586.294)" fill="#0264d1"/>
    <path id="Path_3698" data-name="Path 3698" d="M417.865,788a2.643,2.643,0,0,0-.336.674c-2.879,3.384-4.413,6.541-1.647,6.61,2.578.071,5.671,4.682,6.412,5.846a2.419,2.419,0,0,1-.087.264s-3.625-6.028-6.576-6.113S414.618,791.628,417.865,788Z" transform="translate(-342.303 -586.294)" opacity="0.1"/>
    <path id="Path_3699" data-name="Path 3699" d="M416.57,797.029c0,.756.085,1.37.19,1.37s.188-.613.188-1.37-.106-.4-.209-.4S416.57,796.27,416.57,797.029Z" transform="translate(-344.064 -592.578)" fill="#ffd037"/>
    <path id="Path_3700" data-name="Path 3700" d="M411.478,800.348c.664.362,1.243.582,1.293.489s-.447-.46-1.11-.822-.4-.1-.452,0S410.814,799.986,411.478,800.348Z" transform="translate(-340.022 -594.996)" fill="#ffd037"/>
    <path id="Path_3701" data-name="Path 3701" d="M418.55,830.738s4.6-.14,5.981-1.129,7.073-2.163,7.416-.582,6.906,7.868,1.716,7.911-12.057-.809-13.439-1.65S418.55,830.738,418.55,830.738Z" transform="translate(-345.521 -615.904)" fill="#a8a8a8"/>
    <path id="Path_3702" data-name="Path 3702" d="M433.755,843.265c-5.187.042-12.056-.809-13.439-1.65-1.058-.642-1.473-2.945-1.613-4.006h-.153s.291,3.7,1.674,4.55,8.252,1.692,13.439,1.65c1.5,0,2.017-.545,1.988-1.335C435.442,842.964,434.871,843.265,433.755,843.265Z" transform="translate(-345.521 -622.787)" opacity="0.2"/>
    <path id="Path_3703" data-name="Path 3703" d="M811.322,761.594s-2.937-9.976.55-17.318a15.755,15.755,0,0,0,1.274-9.886,26.523,26.523,0,0,0-1.4-4.64" transform="translate(-633.594 -543.445)" fill="none" stroke="#535461" stroke-miterlimit="10" stroke-width="2"/>
    <path id="Path_3704" data-name="Path 3704" d="M812.039,706.248c0,1.224-2.213,4.759-2.213,4.759s-2.216-3.546-2.216-4.759a2.216,2.216,0,0,1,4.429,0Z" transform="translate(-631.714 -524.584)" fill="#0264d1"/>
    <path id="Path_3705" data-name="Path 3705" d="M825.82,728.312c-.664,1.026-4.45,2.8-4.45,2.8s.069-4.177.732-5.2a2.214,2.214,0,1,1,3.717,2.406Z" transform="translate(-641.836 -539.874)" fill="#0264d1"/>
    <path id="Path_3706" data-name="Path 3706" d="M822.974,769.926c-1.089.55-5.254.169-5.254.169s2.171-3.572,3.26-4.125a2.219,2.219,0,1,1,1.994,3.966Z" transform="translate(-639.151 -569.915)" fill="#0264d1"/>
    <path id="Path_3707" data-name="Path 3707" d="M815.35,803.489c-.984.727-5.15,1.058-5.15,1.058s1.534-3.887,2.517-4.614a2.217,2.217,0,1,1,2.644,3.559Z" transform="translate(-633.62 -594.75)" fill="#0264d1"/>
    <path id="Path_3708" data-name="Path 3708" d="M801.925,738.722c.878.851,4.963,1.734,4.963,1.734s-1-4.058-1.877-4.91a2.213,2.213,0,1,0-3.086,3.173Z" transform="translate(-627.04 -547.248)" fill="#0264d1"/>
    <path id="Path_3709" data-name="Path 3709" d="M791.771,776.414c1.092.55,5.254.169,5.254.169s-2.168-3.572-3.26-4.125a2.216,2.216,0,0,0-1.994,3.955Z" transform="translate(-619.209 -574.708)" fill="#0264d1"/>
    <path id="Path_3710" data-name="Path 3710" d="M789.141,815.722c.981.727,5.148,1.058,5.148,1.058s-1.534-3.889-2.517-4.616a2.218,2.218,0,1,0-2.644,3.561Z" transform="translate(-617.459 -603.747)" fill="#0264d1"/>
    <path id="Path_3711" data-name="Path 3711" d="M812.039,706.248c0,1.224-2.213,4.759-2.213,4.759s-2.216-3.546-2.216-4.759a2.216,2.216,0,0,1,4.429,0Z" transform="translate(-631.714 -524.584)" fill="#0264d1"/>
    <path id="Path_3712" data-name="Path 3712" d="M825.82,728.312c-.664,1.026-4.45,2.8-4.45,2.8s.069-4.177.732-5.2a2.214,2.214,0,1,1,3.717,2.406Z" transform="translate(-641.836 -539.874)" fill="#0264d1"/>
    <path id="Path_3713" data-name="Path 3713" d="M822.974,769.926c-1.089.55-5.254.169-5.254.169s2.171-3.572,3.26-4.125a2.219,2.219,0,1,1,1.994,3.966Z" transform="translate(-639.151 -569.915)" fill="#0264d1"/>
    <path id="Path_3714" data-name="Path 3714" d="M815.35,803.489c-.984.727-5.15,1.058-5.15,1.058s1.534-3.887,2.517-4.614a2.217,2.217,0,1,1,2.644,3.559Z" transform="translate(-633.62 -594.75)" fill="#0264d1"/>
    <path id="Path_3715" data-name="Path 3715" d="M801.925,738.722c.878.851,4.963,1.734,4.963,1.734s-1-4.058-1.877-4.91a2.213,2.213,0,1,0-3.086,3.173Z" transform="translate(-627.04 -547.248)" fill="#0264d1"/>
    <path id="Path_3716" data-name="Path 3716" d="M791.771,776.414c1.092.55,5.254.169,5.254.169s-2.168-3.572-3.26-4.125a2.216,2.216,0,0,0-1.994,3.955Z" transform="translate(-619.209 -574.708)" fill="#0264d1"/>
    <path id="Path_3717" data-name="Path 3717" d="M789.141,815.722c.981.727,5.148,1.058,5.148,1.058s-1.534-3.889-2.517-4.616a2.218,2.218,0,1,0-2.644,3.561Z" transform="translate(-617.459 -603.747)" fill="#0264d1"/>
    <path id="Path_3718" data-name="Path 3718" d="M788.27,838.1s3.58-.711,4.532-1.658,5.248-2.6,5.727-1.42,6.438,5.209,2.38,5.92-9.542.947-10.734.473S788.27,838.1,788.27,838.1Z" transform="translate(-617.488 -620.584)" fill="#a8a8a8"/>
    <path id="Path_3719" data-name="Path 3719" d="M800.914,850.122c-4.056.711-9.542.949-10.735.476-.907-.362-1.539-2.094-1.79-2.908l-.119.024s.717,2.842,1.909,3.315,6.679.238,10.734-.473c1.169-.206,1.5-.687,1.378-1.3C802.191,849.665,801.783,849.972,800.914,850.122Z" transform="translate(-617.488 -630.202)" opacity="0.2"/>
    <path id="Path_3720" data-name="Path 3720" d="M256.171,95.189v.1a.307.307,0,0,0,0,.05v.283a.034.034,0,0,1,0,.016v.172l-.024.185a.616.616,0,0,1-.021.122h0a.481.481,0,0,0,0,.061v.037a.131.131,0,0,1,0,.032.111.111,0,0,1-.013.063c-.013.021,0,.042-.013.063s0,.032,0,.048a.825.825,0,0,1-.018.082h0a.422.422,0,0,1-.013.056.66.66,0,0,1-.018.069.312.312,0,0,1-.021.082.063.063,0,0,0,0,.021.261.261,0,0,1-.026.085c-.024.085-.053.172-.082.264,0,.026-.021.053-.029.079a.289.289,0,0,1-.019.045,5.751,5.751,0,0,1-.772,1.412l-.061.079a5.854,5.854,0,0,1-.5.566l-8.331,8.26-8.249-8.249a5.878,5.878,0,0,1-.648-.769,5.679,5.679,0,0,1-.336-.529,5.846,5.846,0,0,1-.706-3.316,2.158,2.158,0,0,1,.037-.317q.04-.264.1-.555a.387.387,0,0,1,.029-.108l.016-.058v-.032l.024-.085h0c.019-.063.04-.127.061-.19s.019-.058.029-.087c.042-.124.09-.246.143-.368l.032-.071.048-.108.085-.174h0c0-.026.026-.053.042-.079a.707.707,0,0,1,.048-.087c.019-.037.04-.071.061-.108a.529.529,0,0,0,.029-.053.108.108,0,0,0,.019-.029h0l.04-.063c.016-.024.029-.048.045-.069l.106-.159.037-.053.048-.066.05-.069.063-.082.056-.069.021-.026.04-.048a.917.917,0,0,1,.066-.077.389.389,0,0,1,.026-.034h0l.048-.056.058-.061c.05-.056.1-.111.159-.164l.063-.063.1-.093.066-.061.079-.069.05-.045.053-.042.1-.085.053-.042c.09-.069.18-.135.264-.2l.053-.037.056-.037.053-.034.077-.048.04-.024.056-.034c.077-.042.153-.087.23-.127l.045-.024.071-.037.058-.026.061-.029.058-.029.058-.026.061-.026c.079-.034.161-.066.241-.1l.061-.024.063-.024.058-.019.048-.016.111-.037.09-.061.045-.013h.045l.082-.024.106-.026c.108-.026.219-.05.331-.071h.3c.106,0,.212-.024.32-.032h.886c.087,0,.172.016.264.024l.116.016h.246c.111.021.219.045.328.071l.135.034h.037l.058.016.111.032.048.016.241.082.053.021.071.026.111.045.122.053.048.021.069.032.058.029.058.026.074.04.058.029.135.074.056.032.2.119.053.034.056.037.053.037h0l.037.024.23.169.053.042.1.085.053.042.05.045.079.069.066.061.1.093.063.063.066-.063c.032-.032.063-.063.1-.093a.723.723,0,0,1,.066-.061l.077-.069.053-.045.05-.042.106-.085.053-.042c.09-.069.18-.135.264-.2l.056-.037.056-.037.053-.034.077-.048.04-.024.056-.034c.077-.042.153-.087.23-.127l.045-.024.071-.037.058-.026.058-.029.061-.029.058-.026.061-.026c.079-.034.159-.066.241-.1l.058-.024.066-.024.058-.019.048-.016.111-.037.056-.016.048-.013h.045l.079-.024.106-.026q.167-.04.333-.071h.3c.106,0,.214-.024.32-.032h.886l.264.024.114.016h.249c.108.021.219.045.328.071l.135.034h.037l.058.016.111.032.048.016.241.082.053.021.071.026.108.045.124.053.048.021.066.032.058.029.061.026.071.04.058.029.135.074.058.032.2.119.05.034.056.037.058.042h0l.034.024c.079.056.156.111.23.169a.411.411,0,0,1,.053.042c.037.026.071.056.106.085l.053.042.05.045.069.058.066.061.037.037h0l.063.061.029.029.034.034.063.063.1.1a.58.58,0,0,1,.053.061c.032.032.061.066.093.1l.1.114a4.733,4.733,0,0,1,.3.412.4.4,0,0,1,.056.045.5.5,0,0,1,.042.061l.034.056.058.093.05.087.029.053.024.042.024.042.034.063.032.063c.077.148.145.3.209.455l.026.066c.024.063.048.127.069.19a.535.535,0,0,1,.021.058.3.3,0,0,0,.026.082l.024.074.016.048a.271.271,0,0,0,.019.066l.024.085c.013.045.024.093.034.137s.013.048.018.071.013.066.021.1a.257.257,0,0,0,0,.045v.764h0a.356.356,0,0,1,0,.053.356.356,0,0,1,0,.053v.087h0V95Z" transform="translate(-211.421 -72.38)" fill="#ff6584"/>
    <path id="Path_3721" data-name="Path 3721" d="M256.633,95.189v.1a.307.307,0,0,0,0,.05v.283a.034.034,0,0,1,0,.016v.172l-.024.185a.616.616,0,0,1-.021.122h0a.481.481,0,0,0,0,.061v.037a.131.131,0,0,1,0,.032.111.111,0,0,1-.013.063c-.013.021,0,.042-.013.063s0,.032,0,.048a.825.825,0,0,1-.018.082h0a.422.422,0,0,1-.013.056.66.66,0,0,1-.018.069.312.312,0,0,1-.021.082.063.063,0,0,0,0,.021.261.261,0,0,1-.026.085c-.024.085-.053.172-.082.264,0,.026-.021.053-.029.079a.289.289,0,0,1-.019.045,5.817,5.817,0,0,0-1.547-5.492,5.912,5.912,0,0,0-1-.793c-.106-.066-.212-.13-.32-.188a5.817,5.817,0,0,0-6.248.346,5.6,5.6,0,0,0-.761.642,6.394,6.394,0,0,0-.714-.608h0a6.059,6.059,0,0,0-.6-.381,5.841,5.841,0,0,0-5.618,0,6.04,6.04,0,0,0-.83.553,5.914,5.914,0,0,0-1.126,1.2c-.116.164-.225.333-.323.505h0a5.483,5.483,0,0,0-.249.5c-.042.093-.082.188-.119.283a.387.387,0,0,1,.029-.108l.016-.058v-.032l.024-.085h0c.019-.063.04-.127.061-.19s.019-.058.029-.087c.042-.124.09-.246.143-.368l.032-.071.048-.108.085-.174h0c0-.026.026-.053.042-.079a.71.71,0,0,1,.048-.087c.019-.037.04-.071.061-.108a.529.529,0,0,0,.029-.053.109.109,0,0,0,.019-.029h0l.04-.063c.016-.024.029-.048.045-.069l.106-.159.037-.053.048-.066.05-.069.063-.082.056-.069.021-.026.04-.048a.915.915,0,0,1,.066-.077.392.392,0,0,1,.026-.034h0l.048-.056.058-.061c.05-.056.1-.111.159-.164l.063-.063.1-.093.066-.061.079-.069.05-.045.053-.042.1-.085.053-.042c.09-.069.18-.135.264-.2l.053-.037.056-.037.053-.034.077-.048.04-.024.056-.034c.077-.042.153-.087.23-.127l.045-.024.071-.037.058-.026.061-.029.058-.029.058-.026.061-.026c.079-.034.161-.066.241-.1l.061-.024.063-.024.058-.019.048-.016.111-.037.085-.042.045-.013h.045l.082-.024.106-.026c.108-.026.219-.05.331-.071h.3c.106,0,.212-.024.32-.032h.886c.087,0,.172.016.264.024l.116.016h.246c.111.021.219.045.328.071l.135.034h.037l.058.016.111.032.048.016.241.082.053.021.071.026.111.045.122.053.048.021.069.032.058.029.058.026.074.04.058.029.135.074.056.032.2.119.053.034.056.037.053.037h0l.037.024.23.169.053.042.1.085.053.042.05.045.079.069.066.061.1.093.063.063.066-.063c.032-.032.063-.063.1-.093a.723.723,0,0,1,.066-.061l.077-.069.053-.045.05-.042.106-.085.053-.042c.09-.069.18-.135.264-.2l.056-.037.056-.037.053-.034.077-.048.04-.024.056-.034c.077-.042.153-.087.23-.127l.045-.024.071-.037.058-.026.058-.029.061-.029.058-.026.061-.026c.079-.034.159-.066.241-.1l.058-.024.066-.024.058-.019.048-.016.111-.037.056-.016.048-.013h.045l.079-.024.106-.026q.167-.04.333-.071h.3c.106,0,.214-.024.32-.032h.886l.264.024.114.016h.249c.108.021.219.045.328.071l.135.034h.037l.058.016.111.032.048.016.241.082.053.021.071.026.108.045.124.053.048.021.066.032.058.029.061.026.071.04.058.029.135.074.058.032.2.119.05.034.056.037.058.042h0l.034.024c.079.056.156.111.23.169a.411.411,0,0,1,.053.042c.037.026.071.056.106.085l.053.042.05.045.069.058.066.061.037.037h0l.063.061.029.029.034.034.063.063.1.1a.58.58,0,0,1,.053.061c.032.032.061.066.093.1l.1.114a4.733,4.733,0,0,1,.3.412.4.4,0,0,1,.056.045.5.5,0,0,1,.042.061l.034.056.058.093.05.087.029.053.024.042.024.042.034.063.032.063c.077.148.145.3.209.455l.026.066c.024.063.048.127.069.19a.532.532,0,0,1,.021.058.3.3,0,0,0,.026.082l.024.074.016.048a.271.271,0,0,0,.019.066l.024.085c.013.045.024.093.034.137s.013.048.018.071.013.066.021.1a.257.257,0,0,0,0,.045v.764h0a.356.356,0,0,1,0,.053.356.356,0,0,1,0,.053v.087h0V95Z" transform="translate(-211.884 -72.38)" opacity="0.1"/>
  </g>
</svg>
