<svg xmlns="http://www.w3.org/2000/svg" width="175.547" height="175.547" viewBox="0 0 175.547 175.547">
  <path id="qrcode-scan" d="M29.258,29.258H73.145V73.145H29.258V29.258m117.031,0V73.145H102.4V29.258h43.887M102.4,109.717h14.629V95.088H102.4V80.459h14.629V95.088H131.66V80.459h14.629V95.088H131.66v14.629h14.629V131.66H131.66v14.629H117.031V131.66H95.088v14.629H80.459V117.031H102.4v-7.314m14.629,0V131.66H131.66V109.717H117.031M29.258,146.289V102.4H73.145v43.887H29.258m14.629-102.4V58.516H58.516V43.887H43.887m73.145,0V58.516H131.66V43.887H117.031M43.887,117.031V131.66H58.516V117.031H43.887M29.258,80.459H43.887V95.088H29.258V80.459m36.572,0H95.088v29.258H80.459V95.088H65.83V80.459M80.459,43.887H95.088V73.145H80.459V43.887M14.629,14.629V43.887H0V14.629A14.629,14.629,0,0,1,14.629,0H43.887V14.629H14.629M160.918,0a14.629,14.629,0,0,1,14.629,14.629V43.887H160.918V14.629H131.66V0h29.258M14.629,131.66v29.258H43.887v14.629H14.629A14.629,14.629,0,0,1,0,160.918V131.66H14.629m146.289,29.258V131.66h14.629v29.258a14.629,14.629,0,0,1-14.629,14.629H131.66V160.918Z" fill="#fff"/>
</svg>
